<mxfile host="app.diagrams.net" agent="Mozilla/5.0 (X11; Linux x86_64) AppleWebKit/537.36 (KHTML, like Gecko) Chrome/129.0.0.0 Safari/537.36" version="24.7.14">
  <diagram name="Page-1" id="mBTKe-zWbdPLzDQBjlhD">
    <mxGraphModel dx="1687" dy="1931" grid="1" gridSize="10" guides="1" tooltips="1" connect="1" arrows="1" fold="1" page="1" pageScale="1" pageWidth="850" pageHeight="1100" math="0" shadow="0">
      <root>
        <mxCell id="0" />
        <mxCell id="1" parent="0" />
        <mxCell id="W0v19VU2lWSn0CHCIJt0-37" value="" style="shape=image;verticalLabelPosition=bottom;labelBackgroundColor=default;verticalAlign=top;aspect=fixed;imageAspect=0;image=data:image/png,iVBORw0KGgoAAAANSUhEUgAABDoAAAIHCAYAAAB+GTzwAAAACXBIWXMAAA7EAAAOxAGVKw4bAAAAEHRFWHRsb2dpY2FsWAA3NzAuNTA0BPrVNwAAABB0RVh0bG9naWNhbFkANDA4LjQyNtLmyQkAAAAMdEVYdHNjcmVlbgBlRFAtMRVLWqIAACAASURBVHhe7N1xbNNnnu/791mjOKJrZCZE8mTQiTtcJe5IrjyqJawgcZxKTMweNuO9YTpeEJVTUY3vyVxImQMnXdoeLy0ip8y2KWcyctVqExXBpC3ccTPcg1NWjReJyEgZjdUcTZ3otpi9rGsJ0lrkFNkRvnP/SCjhR0LZaWninz8vqdL8nuf5VfPUju3f93me7/ff/elPf/rTv/zLvwDw7//9v0dERORBqsTvnP/5P/8na9asqaj/z9+EsbEx1q9fr3lXCc1b864GmrfmXQ1u/W75y++s5zt/+RfGbtO69RuTv4BV//Iv/0JjY6NxjIiIiIiIiIhUqP/9J3/L//Xub4zNpnf5/71M9YR3RERERERERKpEPn/V2FQ1Vi3cxvOnP/3pjk4REZFql81mefjhh/nu9xqJj04au03r03+9TLC1uerm/cn/8xF/+1c/5Pv/2yP85n/8wdhtWpq35l0NNG/Nuxq8+d9f4o3//hJP/5/P0b3/Bf5X8f8zDjGlW79bnE4nzJ1eERERERERERExBwU6RERERERERMQ0FOgQEREREREREdNQoENERERERERETEOBDhEREZG7/DtjQ5XQvKuL5l1dNG+pHgp0iIiIiNylWivRad7VRfOuLpq3VA8FOkRERETuUq0rgJp3ddG8q4vmLdVDgQ4RERGRu1TrCqDmXV007+qieUv1UKBDRERERERERExDgQ4RERERERERMQ0FOkRERERERETENBToEBERERERERHTUKBDRERE5C7VmqVf864umnd10byleijQISIiInKXas3Sr3lXF827umjeUj1WGRtEREREpFpXAJdv3rOXk4yeT3HpaoHZkrF3nsVD+y9COC3Gjq9r+ea9vDTv6qJ5S/VQoENERETkLtW6Arg8854+F+E/7R8ke8PYY7A6hPsXIZzG9q9teea9/DTv6qJ5S/VQoENERETkLtW6Argc884wHBvi0/ogkUgY9wYHtqV2bKyy07BU39eyHPNeCTTv6qJ5S/VQoENERETkLtW6ArgM8y5nuXTZjv/IIJ1bao2935JlmPeKoHlXF81bqocCHSIiIiKyjGqxrbZjrV+uIIeIiJiNqq6IiIiIyPKxeHjUW2ByImvsERER+bMo0CEiIiIiy8hO274+Gs5EOHo6zfRSFVdERETuk46uiIiIiMjyKacYeL6PS19kmXrWx6monXVr7dQs9ivVGmD/mT5aHkhCUhERMYvFvkJERERERL4lBa7l80xj57sb7MbOO1mVx0NERL6aAh0iIiIisnwsAfafzRhbRURE/mzK0SEiIiIiIiIipqEdHSIiIiKyAhTJnh9i9J+TTF7OM1MCrHYaNnjwbgnT6nVQY7xFRERkEQp0iIiIiMjyKmU4tS/IsXNZ7iq6cj7O8EAvzp8O8mo0SIMSkYqIyFdQoENEREREllV2IMKx0QLOYJSdHQHcjU5sq2H2Rp5rUylGT/dx8nSEw00e+nc5jbeLiIjcQYEOEREREVk+5Qyj59LYtg3S/3IQ28K+NXbqHC6aNwd4eK+Pw2eGyO7qQaEOERG5FyUjFREREZFllCV3BdwtgTuDHHdw0NLqg4+z5MrGPhERkTsp0CEiIiIiy65ULhqb7lQugvJziIjIfVCgQ0RERESWj8WFcwNMnBkiu9RujXKGkTMp2ODCqWCHiIh8BeXoEBEREZFl5CQQ9DMQ7aZrV5rtwQDu7zuxPQR8USA3lWT0vUFGJqD1xRANxttFREQMFOgQERERkWVV90SMQ9kQhwcHiY0PGrvB6sTbNcjBDoexR0RE5C4KdIiIiIjIMnPQciDJb3+aZPSDJJOX81y7AdbVdho2+PBuCeB21BpvEhERWZQCHSIiIiKyItQ0+mnr9NNm7BAREfk3UKBDRERERL5FeSbOprhW76HV67x9bRy2KAePbvVRZ2wWERFZQIEOEREREfn2lFO8+2yIpC+G1xvGNn89csM4cBGrQ/T+yEerKq+ISCX4PM3IW30kzqeZyhfxv5xh/yaAPGPH49RsieBV6qEHQoEOEREREfn2WDy0Px/DW+/HuvB6qdKyC1mcNCvIISKVIB/ncGeY4Y+LWNfaYaaW2Vt9VxO8+w/djA0kOfTWEG3r77xVvj4FOkRERETkW+TE2xG+x7WISKUrMv5GD8Of+eh8M8ZTTQme2dJ7u7s+zKHXszyzp5djrydofTFAzcLb5Wv7C2ODiIiIiMi3ppxiIBLiRNrYcafc8SB/s6uP7P3s/BARWU7lNGNjeZp39BLZ7Fw0iGHbGGX/DhczqSST+lz7xinQISIiIiLLKM+lVJLsdWP7nWY+yzP9UYacsUNEZMUpcO0qNDS5jB13eHiDC67m7zMZs/xb6OiKiIiIiHzrcqcjHD6doUSBT2cL8LKf3THjqHmlPNmPspS+58dm7BMRWXFqsVkh+3kBWDrbaO5yFtb49Ln2ACjQISIiIiLfOtsGH+6mIpMTKaZuQumTe5SYtdRia/Szc183biUjFZGVzuLhUU8tvzsdYyIYxW3sB2bGezn6VpoaX7eSLD8ACnSIiIiIyLfO5gkT8YShHOeFxyJYj+U5uNk4SkSkEtlpfTrCiXAvz3SkaWuBXLlI6VwvA+N5LqWTjF3MMFPjobMzqB0dD4ACHSIiIiKyfCx+Ir9JQKOxQ0SkctV4orz6up3XjvRy6ngBgNzJKBPz/bYfhNjzbC87PbV33CffDAU6RERERGQZ2Wl4xAOlLOOnhxhLZ7h0Jc/sTcBqp269i+aNQQI/8lBnpu3d5QTHfhbHtjVE21Y/DauNA0Sk0tVt7OZQPMLeqRSTH+e5dqOIdbWDhiYPzRsci1ZjkW+GAh0iIiIisryuDHE4EmF4qmjsAWDkZC8DP4hwMNZH69J5/SpMkWvjg5w4P0jsiBPvljDtwRCtGxcvRSkiFaoMtg1+WpoWtF3PM1OCGuuCNvlGqbysiIiIiCyjAqOvdDN8xUlrJMar76T57YU8/zSe55/OZ3jr+BB7dviwTsX45ctxZoy3VypLkEOjKV59qYd2dy2T70V5YZeLv9oa4HD/EBNXFg/6iEilKDJ5MsKTm33Ebp1XmZd7L8x/3OzjhZNpZu/skm+IdnSIiIiIyPIppxm/WMT7izi9u5x39q2x0+xw0rwxQLPFQ1ciwWQ5iNcsR1jWemh5wkPLE1H2X00zfi5O4lyc0f4ww/12nBuDBH4cpn2rjzqt/IpUlOkzEfa9NMSMw0+b4e/X1uTnse/0MfJSENamOLTVNFvVVgzt6BARERGRZVRk5qYTt9sQ5LhDLY/+0IO1hGlXP2vqPbTsiHJoIM3/+OcUvc+Gab6RIHbAz19t9vDMi32MXdYuD5HKkCVxMs6MO8obZxLsfOTOXtvGHl6NJ4i4CySPD5G7s1u+AQp0iIiIiMjysTh52Fkgd/XeD/G5fB6aXDjNsptjKaU8l9IpJv6QYmIyD4DtoSJT7/TwzDYXXa8kmC4bbxKRFaWcITsF7kCI5qUSDVs9tG3xwMcZsvqb/sYp0CEiIiIiy8hF++4Ak/3djHy8eLBjZqKP194u8tddYRqMnaZQZDod58SLQZ7c7OTJrm5OfJCnYWuUQyez/I8PMvz2XII9W+xMvBnimVja+C8QkZXGAqXy4p9pt8yU7t0vfz7l6BARERGR5VPO8OGUnWbrEC/8tZOY20dzowObFSgVyH2cZuKjPDZPkHXnohw9V2T21upnjY/tfxemuUJ3eczmU4zGh0icGWJsqgDUsu6HIXbuDdO+zY9zzYLBDj87X0lgu+Hh8OlBxiN95slVImI2Fg/NbhiJDzLe0Yt3rXHAXLWpE6fT4I5U7GfYSqZAh4iIiIgsowyjb/QxcmPuKveHBLk/GMdAaXyI4XFD4+oiLX8XptnQXBHKcV4KhObmvdZFy64e2reHaX3Ebhy5gINNmz1YxwumzVUiYg4O2p+O8O7uPvZtS/LYZv9cAPch4IsCuakUYx8kyZVd7DwSos54u3xtCnSIiIiIyPKx+Im8k+apP2dFc5Wdhj/nvhWhlnXeMJFt/7aqKrZNPfy9w467YuctUh1qNvby6347R4/0MXq6jzFDv60pSOTZPjo31hp65JugQIeIiIiILCM7DU332sVgVnZsqwrUOO8d5MgdD9L1vp9XB7txWqCm0U9ro3GUiKxEdZt76N3czfRUismP81y7UcS62kHdBg+PNjmoMd4g3xgFOkRERERkxZi9UaB0E1isCoGlFtsas6x+5rmUSmLdYWy/08xneaY/ypAD7lWAV0RWqlrqmvy0NBnb5UFSoENEREREltfVJANHogyfT5G7buxcYHWI3t8P0lrBxzZypyMcPp2hRIFPZwvwsp/dMeOoeaU82Y+ylL7nx2bsE5EVJM/E2RTX6j20ep23r43DFuXg0a0+5en4hinQISIiIiLLKM9INETsXJF1bj+t6x3ULHWUw+Kr+PKytg0+3E1FJidSTN2E0if3eBiy1GJr9LNzX7dycoisZOUU7z4bIumL4fWGsc1f30qyfE+rQ/T+yFfRAdyVSIEOEREREVk+5TTj40Xc+1L8OuIy/Zl1mydMxBOGcpwXHotgPZbn4GbjKBGpKBYP7c/H8Nb7sS68XuwInpHFqfKyD4ACHSIiIiKyvFY58frMH+S4g8VP5DcJUGJRERNw4u0I3+Navm0KdIiIiIjI8rF4cHsKjH6cB4/D2GsqM5/nwWKfT6hqx+ZwMPtFnukvjCMNVtVSt7YaK9OIVKgbCY51Rrn2xBCHOpRGeDko0CEiIiIiy8hB+4Eo4/vCHC338JMtPpxrzVJZZYFynKOtc2f4/+9YGNv89X2f4a/wJKwiVcVaS+nTDNl80dgj3xIFOkRERERkea120rw+z+vPBTj13D1+odZU8gO/k0e3hrBucM6d4Z+/XrSMrpEJkrCKVBWLn59EAowNRDmxOcZOt3ZkfduW+hoREREREfkW5Bl5KcSxswWsDhfuRgfWpX6hWlysM7ZVCouH7UcG77revnCMiJhEhkvXXbS6k5zc5eSk00dTowPbYhWlrD52RiNKSPoNW+prRERERGQZFcnGo/zjvwZ4rss/l6TyRppT0W4G3k8xY3XR8mQf+7v81BlvlcpSTjOeKtK8O0n/AR82Y7/pFZn+KM3M93w419xunZ1KMF7y4HU7qitJq4gZlDOMxnpvH037Y5JrfzSMuWU1tEYjNBvb5WtRoENERERWnOkzYbr+Lk6p1cMMUEeR8X8IcTSeZ53bz2Orsoz1h3ipPs2rT5g7gWV1cOL9URUGOUoZhp8N8ctEke1vZdjjvd117WIfPS+m+G6wj//2YhjnYivBIrIyWQLsfS9DxFo7f1TtHiy12LSb4xv3F8YGERERkeWVJfF2gpnHennzWGhux8b1OMNnstge7+ON0wlefTvJf26F3/9uiJzxdqksFg9ud5HclYKxx/SyA2F+mcjz3S0hvIZ43bqWbjo7XEyf6ealgcydnVK5Pk8z8lqYZzo8/MdNLo5euNWRZ+x4jPH8ncOlUtVS1+ikweGg7qv+qbdr19YDoECHiIiIrCzlDNlPwL01hHN+lWv2YoKxGTstHaH5pIwONm3ywCcZsveTzFFWMAftz/ZQczLMwAcZZqrl9SynSZzJYAv08eZrUVrW39ldsyFA55E4+7fUMnVmiMlq+e9iZvk4h3f4eaF/iN9fyTPzeZHZW31XE7z7D9107QgxcuXO26TyTE/EGR7oZaC/j+GzKaZLxhHyoOnoioiIiKwwRUolsK2+XWL0w/EUMzU+vN7bbTXWWviiiH4/VrhyioGXBsldz5KMeIittrPuO3ZqFtvKbQ2w/70+WhbrqzhZcnlw7vDf48iOA7fXAxeyTBu7pMIUGX+jh+HPfHS+GeOppgTPbOm93V0f5tDrWZ7Z08ux1xO0vhjQKn9FyjMaDXL4ZJqZBa3WDSH+868Gad+woFEeKO3oEBERkRXGwbq1cOlydu6ylGLsfBbrDwNsWnt7VO5KHr7jqNwqHDKvwLV8numyne9ucOH8roO/tNZSs2rxf8zDjm01XMvf66xCkdyVLKzR1vaKV04zNpaneUcvkc3ORV9P28Yo+3e4mEkltYOnQk2f7ubwO2n4QZDO52McermPyA4/dVeG+OWBXr2u3yLt6BAREZGVxeLB67Nz4niEFwjS8MkQpy7beWx38HaFlStDnHgvTY2n+8vjLVKhLAH2n63CHBTz7/NTp3sY2DRI50ZjUt0i2TM9HHs7i+1HfpWerHgFrl2FhiaXseMOD29wwdU814wdUgHyjJ5JMOMI0TswSOutwHwwQut6P0++MsjweA/7NxpukwdCgQ4RERFZYWpp6eqj/Q9hhvujQC0NW/rYG5x/ECwnOfpkmJHrPiKdwXts+xdZyey0dkVpTUWI7XJxotFFc6MDm7WW0o08uak02atFcAQ5uEfv88pXi80K2c8LgDGodVvuchbWVGEFIjMoZ5icKrLu8dAduw8BnNtCuF/rITuVhY3OOzvlgVCgQ0RERFYeR5CD72XZOZFmxuqi+RHH7a3eFg+tu6J4N3XT2mSmowzVKsPom3GyN43ti3HR+nTQPLt4GsP0vuPkRH8vw++nGD+f/rLLutZFy44wOyPdd1VkkQpk8fCop5bfnY4xEYziNvYDM+O9HH0rTY2vWzt4KlKB0hfwl+sWfF/dstZBnQWyXxSNPfKAKNAhIiIiK0yG0TcTWLd00+LxGzsBO97OHqbPRTl8xkNk34IjLVJ5yhlGfxVl5IaxYxGrQzifDmKq9VCHn50v+tn5IsxezXPtRhHragd19fNBvFKB6c9rqVuroF5ls9P6dIQT4V6e6UjT1gK5cpHSuV4GxvNcSicZu5hhpsZDp3aqVTSrsYFbT91FUI6Ob40CHSIiIrKylDOM/qoXa1M3LY3GzttKV5KMnM7TujdokiocVcriZ2d/gnZjO0C5yHQ+zfjvBvlwTYT9+0I8auLXuqbeMV8++bbZcxH+5jUn/Yle3CaeezWo8UR59XU7rx3p5dTxAgC5k1Em5vttPwix59lednoU1BL5uhToEBERkRVh+mKMdy/k4WaGyXIRa7yH2PgSP/hLeSbOpijdvHdiP6kEdpo3LbZz55YAbU+EGTkQYGA0QP8Gk53j+DzN2LkkH17JM2s8vlMuMPlBgtL10B2lKqVy1W3s5lA8wt6pFJMf397B09DkoXnDIkceROTPokCHiIiIrAxXM0x8EGfikzylm8CZPiaNYxZaZcf9szBerXJXAQdtHX5iLw4x2Rk1T/6Cj2M809nN2L0qzK5y4P5ZSLs5zKQMtg1+WpoWtF3PM1OCmkXPPUglyZ7ppittDNIXyM5CKR6hyxjAt/iJvN6jv/FvmAIdIiIisiLUbeujf1sffD5IT2sPpZ8P8dRSW7hX1WJzuHA6lugX87HUQj5LDmg29lWkAiP9UcbKfnYe6abFkWaga5C65wf5yfo8l1JxTp3J4j4wxP4tJtvFUrWKTJ7s5nB/Cm9/mj2e2z2598KEflXAvzfGczs82tlRwUqXU4xfNrbOW6xvtUPlhB8ABTpERERkZVnrp/0XUWj1415v7JSqVMoyejrB9JoA64x9laqc5sN0keZdfezpcMGNAqeoZd0GH24PuDcGCWyL8V+eDnJsTYI9G+3Gf4NUmOkzEfa9NMSMw0+bYeeGrcnPY9/pY+SlIKxNcWirglsVxxJg/7kse/+tCUcttdi0m+Mbp0CHiIiIrCw3MoyfGeTa6gAt601VX0MWU04S29XDWMnYMa9cZPpKhmvXwdnZZ55jKxSY+QwaHAsfaIuwIE9HzYYIezsG2R0bYvvGyF2JSqWSZEmcjDPjjvLGQA/Nq+/stW3s4dV4gIEn/QwcHyK3tVuvd8WpxVavANVKoUCHiIiIrCzWWkqfZsjmi8YeMaUC05czZL8wts8dUaqx1GJb76etNUIk4jfRln47tjUw+XkBsIPVTs2qArl8Ebh9JKuhycXsW2myZWgwTZCnCpUzZKfA3RW6K8jxJauHti0eBt7I6PUW+ZoU6BAREZGVxeLnJ5EAYwNRTmyOsdOtLfumZgly8EKBg8Z2s7N4aP4BnDoZ5dQPe9nudvLwhiInTsfIbunGaQUo8uF4Glb5jHdLJbJAqXzvAO5M6d79InJ/FOgQERGRFSbDpesuWt1JTu5yctLpo6nRgW2xagRWHzujERMdZ5DqYSfQGeHE7j6OveajdSBC2zYfJ17s4cmtcR5zO+Bqmt+PZ7FtU0WGimfx0OyGkfgg4x29eNcaBwBXhjhxOg1ufaaJfF0KdIiIiMjKUs4wGutl5Mb89R+TXPujYcwtq6E1GjFJFY5qViQbj/KP/xrgua754yk30pyKdjPwfooZq4uWJ/vY3+WnznhrBavZ2MuvB1y8+4kLG1C3Y5BDn4Y5ejLJ2Nm5ozsNm3s4+GwIm/FmqTAO2p+O8O7uPvZtS/LYZj/NjQ5sDwFfFMhNpRj7IEmu7GLnkZCp3uciy0GBDhEREVlZLAH2vpchYq1lsU0cd1C2elOYPhOm6+/ilFo9zAB1FBn/hxBH43nWuf08tirLWH+Il+rTvPqEuZL91XnDRLzzFxYHLQcS/HZvgemrBVjjpG6N4YaKUyB7Psm1xgDexlogz8S5NDWeAM31xrHmVrOxl1/32zl6pI/R032MGfptTUEiz/bRuVFls0W+LgU6REREZIWppa5R1VaqR5bE2wlmHuvlrWPzK9nX4wyfyWJ7PMYbsTAN5Bnu8vDL3w2Re8Lk1SjKgNVO3XqT5KYpp/jHfWGm92XwNjqgnOLd/RGsx/IcrLJAB0Dd5h56N3czPZVi8uM8124Usa52ULfBw6NNDhMl2xVZXgp0iIiIyApVJHdhiJHzKS7lizy6e5Dt7rn2bDpLndul3RxmUM6Q/WSuGoVz/vWcvZhgbMZOS0doPqjhYNMmD7/sN181ipmPhjj11hCj42my/5qndHMu0LGu0YV7Y5D2JyO0NFbyCn8tNmuRsfd6GXYEaViVYboMNX9MMG79qnk5aN44d6zHXGqpa/LT0mRsh9nz3ew+6eRQrBuFe81A32PLRYEOERERWXlKGU4dCHLsbJYSwCoH1ifm+67Hif0szMQPenmlv3vpUo1SIYqUSmBbffuh98PxFDM1Prze22011lr4ojj3fjCJ2Ys9dP2sj8kbwGoHDd/3YFsFpVKe6cspRqdSjL4XpzOWILLgv0VFsfhoDbj43fEYhyOx2+2vBO86unGX1SF6fz9Iq8keBGc+TjGZLzBbNnSU8nx4OsHkuI9cmS8Df1Kh9D22rBToEBERkRUnOxDh2Dl4LDLIzo1ZYgsfkKw+tj8ZYKI/yuE3/Ly117PwVqk4DtathQuXs4AHSinGzmex/rCbTQsqU+Su5OE7LtYtvLWiZRn+VYxsfZA90V5+4nNSs/DBtpRn8lwfR1/s4+Rrg7Qfj1TokZ1avM8nees/xBmfyjNTyjAai8O2HlobjWMNVrl42EwP+9dTDOwLM3B+/sF3CbbHexTkMAF9jy0vBTpERERkZSlnGD2Xpq5jiP+2L0BNPnZnUlKrE2/XEAfzHnpG40z+3KNSjJXM4sHrs3PieIQXCNLwyRCnLtt5bHfwduWJK0OceC9NjafbPA+A5QyTU7X4ozF2blokH4fVQfO2Xp67kuLJN9MVfmTHjnNzGOdmoBzn0ltJrFt76NxsHGdmRcb7w8TGiriD3WxqzDMaS2J7IoJ3TYFL43HGphy0HejlqW0+81ZduZ4nly/AehcNZt7FoO+xZfcXxgYRERGR5ZUldwWaN86XGV1ULe7HPHAly7SxSypMLS1dfbQ7Moz0Rxk4m6WutZe9wfnqKuUkR58MM3Ldx87OoLnyNaxy0PAVSUcb1jv46vJDFcQS5NDFLAerKsgBlNOMnc/T8LeD/PrlXjo7AzRY7DT/dQ+de3s5dDzNW8+7GH8zxvhV482Vb2Y8xuFdLjb7nPxNMMDAH+Y7ymlO7AszcCFvuKPS6XtsuWlHh4iIiKxIpVIRWDovwcxMASxK12cKjiAH38uycyLNjNVF8yMLqk9YPLTuiuLd1E1r09Lvh4pj8eB2FxiZyIN7qZK5RSYnMtR4e3CbbrW3SPb8EKP/nGTycp6Z0lwS1oYNHrxbwrR6zVaBJM+1q9Ds9iyYVxFu3vrftTRs62P/uIf/+kqcllfME9Sbnejlmd1RJqwuvJt9ZM9nb3d+lmUyHWfkXIaZgSR7KjUXzRL0PbZ8tKNDREREVhaLC2cTTHyQWHqV6/MkJ95OQZPHPEcZqp3FjtPjx70wyAGAHW9nj7mCHAA4COzrwXYyxNF3UuRuGLqvZxgbiHD0goc9+0KmeeiF+SSNXR6e3B0hdnyI0fNJxi8mGT8fZ3ggygs7XOx6Pk7OmKyzotVitcLMjeLcpaWWGgrMXJ+/nh/z6EYfMxeTTJpm7gVG3+xjan2EV8+k6Y/erq4EQH2QQ28P0b4+w6k3h5hZ0FXR9D227LSjQ0RERFYYJ4GfBjh5oJtnDuTZ2ZJnhiIzl1NMkOfSRIKRd4YYz9tpezlYoQka5W5Fpj9Kc+lqgdkvV7mNHDQ/7jFH/oJykhNHhsiVMow+5+dUtBbbOgd1D8HsFwWmrxUo3azF1ujkRMTDiYX3WgPsPd1LS4U+HGUHIhwbLeAMRtnZEcDd6MS2GmZv5Lk2lWL0dB8nT0c43OShf5dJVrstLpyNMHp2iMlgN81WJw3ri4yMJpl5PPBlIOtaPgslF7OG2ytWOc2HE0Xcu7ppqQcWO6FSH6DzCQ8jA2kmy+Ct0Pf1nfQ9ttwU6BAREZEVp25bjN4rYV7o7+GF+FzbZNTP6K0BVictewbZv22pLf9SSWanBnlpXzcjUwtXtxdhqnKjBXIfZ5ku17LOcet9XOR/fQEwF/SwAZQK/C9jiY6bX/HfaSWbT9Jo2zZIalRkYwAAIABJREFU/8uG4xlr7NQ5XDRvDvDwXh+HzwyR3dWDOUIdTgJBPwPRHp7uquW3A2E2bXIycDxM1xdh2n7ohKtJRk6m4JGgiVb4C8x8BrYv3+OLs611wPWCeXZ06Hts2SnQISIiIiuQHXckztvBFBc+SDIxlZ07w7/aTsMGH97HA7gdZjvKUK3yJF7uZuSKA29HEO8Gx51lVhda5TJPZQJLkIPng8bWKjCXpNG96/Yuhrs5aGn1wUtZcmVM89Bf98Qgvde7GfjUgY1a3JE+OidCDJzpY/LM/KB6P5FfVGop4cU4WFcP45ezgMvYOa/IZDoN9UETlY9G32PLTIEOERERWbFqHD5ad/hoNXaIeZTTTEzU0vJ3SV59QiubRrPnu9l90smhWLdJdjbMKZXvnaSRchFMEuC4zY539yDeW5dr/UROZmi/mGTiSgHWunD7fOYqu2rx0LLJwYmTUU49Psj2NYb+Upbx4z0cPp2lriNgnkAmeSbTRR72OPU9tkwU6BAREZFlVmTmaoHZPyf5nqUWW73dZNUZ5pWKzJaLlBbLV7GqFtvqezwkVhwHzU3VG+SY+TjFZH6Rv4FSng9PJ5gc95lnZ4PFhXMDjJ4ZIhuMLD6ncoaRMynY0LN4fyUopxjY3U3ux3EOBh1QTnJsR5Sa/UkiX0Y6AOw0bAzSsHFhm5nU4o300nYhzNEOF+822ZkuF8j1B3mmP092Kk3uOlgbQ/x95F6lWCtMOcWJcIixej8t20IEtgVp2XDvUtLyzVKgQ0RERJZXOcHRLSFGjFUn7oepcjYA19OcOtrDu++nyH5+jzwMZpq3xUVzU4EPPy2Ap8oeBK6nGNgXZuB8FmMajoVsj1fwA/9dbuWq6KZrV5rtwQDu7zuxPQR8USA3lWT0vUFGJqD1xVAFH+HIc2kiTdaTBxxAgWuTGax/zudcpXMEOfROgkd/1cu7iSQzN4vMjCfIAdZ6Dy27wjz18wjutcYbK5jFxaaOANlEkpH+JCP93axzB2jbFqJtW4DmejMFqlcmBTpERERkmTl5dGsIjKvZ98Piq+AHIaMCY0eCHD2dx9bow+u2Y7Mu8WN4lcdEZ9mdtP08TOLlHkZ+0Edb4xJzNp0i4/1hYmNF3MFuNjXmGY0lsT0RwbumwKXxOGNTDtoO9PLUNp85Ks3Mq3sixqFsiMODg8TGB43dYHXi7RrkYEcF7/KxuHi4sZaR1wP8zXkXDasLZGcL8EqArjeMgw1W+el8s8ck1UfmrfWx/fk425+H2at5rpWKWB9yULfWrH/vLtqej9P2dwWyqTijiTijHyQ4cSTOiaN2nC1BAttCtP3Ib66jSiuIAh0iIiKyvCweth8ZZLuxvdqU01y4UKC5M0H/s/57JGo0mwzj49C8NsnhbS7+0eOj+btLPPxYfeyMRsxxjr+cZux8noa/jfPr5/3U3Bhi8o00DX/dQ6cHIEruTDfP9Md4dKOPtvXGf0Elc9ByIMlvf5pk9IMkk5fzXLsB1ltJGreYIUmji+3PR7l0JMbYZJrx2SLcBKaSXDMONapxmPDzcK589Mz3fDjrHV8GqGenEoyXPHjdDvMcW1nIYse5KUznpjCd0dtBj8QHQ8TODxKLOnH/qIfnjoRNtGtrZVCgQ0RERCrS9EScxJk8jx6I4DbFD8QCMzeceLdWU5BjvtzoG71fHl3KXoyTNY65ZTW0RiM0G9srUp5rV6HZ7VnwgDf/MAxALQ3b+tg/7uG/vhKn5RVDKVYTqGn009bpp83YYRI2TzeH3u6euyjHeeGxCNZjeQ5uNo40uVKG4WdD/DJRZPtbGfYsyFFy7WIfPS+m+G6wj//2YhindeGNJmMIekzEo8ReG2T8/SSXjoRNlWx4JVCgQ0RERCrHjSzjZ2IMnx4i+Yc8pdUheg9EjKMqlJOG9UVmvviKahRmYwmw90yGvavuY86WWmymCGoB1GK1wvSN+VwsllpqKDBzfeHrX8ujG33MvJRkshw011EGimTPDzH6z3M7OmZKgNVOwwYP3i1hWr0mW+G3eAjsjcL3jR3mlx0I88tEnu9uieA1nEZa19JNZ0eUE+9189L3fbwZWaoErRkUyaUTjL4fZ2w0wfjHBVhlp2Gjy0RHEVcOBTpERERkhSsynY4zfHqQ4bNJcteBVXaat3TT3hE2z8OfxUP7DhfPHB8k642Ye2XzDrXUra/CtUyLC2cjjJ4dYjLYTbN1LtA1Mppk5vHAl7s3ruWzUHIxa7i9opUynNoX5Ni5RZKwno8zPNCL86eDvBoN0mCWv+8bGcYTg1xbE6Clmt7v5TSJMxlsgRhvvhK6a1dSzYYAnUc8NNzwcPjMEJNPR81xNO1LRXIX44x+EGf0XIKJK3OBzHXuANsPBAkEgrjX30eQV/7NFOgQERGRlel6hrH3Bhk+PcTYH/NzD0SrnLTujbKzI2iCM/xGBWYbwwQsPXR1JPBv9fNwvZ2axX70W5x4g34TJWKl+lb4v6w+0sPTXbX8diDMpk1OBo6H6foiTNsPnXA1ycjJFDwSNNX5/exAhGOjBZzBKDs7ArgbndhWw+yNPNemUoye7uPk6QiHmzz07zJJUMBaS+nTDNn8PaopmVKWXB6cO+51JM+B2+uBC1mmjV0VK8PIiz2cOJdkcv41t23w094Vom1bEK9KzT5wCnSIiIjIClIkd3GI4dODjLyfIncDWOPC+9MI3i+GiH3goS0SMklODoNykn/82a0yu1lOTSWMI25bHaL3r/3mWe2uxhV+oO6JQXqvdzPwqQMbtbgjfXROhBg408fkmflB9X4iv4iYJ6hVzjB6Lo1t2yD9LxvyjqyxU+dw0bw5wMN7fRw+M0R2V485chdY/PwkEmBsIMqJzTF2uqvlQdeObTVM5m+V2V1MkdyVLKxxmSeYWc5w4XSC7BofrZ1B2raF2GTWhKsrlAIdIiIisgLkGR/o5cTpIcambp1bDhP58e3ye9n+OLEPjPeZiMVDe3SQTdzPLzQnj5rogb8qV/gBsOPdPciXuRnX+omczNB+McnElQKsdeH2+UxWfjJL7gq4d90+nnM3By2tPngpS66MSXazZLh03UWrO8nJXU5OOn00NTqwLXZEzUzVhSwevD47p073MLBpkM6NxmBHkeyZHo69ncX2I7855sxc6fOdb2bY73Xe430uD9JXfo2KiIiIPHDlFMOvxfj9Gh/t+yK0bQ3ibTTb0ZSv4sQbNNND/H2q1hX+Jdlp2BikYaOx3VxK5a9Iulsuglkeepl/n8duVxfij0mu/dEw5hZTVRey09oVpTUVIbbLxYlGF82NDmzWWko38uSm0mSvFsER5OCeSq4slGfibIpr9R5avXOfULNX04yfTRsHLsLBo1t91Bmb5WtRoENERERWgLkKFKV8itH3aqFUhGCoCoMdt81+nuXS5SwzXwAPOWj4vouGNcZRZlCNK/xFcuf7GL4aJNKxSJWJcoYTz/bBE73s9JrsiIPFhXMDjJ4ZIhuMLP5aljOMnEnBhp7F+yuRJcDe9zJErLUstonjDqaqLgQ0hul9x8mJ/l6G308xfv72w791rYuWHWF2RrrvqshSUcop3n02RNIXw+sNY5u//jKwdS+rQ/T+yEermV7zFUCBDhEREVl+lgAHE2la4zHePT3EcH+S4de7aXgsRHswRNtWv/EO05q+2EfslT5G/jCfgPWWVXacLWGeOhClrcl8AaDqWeEvMjkQZN/RJDOPQKBjkR0qU3FG3x9k4myK7CsJDm6p5CdAo1tJWLvp2pVmezCA+/tObA8BXxTITSUZfW+QkQlofTFkntwk1FLXeNcrXT0cfna+6GfnizB7Nc+1G0Wsqx3U1d/jb76SWDy0Px/DW++fC2Tdui4bBy7C4jTPkZ0VRIEOERERWRnWumjp7KOls3dBQtJBYhcHiR1x0lxfAFxwE5M88N5tNh3lmZ/1Mlm249wYpNnpwLYauFEgN5ViYqyPF3almTmZYPsG490VqtpW+Cd6OfxKkmuOIHueDd8d5AB4pIdf/8bOC13dDD8Xwf1InPb1xkGVq+6JGIeyIQ4PDhIbHzR2g9WJt2uQgx1mCvAscD3LxHiKS/kiDZvDeOdf29kS1Hzldo/KV1PvMFEA6xYn3o7wPa6rRZ7J8SIPe53LnnhVgQ4RERFZYWrnEpFuDBN5Ns1ofL7E7FQBGOJwR4HxjjDtwSDNa433VrICowMxJr8T4uAbMdo33L3SOTPRxwtdPQy8HqfNmM+iYlXTCn+RsXcGmcTDzlcG2em5+zW+peaRCIeOZNjVGePEyRTtB3zGIRXMQcuBJL/9aZLRD+bKCV+7AdbVdho2+PBuCZiwfDRAgYmBCC+9Fid7A1jloP2N+UBHKclr2yJkgzF6u+5VinWFK6cZfnmQbGOIyA4fNfPXk3eVU1qE1UP7gbA5djeUUwx09VETGWKnx9h5W+54kK73/bw62F35QVzm5n1id4ixej+twRBtPw7hXb88f8sKdIiIiFSK63ly+QKsd5msCsM9rPXQ2tlH661dHm8P8rtzCU4dSXDqNQfuH0V57kjYJD8Q03w4UcS9K7pokAPA5u5m7444T76TZLIcxGuGeVfTCn85w4d/yGP19LD9HkGOW2o2dtPuGeTYxSTZss8c73OKzF4vUrLasTX6aev002YcYlLTZ7rpOZqg5rEwEV+RRCx5u7NUy7pG+F1/iMOONL0V+17PMv52jKTPQ+cOHzXz1/ebq8J7IGySJKx5LqWSWHcY2+8081me6Y8y5GDx3V2VxuJi00+D5M4lGH4tyXB/Dw0bg7QvqKD2bVGgQ0REZIWbGY9x7LU+Rn6fpYSD9jeyHNw092B8Yn8fsx29dG6q1B/F92vBLo/P04yent/l8X6SS0eW2P5fcQrMfAbr6u/9Wjasd8BnBWaMHRWtWlb480znweZ13efOFCfNTXY4mzXPg9CNOC9sjnDt52ne3G2KGd2nLKNvxym19PLG6xEarsYYXxjoWOOj8/UEtt0+jp0eItfRfZ/vkRXGEmDve2ki1vmyqvPXT900DlzEKjsNFR7My52OcPh0hhIFPp0twMt+dseMo+aV8mQ/ylL6XgXv4LmLi7Znh2h7tkhuPM7o2Tgj54aIHRgk9pIL79YQ7T8O0fotHG1RoENERGQFm53o5ZndUSasLrybfWTPZ293fpZlMh1n5FyGmYEke7xmeBC8D2s9tO7uo3V3L7mLaRPl63Cwrh7GP84AS+91vvRxFr7jZ52xwwRqqmCFvwTU/Fves+X5f8zC6sK5HiavZpnlwT/srBjlDJOfgHtfaOmHeYuT1q0+jv1DhmyZpcetaLXUNS6oJFTKk5vKUPq+H+8Gk1UQWoRtgw93U5HJiRRTN6H0SYprxkG3WGqxNfrZua8bd0W+1vdSS4M3xE5viJ3PF8hdTDDyfpzRRC8vvB3FtsFP64/njqA+qCD2XxgbREREZKUoMPpmH1PrI7x6Jk1/NHTn1vX6IIfeHqJ9fYZTbw6ZbIX/ftTSsNFXmauei7F48HrtTJ7s5tgHWWaN/RTJnevh6PE0to1+c5xjB8inGEsXjK3z8oy/M8jE58b2SmVnXT1Mf5Jh2ti1qCyTHxfA4aDO2FWpLB52RqM0j/fw0kCCrGle269WKoHVeu+HuhrLfIUh00jz7v4wsfNL/Y2bi80TJhId5NV3evGvttMeK3Lxj0v8M1Hgn84m2GOqqkqLsdOwMUTn80P0D8TYudHBzMdJhl8Js3uLi93P9jGeN97z9WlHh4iIyEr1Zc6GblrqgcV+CNQH6HzCw8hAmskypsnZUJ1qaYlEab0Q4UTExSmHh6YNDtatrqV0I0/u4zTZfBHWBznUFTDFSvjMxSjP7Oll6gd9/HYgcvfD/EeDHHsxSvaNBP85Nrhk7pKKYfHgdTs4cXaI4akInU3GAXeavRhjOF1kXYePh83yt11OcSqW4NqqIp++EmTkCFjXOqh7aJHX1hpg/5k+WkwxdwcN62HkDylmt/mX+PvNMno2Beu77/5bqFRWD4/+sJbfp1NM4zTPvL6KxU/kNwloNHZUn9mraS68N8jwmTi//2Oe0io7zk1hAtt81EwMcSreQ9f5JPvfHGL7I4t8DvyZFOgQERFZseZyNtgc917tsa11wHWz5WyoUo1hDp10cKK/j+FzSSYu3O6y1rto2RFhZ1cEb/3CmypUfojD+3qZKLlo3eRZ/MHvkQgHn83wwpEhfrk3SsM7vXi/xWR237xavE+EcJ7pY+BAN85f9dG6RNnYmY9iHH62j6zFQ+cT5ghszSlw7XKWaeAv17v4S2P3Ql+x+6GiWDwEAi5Oxrp5qTnG3o0L+koFchMJht+McvJ8kaZ9QfPs2MLJ9peHKB3t5YW9GVq3+XE3OrEtVkbXUsu69Y4Kfa/nmTib4lq9h1avEygync1yLZtl0jj0Lg4e3eozVxColGfi3BCJM4OMnM8wcxOs6334u6K0dyyoxNIR5icdffyXSA/HXh6kZSDyje3SVKBDRERkxZrP2XA5Cyw483yHIpPpNNQHTZmzoRrVrA/QeSRA55EiM1fzzNwA62oHdfUmeugDJk/2Mvq5g9YX4/R2LJWU0k7zjkFepcCTL8UYeDuCt3OpsZWhxtvD/l1J9g3E6OlI0hoM07rJh9Nhx1oucO1KhokPhhg+kyRXsuPu6uMpt/HfUsEsAfafyxhbq4Kzc5A96SDHnvMzMt9m7bIzMlukdJO543iP9/Jc51Kf9xWoHOeFLaH5qitJxs/2GkfctjpE7+8Haa3EIE85xbvPhkj6Yni9YWzz1/dbbab3R77KnPddMoxEe/jHs/PH0qwOmlu7ae8I0/YfXNgWmWONu5u9O4Z4ciBFthz5xnLTKNAhIiKyUlk8tGxycOJklFOPD7J9jaG/lGX8eA+HT2ep6wiYaAVQ5tRiq5+vXGA6GcYuZqGpm87gVwcuGn7aQ/vxBKc+SJDr/OZW/JaHHe+zcV5Z283hWJzRgR5GB4xjgDUe2g70sX+Xr0JXuOUuVhfbYyncZ2MMJ5JMfJxl5gbUrHawrslDy5Yw7Vs9Jvubd/Do1hDWVfcRqK2p4JxLFg/tz8fw1vuxLry+n0TCFqd5vr/LGS7EE0x/N8D2zjDtHQGa7yNIb/ueC2fTN/t9p0CHiIjIilWLN9JL24UwRztcvNtkZ7pcINcf5Jn+PNmpNLnrYG0M8feRpc58m8D1PLl8Ada7aKjoYwsG5TTDLw+SbQwR2eGjZv56smQcuAirh/YD4cr9cVzOkssWWfcj3/3NweLB67Fz4nyaXMVWo1jIgTcyxG870oyeSzAxkSH3eYEStdgcTprdATZt8eM0Bjcr3Y0sY2/HSFxMM12qpe77flp/GqG16asfhMzDTvPWHvZv7TF2ADD7eZZcyU6DwyQVSiw+th/xGVtNyIm3I3yP6yph+QGtPb/hqb/6m3t+fs1MxBnNO2ndMhfYqwsO8lbQOOrrUaBDRERkJXMEOfROgkd/1cu7iSQzN4vMjCfIAdZ6Dy27wjz18wjutcYbK9/MeIxjr/Ux8vssJRy0v5Hl4Ka5AMGJ/X3MdvTSuene+UtWtizjb8dI+jx07vBRM399v1udvQfCNBvbK0aRUglqVt/vw1wtNdZaKBXNlYum3kPrDg+txnYzupEi1hlk4A8Lqm9cSDByepDtryTY/3gl/y3fh3KcFzZ2Y30ly8HNxs7brsXDhE766E/0mrDkaBUppxjo6qMmMsTOpauFkzsepOt9P68Odt9ZVa1Slf/IaO//wVjD39zzfT4zHuOXAy4aHu97YEnUFegQERFZ6db62P58nO3Pw+zVPNdKRawPOahba95V0NmJXp7ZHWXC6sK72Uf2fPZ252dZJtNxRs5lmBlIssdbof8dLAH2vpcmYp3frjt//dRN48BFrLJX+K4GO7bvwHQ+ywy++9iunCd3pQBrHcpFU6EmB7o5+YcizmAf+3cHeHhNkdz4ELGXezkVjbLJG6PlHivAFasM3CwyWy7CzSKUiswutWurlGfiozylz/PmCOhV9Q6ePJdSSaw7jO13mvksz/RHGXLAVx/iW7lmL6f48EoRSmmmy1DzxwTjlsVf59lSlvFzaUo3HIuUUf/mKNAhIiKyUi2yIlRT77jrDLPpVoQoMPpmH1PrI7w60EdLOUbXlgUJ7OqDHHp7COuTIU69OUSnN3wfD8orUS11jQuTDs5dmyrz/lIsHpqbajmVijP2eYi2r9qRdCXOyHgR23/wmOQ9Xm0yjH2QofSDbg4diXx5XKluW5ReS5bQL+IkLvbRsmXxB6NKlo35+Olr6dsNXXaGFw5YhNUdvutzvuJU6Q6e3OkIh09nKFHg09kCvOxnd8w4al4pT/ajLKXv+Sv0O+y23Lke9r2c4ssY3itBxu4ccpd1Wx5sbjEFOkRERFas6loR+lI5zYcTRdy7ummpB/LGAUB9gM4nPIwMpJks88C2vi6H2Y8TJD5x0r7lVhCkwOTpXk6cyzBjdeJ9ooedFX1kB8BO67YAx87Hib04hPtoaOkdKjfSDDwfZXzWQdu2QMU/EFSlcpbclSIN2/x3PdjYfH6aLHFyl/Nm+QS7g/OJGP2NKSYmEgwfTzL7iI+me+zGs37XR9vuyg9aV+sOHtsGH+6mIpMTKaZuQumTFNeMg26x1GJr9LNzX3fFH1Ny7k7yTz/OMJke5LV9MWa39dDaaBx1Sy229R5atvgfaGBfgQ4REZEVplpXhG4rMPMZ2Bz3fpi3rXXA9YI5tnjPm0338p92R5ly97Fpy9zujuzxEF0vJplZVYuVImMfJJl+M8WejUs/LFUC29YokdNJjp4J8+S/JuncHSGwyUPdrYSzn2cZ/+dBTr3ex+jHRdZtiRHZcr85PWRlmcvJYluzyOu32o7NUmS6VDT2mEO9B+82D96tDnJnMtTsS7B/k3GQ2VTvDh6bJ0zEE57LyfJYBOux/D1zVZhJTb0L9+NBWh/PY93Rw/ZlLoutQIeIiMgKU60rQrc5WFcP45ezwMKjHQsVmUynoT5oopwNBUbf6GNibYhD0fDcSlcpybsDSWab5o/xrEpybHeQ4YEhOjdW6pGdeRYX21+LM7MvzMD5QY51DXJsVS1Wmx1bucC167cefGtxbu3j0BETbOeXu1XL04glyMEL33BZiZWqinfwfMniJ/KbBCy5q8GkLD52vrYyquxUy0eLiIhIxajmFSGYy9/QssnBiZNRTj0+yHbj9uZSlvHjPRw+naWu48Ge8f1W3Tqy82QPbY3zK53pBGP5Wh6L9swd48HP9q0eTp00yZGdNT4630zT+kGM4TMJxicy5K4WmKGWdRs8NHn8tAbDBDY6zVc+uZxm+I00DVtDeG+93mJ6s5eTjJ5PcelqYemkpBYP7b8IVfDxlSrewfMlOw2PeIAiuQtDjJxPcSlf5NHdg/M7HYpk01nq3C5sFfs6L6XAZDzGqdEUuXyBmZtLvNbWAHuORx/Y95gCHSIiIivV/a4ITcQ4esHJU5HAAz3v+u2pxRvppe1CmKMdLt5tsjNdLpDrD/JMf57sVJrcdbA2hvj7iN9ED8AFZq7DunW3j+xMppLkLD62t9xus621w2dmOrJTi/PxbvY83m3sMLks47EII8d6aNgYpH1biLatfhpuHd0R05k+F+E/7R8k+1UlpFeHcP8iZM79DtX09FnKcOpAkGNns3NJOlc5sD4x33c9TuxnYSZ+0Msr/d00m+jvfjIW5OlX5hOTWmuxLhXIeMjzQL/HqumtJiIiUmFurQjNKxWZLS/sB27m+fDsIL877WHT0wFalvpBUWkcQQ69k+DRX/XybiLJzM0iM+MJcoC13kPLrjBP/TyC+6uqdVQUO7Y1MPl5AbDPPQhfzMCGHjZ99/aomc8L8NB8SVqpXBY/Tx3tY93ZOKPnB4ldGCR2xIV3S4j2jhCtXvPtYpns97Gx39g67zUPG18ztK0O0fv7QVpN8bmWYTg2xKf1QSKRMO4NjqVX8iu+fLQAZAciHDsHj0UG2bkxSyyyINmW1cf2JwNM9Ec5/Iaft/Yu+K6vZOUUI++lsW2O8kq0G+/65dutpkCHiIjIipZnPNbNsZMJJvNLbP8E+IFZdnMssNbH9ufjbH8eZq/muVYqYn3IQd09Khb8/+zdf2zTZ77g+3fXyPZmTpCZgK6bQYo7SMRUMnK3XsWbSDkOGiZmN5PxbFLIkkvldEH1PRmBYQ5MmBaOl5ZTnzJDA5qMXJWd5JaFCS3Z8WTQwTnsEg9Sco2uu2NhaXDQUowOm/ocksHCp1w7wsv9IwmEbxN+zGnA/vrzkio1z/NA+yTfb/x9Pt/n+XyKmsZK9cvw2098DL7sYXm8m5MxqO50PdjCnosxdC4Gq9t4SRZCRc6Aab2H7es9bM+liJ/vZ/hckOGzPvYP+Chf5aDh+26am1xYnuNi4euhZ7nJjGmhoxoL0RnRKduKVT7JtesGHO/10aHCJJxCIZ9g+FyMipZ+/maXE20q8PC1rDNh6+znrZSVruEgYz+0quQYZoqJm0Ycvi5sK5V9z5YEOoQQQogCNn7cTdfhMFTZsdVlSV5MoLU6MGlSJC/HGNdYaWhpo3nTg8z2aqRdYSyBRJQGnFu9nN7q5+CWfgB0qzy8tXkmIWs+xokOF4G4gcaftakvsFXKdEYsG7xYNnjZfidF/Hf9DIeCDAfcDB41YKpto7nFTfN3rQvvAihkGifbg062K9tLip7yMgO6FaUT5CjtHTxJxm9AdcejjlfqsbxqhbNJJpVdRcvI8mV6KICfoQQ6hBBCiIKVYCgYgXUBPu5xU5nrp6vWT+WeINutwJ0EQz/z8MvPoUKFD8+ZKyGGL8QYv5lmiiy5u8oRwBIrzXvcqgnyaG0+jg3YCQ3HmNSZqG1qo3r2eI7GgM5opfUdHzs2zJPkT6hDmRGL3UHmVpqJVJLx36dIXghw9EKAD1e56NjbTUf9o0tDsvuEAAAgAElEQVQviwKksbLWlmYwngSrKrNvzCE7eGblcllg4c/nTCYNGhVdDxorDevh3XNhPLZHBXkWnwQ6hBBCiEKVTzJ+HSybXfOf1y4z07ivn5zHzv6f2zm+x/5cHyq+TuMDbWzbF2RivuDGXGVt2Pa4qVa2FzHtKifNq5zKZsBE6+GgslGoxczxldBv+hkaiZHJQXmVg+Zdfpo32NHG++nt8RPwOLj2szAHNkiwo7gYaNzVTfRHHg6V+XmjyUqF2lb1s2QHD2jMmFbD8PkQky0L7MC7FebEqQisnnM8sejpsfywj9f2eviLfW20Nzl4yWiY/9lEo2f5SuP8fV8DCXQIIYQQxUKjR0ua3JdzG400OO38tCfI2I/sWNTwsJSPMHgsSG6Nm90eN5Yqw8JZ21WZtC/L5OXYdPnJBQM9RqrXWed/eC46WaZuZ8npDJSrdeG3oCyTsSChYD+DZ0Mkb83s6FjfRXOLG2fdnISkVV346+0cfd3FiZ4A7d/1qWYnU0nIR+jd1821L5Nc2WvntM/A8mUGtPOtxnROdp/pVk9y6ZJkwrnJyck9XnbuSdFemyJDlsz1CHFSXIuHGPqkn2jKQOP7LvUczcwH2V/bxtAdgBhdp5QD5ljko0rz3VpCCCGEKAhGKlbCaDRCpsVJ+RID5d9ME48loG4mbwNAPgu3Uotapu3ZSjF+00jjkW5a6xbe8qtGU1f6eHeXl6Erj0g8y+I/ID5Td4Lsr/cw8cMYx7aqaAv34+QjBFpc9P4hDUD5yy7aPW6aXU5MC1UTWuqg9ft2Th9JMg6q2smkfmkmUikmMfDiqsccPdOV1u89tapoCuC/4WZ/Txf7ZzbjjfkcDM8O0Jmo3d7H7iY17c4ysfZ77ic7gqS1L2qARwIdQgghRKHSWGloMHPyQzdblwT4xTsObFY9p3vdHFzmo9lmQpsKc+JYmJzRq5K3+wBGKo16ppaU2sN+itD7XoZuGLG1uLCtMqJdKJCxxKyet/k6M6aVMHYzyRTqK6m6sOmAnm2Tl+YWNw3WJ9vCXf6yk9bXjVJ1p9honOw+m1C2ClUzYPEEOeWKMHI+TPxKkkwOKDNQucqObZ0Ti1Fln3MaK63vzCmj+xxJoEMIIYQoYNXbArx5uY3eP2bRYqDB48N20cugz8Xg7KAlRhreUU9CTjR2nC0mfnyyj1arm8onejWkAvkY8bie2p+E+WCjmt7wPYbGSrvPR/K9Lt7t9fHGo3Y0qMndNbj2+vjfaxzYHveGf47yGi/ba5StQohCpTXaadhsp0HZUcKmLnjZetLEgYCXxdrHJ4EOIYQQopCVWWkPJGi+naUcYLWHDwbMhAZCxG+kYakJ23o3jTZ1LYxNHf3seMfJtqZ+Xq2389JCVWWWmGnY6lq0B6Vnz0j1anX9LB8rH+F0IMTEkixfHHYx9B7olhmp+MY8P3NV5S64TPBtN+M7Yhx7ikBH0ctFGDwcJFPvpb2uxK51UZKmbkSIRmNcS6XJ5LLodAYqVlqprrFTvdBnmwpkrkYYS6WZyis6cikuDYQYi9oZz7NoiVgl0CGEEEIUrDlJGpc+eBjSGh00dzpofmisuowPeDj0qxgTd2HoeFjZ/UBZG6YOlWSs15ipXp3m0hdpsJbQwpc0E9eTTAJ/ttLMnym751JT7gKdlbWv6PksFmESk4qOnj3GkjTxYIBrKzy01yk7VSYf4cSubuILJhVewBI77Ye96kguXcpyCQb3uTl6JkZmvmtgiRHLRj9v723DpKadi7cj9O5y03shyaMqDJev61rUz24JdAghhBCFqmSTNMYY7A0yWeWio6ONtd9aoDIBgMaoniM7mGj8oZvQ+10MvdxNY5WKFvWPonGy+1wp5i4w0fp+P7lDfvbvSNDQ5MBSZZq/8swil2F8pjR2Gr5rZPhcH/HNPixlygFqkmLsd0GG7yjbH6NMT6OyTRSZLPEjbRwMJqmsaaP5z+2YjMbp+/vLNOP/K0b8XD/DJz38eKmJ47vUUh4+S7THTWA0i8Xlpa4qxXAgTPlGD7alaa5Fg4xeMdK4x88bTfZFDfAu9NgghBBCiOetZJM0JhlPGWk83IenvkQW+wAkiEahelmYg01mfmm1U/3iAvPX2Wn3eVQU5ClB+SD718+WYQwTPetXjnhATVV2gMomP+0D3ez/vgNLvZPqVTMLQCWNCZvLsaiVGRaVxsmO38R4Y763+Y9SzGWz8zEG/zpAfErZ8QS0dlp/opJ8U/kYw+eSmLYEObbPMX30VMnj5XSnnUNng4ztUEt5+BijF1JU/ocgv9jnQHunn7GPYlR+r4sOK4CP8TNedvYEWFtjp3Gl8i/4+kigQwghhChUpZqkESPLVxigbIFFvlrlEwx/5J9Z+ELyYpCkcsysMmjwedRVXvRWjKGPuwldiHEllcXxfoLddQApRo8H0a73oK5UNEbWbmhD9yTVhRa5DOMzlQ/zyzdnAzwwfjzCkHLMrLI2/N9zFO+iHz0VVeZFfWtdeJJEB/ru/3yfSlmW2p+4VfJ7LcXELSN1GxYIcjAdyGt0OjjqSzGh7CtaKSZuQrXFOuflTBbuB/v0VDZ1sztq5a8OB6k97Fr4+/PPJIEOIYQQolCVapJGjZ3mFiP7B4JM2lyls0jQONlxJsGOJ1n4avSUq+FnPSsV5GCHm8GrWXTLDJDRc/+F8M0Qn/7My2hvmAMf9y/qG8BnSmOn9T27slX9NFaa9wWwafToHrsSMbFWTdd5KfhTd7FQ5DtZvsLIciPkHpWkApi6k4aVKgpkokeng8k72ekvNXq0pMnczgKzn2161tbYybwbZizvwrZIP/PH/noRQgghxPNSokkaSYPFTW20i62bgjQ02DGtMKCb92HIiM3lUEkwRE/FyhLKxXJfluhHXQz+0U7HsQBvrA6xc/2cYxwr3Bz4MMnO7X6Ofhii4R2nOo9x3U4xnkrDSjOVqs5bYcLW4lY2CtUoxV0s89DYaW4ysvNkH0mbe/5ko7cjfPqbBJZN3eo4rgOgMWOqguGz/Yy5vFTrTFSuzDI0HCazznl/98ZEKgk584OA9iKQQIcQQghRqEo1SWM+zC/fdM9sfU5y4vf9yhEPzGxtV0vugvtuJ4lHI1xLZamsd2Ob2cUwlQPtfA/MxSwfY3Q0RfXmfjz1JkgpB0B5jY/dm4NsOxNmLO9Ux1n2GZlogKNHuhn6LEkOI80fJXmrbvr7cmJ3N1MtfjrUXIa1ZAI8pSJF/GyEiRVWGmymB18rh83LyNoNi5ug8tmZDtg3XPCxtamfhvUOqk1GyrV6clNpJq9GGDkX4osqNx3LYgydic35syZsi5yoc/GYcLoc9Pq62Nap59e9burqTPQed9P5pZvGV0xwM8zQyQisWdyKaRLoEEIIIURh0Vhp9vVRx5M8qahta3uaeK+Hd48ESd6ZLj/Y/NFMoCMX5kiTh6QrgL/zEee+i06aiZtQudqs7HjIS6vMcFNNZ9lhKu5n51YfcZ0ZW72d5IU5WVn+mGQsFmToXIJMb5jtNjXt2pIAj2rlI3y6t42wPYDN5qZ85usnytlR1ob/u3Z1BK7zYX7Z6ZmZd4rBYwuUSb/RzaERRVtZG/4Nxft9qNjYh/+2l94vjJSjx+LppiPeRu+ZbsbOzAxa4cDzI8+iHtl57OODEEIIIZ6XNMlYgswTnXU2YLKZVbL4NWFzleIRDpg846XrUAjtq2489iyhwJyH45ye5VXw2542Dhpj+FvUsgjUU66D5K00sPCcxq8nYaldJdc4QJrhY91cWenhg95uavMBOh86suPiwKl+dK+3cfpYPx02t2rmXsoBHtWbzcGywoFu7td55cB5aEwqOsJhxbmnm7VL9E9/1K7ovw8GbFv7sM1+ucyB52SC5oth4jfSsMyMxW5f9B1cEugQQgghClU+zC/dT/EmTEXlJ0tTkuFTQXK1fj760EPlzQDRuYGOpXY6PgxRvtXO0YF+xlu8i/o27JnRWFlr1fPbgQBxlw+Lsh/IRP0c+jiG1u4t8gXAHPkYl+JZLFu81K5g3iM7rHDSsdHKUG+MsTyLlrTv2SrRAE8uSfxCjNy3HdhWGZS9KqLMwaL8egG5NJN39EV6XGM+Jmo3e5SN6peLMHg4SKbeS/tDO7IMVNa4qKyZ07TIJNAhhBBCFCwzdR1dVM73JuxulsxEjOjvIky94qV9vaN4F4D5MEc3eolafPT4XJTPfD3ymGz1MFNt5hO/OhaA+QRjn4NlV9vClQc0Jho22Dn6swTJPAuPKyoGGrZ5OOH2s7MlRmMtjOez5M756Y2muBYLM3oxQUZrpaNj8UoRPntpMn+EcuPCu1gAypcZ4XaajLKjWJVsgCfGp7vdjO+IcUzVgY4/zdQ5Dz84YqIn5FdVDp5ZU3fS5O4C832ea/SUL1XJzqUlaeLBANdWeGivU3Y+WxLoEEIIIQqVxkzjDp+y9WG3whzt7GJsmZdWZV/RyJK7nSYzW45u5ut/eqJAR3ZRs7Y/a7kc6B5TQUerAfKz3yt10Fp9fPChgSPv+Tl9PA3A+Ekf8Zn+8pfb2L7XT7v10d+b4mJk+QqIXk8CC+UnyTIWi8EKF8uVXUWrRAM8OitrX9HzWSzCJCYV7Vx4QrdijJ4Lc+lGiinlccx8mrHzIXK329Tz8wa4Gab3PR+DFyKM31Z2zqGmHZkaOw3fNTJ8ro/4Zh+WRT6e8igS6BBCCCGK2TIHnq1WfnCsj/F1RXqUQeNk97k5Z/Rnvt49d0xJMFK5EoZ+H2GqybHAue4kw2cjsNKruoVSRY2XA0EPO65EGLuaYuJOFl2ZkcrVVqpXGRf4fhQxjZXaOiMnTvo4va6P1qWK/lyS6PEuDg4kqWhxFu+Ora8o1QCPidb3+8kd8rN/R4KGJgeWKhPl81VR0uhZvlJF1/zVADs7vIzOt3tn1hIjljfbVLSbI8WQr43AuSzLLQ4aVhoXrpilsRfnZ/cCKpv8tA90s//7Diz1TqpXGRe4zk3YXI5Fm7sEOoQQQogip/2mgT+7GlPRUYYEw8dC6NZ7qa1S9j0wec5HIG7Fs8uljkW/xorTaeZkwMu71QF2zD3LnEszHg8xeMzHyQtZVu9yqWfhm49w+v0wWpsDW52dytUOalcrB6mRHpvHT+OIm0MtZj5dbWAyn2a8x8XOnhTJKzHGb4Ouqo3/5Fko8FWESjXAkw+yf/1szqUw0bNz8pIoqekNP2mGenyM5h20v+el1hijt7OPin19vLYyxbVIkNNnklj29LN7/aN3+RSVfIxoNItlV4RfeMzquX8fJx/ml28+yC02fjzCkHLMrJny8Iv13CKBDiGEEKLIJaMRvliiogepfILhn/vRrX50oCN3I8zQQIqGHS5qF+lB6VkzdfSxPebi6NuO+w+Huk4DQ1PZ6fPd6Klc5+ftjoXehBejFJdO+RjqBXQGTFYntjoHdXUObBaTeq7r+RhdHPgkxNqf+/k0FCZzN0smGmIc0K2wUrvFzRs/9GBZpvyDxaxEAzwYWbuhDd2SJzh+pVXRG/58jEuxLNVbutneYoY7aU6jZ/kqOxYrWGpcOJsC/Hibi6NLQ2yvUVH+kiUmbHYVfTY/idkqOxo9usdGGha3PPxj//NCCCGEeE7yCYZ+1sfYfMnLmE5IOnE9zOhoAu16T9G/+Zy8GODTkRTcTTCWz6ILdhGILrAoyKWIn42Qu6umBT+gM9MaiGA5G2AwFCZ+NUnmDmjLjCxfbaV2vZvmDVYVJeQENC7eDkVojkaIRsPEL4b47eF+Th8G3QozlprpwEdtnYNq4wLXQzFbZqd1X5DWfTB1M8VELovuG0YqlqlwrrNKMcCjsdP6nl3ZWgKmc7JUPpSTJQtz8nRoV3nY0dLH1kA/rTUedQR5NFYs1jTDV1NgVdFOlcd6wio7z4AEOoQQQoiClWDkZPdjysvqqazxsn13W/Evfm8miJ8PEv88Nb174Uw3Y8oxcy0xYHnTrZKKDHMZqN7Qxe4NXcoO1dIardiarNiapssxTt1McOlieDrwEe2n90w3AfQst3j5T5/41PEzz0fo7exG6+mn3TrdpF1h/Moib/y4i86/c/BBnxeTGuY9qxQDPCXJQPlSGLuVBgygM6BdkmY8lQUe/KwrV5uZ+lhNRzCNNO/xEd3l5lC+i9fW2zGVwrV9J8TRDh8TG/s50GJS9j5TEugQQgghCpXGgedXEdqVGeqZ+QTX6ClfYaJSJQ9PFU3d9DR1w60+uhq6yP2wnzcWqrKxRE+50YxJjW/4Z5RMOcJ5aFeYsTWZsa1vIxkPEz3Xz6fBIMmrSRVVZUhxLRJGt1nZ/rDMH1NMXk4wDjzfZcPXpNQDPLdiDH3cTehCjCupLI73E+yuA0gxejyIdr0Hm5o2AGisVL8Mp0/6OP2Kn1aLiZdWZTkxECC53otJB5DlUjQGS1S246XMRPXKFB++7eT0249YeWtVlJNFpyf3RYJk6vlXBlvo2y2EEEKI585A5ZqZlUApWeag+Uc+aHBgWansVLlSLEc4150UY78PE589xhJLMJGbOcJi99BgK/4krOMDHg4OJMiR5oupNLzvYGtAOWpGLkXycpLctxzFv2PrvhIN8ACkghzscDN4NYtumQEy+gflsW+G+PRnXkZ7wxz4uJ9G1fzuM+Ds8HBiazdHj9hp6PXQ2GTnxDtdvL4hyKsWI9yM8Vk0SXlTl7qqrrzbxtGzaXRGM5Yq48I5KzRm9VQX0jh4zeNktNfHifoA7Zbnl3NloW+3EEIIIQpEJt5HbyBMxQ/7aF/zoH3yEzc/Pm+kubOL5uf4MPH1M1G7ZfoIw6zx890MXjbh9LjU9Xb3IaVajjDJ8GE/Q9EI0XiCTE5PeZUVi83JZpePtVYHllXqub7LV9mxrM4yFo9w5S7kPo8woRw0S6OnvMpB+y5v0S8AJcCTJfpRF4N/tNNxLMAbq0PsXD+n8soKNwc+TLJzu5+jH4ZoeMepmiSW2ho/v+g18+nnZsqBis19HPjCzaGTYUbPTu/Qq6zv4q29KjiCOSsfIxrJUr01TM8eu3rm9VgJrt0202AJc3KLiZMmO6urFigvq7PT7lu8/GIS6BBCCCEK2FTcz84OH/E7RlpfV3Rqs3wx0s3BaITJ3hAdFvUeZRgf6aZ3wEG1x6Wet7tKJVuOMMbwx30MLzFTu9HPa5vd1KoosKFUbnXjsbqny42+6kF3NMVb9cpR6lOqAZ778jFGR1NUb+7HU2+ClHIAlNf42L05yLYzYcbyTvXMHaiwufHYZr7QGKndE+LXO9JM3kzDUhMVyjLDqmDC9t1SCnLMVE0L+B/kFvtDmIk/KMbMKoMGn4dqZfvXRAIdQgghRMFKEerpJr7Uxe7jAVrn7OYAqHD182tLH/u3eTgR6Ke5x03Fw0NEsSnFcoSYqWtxMXkxwmfHuxj9lZ9Kix3bqw4sNjs2m51KNS6CNA48vwrBI0ooA0zdSjKRM1BpLO7gT6kGeB5IM3FzOunmo7y0ygw3UwsHgYrNPDlZ7tMZqFg5fV2rLieLxorFkmX0RhqsxX3vPhWNkx2/SeDR6ZlvE8dDNHrKF/Fn/S+UDUIIIYQoEPkE8XiW6o0+WtfM/6CkXeWm4/tWpmIRrs2XtFIUj5lyhGNX53nVq2YaM437+uk5k+S/jcToed9H4xo914b9/NTj4Ad2Az9ocbH/PT+D52PqSUaaDxPY4qI3qux42ETQTdsWP3G13N8zAZ6O2bf7C4kHOBQIMalsL1p6ynWQuZVWdjxk/HoSlhpUtAtgOidL8lE5hxQ5WdTBSPPeLrQn3fSeT5BRy/37WHoqqkxUGo1UPOqfm0F+ORBZ1N/nsqNDCCGEKFhZcjko/8ajj6SUf0MPueyDpHaiSJVoOcI57ldbmS0zm4pxKRImejHM8ICPoVMJyos9CWseuJtlKp+Fu9npezenHDQjlyJ+OUXuVmpRFwTPliLJci7LlHIReDfFpbN9/HbASt02J7XF/POepbGy1qrntwMB4i4fFmU/kIn6OfRxDK3du2h5C56Vks/Jko/Q+24f47eThD1WAmUGln/TgHa+n6vOye7fdKvjOld6jve3BDqEEEKIQqUx8VIVjP4uzPgW9/zJJ3Mxhs7HYJWTykV6WCgEL7m6OfCKkbUqniOUaDnC+cypvnIpFiEej01XoVnxBNuhC1wyYGfTkdiDhk4Dg3MHzENnWeD+L1opogEvR0+GGHtUGcqXnSo6jmegYZuHE24/O1tiNNbCeD5L7pyf3miKa7EwoxcTZLRWOjpcRb/gL/mcLKSZSKWYxMCLj8s5tERtAe3CuL8X+vgUQgghxHNnpnGTgxM+L51bY7Q2Oak2zWQv/zLN+JUwwwMBhi7rqfW1qTdJJ1BhcdE43ytQVSnRcoQAt5PEo2EuRSNEPwsT/0OSTG76DL/J6qC2w4OtzoHNYlrUM93PgmljgJ6qCPF4iMHjYabW2Fn9iJ07uhftNG5VSd6CGePH3XQdDkOVHVtdluTFBFqrA5MmRfJyjHGNlYaWNpo3LV5FhudBa/XxwYcGjrzn5/Tx6SMs4yd9xGf6y19uY/teP+3Wha+HYlHyOVk0TnafTShbS0Kh3N8LfXwKIYQQogBUbgzg/8LNXx0LcPTCPPt+dUZsb/ZxYKMawxxZJi/HuHYzzdRdZd8sI9XrrIv6VuiZKdVyhPkg++vbZrL061m+2k7tZje2Gic2u5XKMuUfKHIrrNiarNg2GBk/k0C7K8TuOuUgNUswFIzAugAf97ipzPXTVeunck+Q7VbgToKhn3n45edQsaL4F/xKFTVeDgQ97LgSYexqiok7WXRlRipXW6leZVRfIuInTLor1KJw7m8JdAghhBAFzYhtR4hft0QYHg4zdjVJ5g5QZqBylR3beicW4+I+LDwPU1f6eHeXl6Erj9j2ClCmtiMcJViOECPV3/NSbXVgq3NQrcLreV4aF2+NuJStXzF1wcvWkyYOBLzq2LWVTzJ+HSybXfMftyubTk6b89jZ/3M7x/fY1bf4R0/Fage1q5XtajSbkyXL+Eg/QxciXEtlWbu1j1YLQJZkLEmFxVz0u7XmlyV5oZ/h34UZu566v1OtcpUV23o3DTaVBbcK6P6WQIcQQghRBLQr7TRusdOo7FClFKH3vQzdMGJrcWFbZZw/gRvAEvOibn19pkq2HKGd9nfs0/9+K0H0bITk9RQTuSy6bxip+LYVm92uvp0dc2SuRhhLpb+atC+X4tJAiLGonfE8qjq+cp9Gj5Y0uS/nNhppcNr5aU+QsR/ZVZS3IUsy6OOX/8vJ252O6QXenRinfV56/y5CRmem9vVudnc61LFLbVYuwek9Lo6eTZIDWGJEt3Gm73aQwJtu4i/7OdzjpVpN93kuweldLo6em5n3XBeCDPb6MW3q4wPfAkEBNXiO97cEOoQQQogCl4n30RsIU/HDPtrXPGif/MTNj88bae7sotmiooVxPkY8rqf2J2E+2GhU9qrYdDnC6D43vWV+Wv9crW8455MmfszD/p8HGb+j7AOWWWne08fuFvOivf17Lm5H6N3lpvfCPAuhOcrXdakoyGGkYiWMRiNkWpyULzFQ/s008VgC6swPhuWzoKpqMzB5xk3nT4LkGqxkgAqyRH/WxqFgiuUWB68uSTLa08a7K2Kq+t2X7PVw9By86umjvSZJwDPnGKbOTuvrTuI9Pg5+5ODjHXMq8hS5ZK+Ho8NpTC4f7S1OLFUmystg6k6KiSsRhge6OTng4eBqKz1bVLFfq6Dubwl0CCGEEAVsKu5nZ4eP+B0jra8rOrVZvhjp5mA0wmRviA6Lmrb8G6lerZ4H/SdSwuUIJ8946TocJFflpNXpoLrKRPk3ZpLufh5h9Ew/g/tcaFdE2F2vlqBelmiPm8BoFovLS11ViuFAmPKNHmxL01yLBhm9YqRxj583muzqecOvsdLQYObkh262Lgnwi3cc2Kx6Tve6ObjMR7PNhDYV5sSxMDmjVz3zJknoVIjMq34+Pto2Pa/bQQbPJClfF+CjgJtKUgx2Wvnpb/sZ3+hVR6WdfILhczEqWvr5m11OtKnAw5WTdCZsnf28lbLSNRxk7IdWdezSm5l3eVMfPe8rqugsNVBhNFNd7+SlHXYOnuknuaVLHUfTCuj+lkCHEEIIUbBShHq6iS91sft4gNY5uzkAKlz9/NrSx/5tHk4E+mnucS/qQ8MzozFTvTrNpS9K7AhHyZYjTDJ8KkjG6uOj3i6qv1I/1k37VjeBDicnPw7yRr1KrvN8jNELKSr/Q5Bf7HOgvdPP2EcxKr/XRYcVwMf4GS87ewKsrbHTuFL5FxSv6m0B3rzcRu8fs2gx0ODxYbvoZdDnelBqd4mRhnfc6lj0Mr3wTX4Ols62+7tzpi6GGM0YqG1pmwlqGKmrs/LTngTJPCo5zpBk/AZUd8wc1ZmXHsurVjibZFLZVbSm523Z4nxEziUjtQ12eDepqqNphXJ/S6BDCCGEKFT5BPF4luotPlrXzL/w1a5y0/H9AKOfRLiWd1OxiA8Nz46Jxh+6Cb3fxdDL3TRWqWlR/wilWo4wn2Dsc3h1h3ueIMeMpXZea7FzsifCWN6tkp0sKSZuQrXFOmcBmIX7FYb0VDZ1sztq5a8OB6k9rHgrXMzKrLQHEjTfzk7PabWHDwbMhAZCxG+kYakJ23o3jTY17erKkstBedmD32eXohEyWjs224M2rU4PX2YfeZSpGOVyWWDh3+WZTBo0qtjT8JBc/tHzJp8FVfw+m6NA7m8JdAghhBAFa+bB+BuPeEhipj+XZUrZUbQSRKNQvSzMwSYzv7TaqX5xge+Bzk67z7Oob4XEYpu+znVl8wfzZpUvNUBOTQtAPTodTN6ZqSw0k7Qvc3vuwkjP2ho7mXfDjOVd2Ir1Os8HOdjUTcbmwFbvpLZuOrls+dI5C3yjg+ZOB80P/UE1MbJ8GYxcTwJWyEUYvZBE94qXumUPRsyIqPkAACAASURBVI3fSME3zSyf+0eLmcaMaTUMnw8x2TJzZEfpVpgTpyKw2qWaXQ1ozJhWwfCZfpIuz/zzyicYOhOBVUWeg6dA728JdAghhBCFSmPipSoY/V2Y8S3u+c9r52IMnY/BKqdKtjnPnG3+yM/QTFLK5MUgSeWYWWXQ4PNQrWwvCiniZyNMrLDSYDM9+Fo5bF5G1m5QS94GE5VGGLoYJtO00DbvNNGLMTDObvFXAY0ZUxUMn+1nzOWlWmeicmWWoeEwmXUPvg8TqSTkzEUeyNSTuxlh+FSE4VN+0Bkx2RzU1TuprXdie9xRLTXQWLHZDZw47mE/Lio/7+f0dQOvbnU9uI9v9HPiNzG0Vm9xL3wfYsK5ycnJPV527knRXpsiQ5bM9QhxUlyLhxj6pJ9oykDj+y713N+YcLoc9Pq8dG6J0epyYvn2nNxDV8IM/6aPoTg0vFPsv9cK8/6WQIcQQghRsMw0bnJwwuelc2uM1iYn1SYj5bo5D0oDAYYu66n1takjkRnTRzh2nEmw40nyUGj0xVuZJB/h071thO0BbDY35TNfzwZ4HqmsDf937TQU69zn0lhpWG/m5Iceusp8dGx0sXaVYeY4R5bM1QjDn/j4cCCF6U2XinbvzC6EutjWqefXvW7q6kz0HnfT+aWbxldMcDPM0MkIrCnyN90aJwcuJGiPhBkdCRO9GCI+0s+JkX5OvAflVfbpN8F/7qSuxkrFQkeYipqe2s5umn/vZrDHN300aX03O1wz2/fzYQ697mboth1Ph4qOKQEVTQH8N9zs7+lif3C6bcznYHh2gM5E7fY+djct7lGGZ61iY4ADyTYO9vURiPYpu2cSsfbxVkuRz7tA728JdAghhBAFrHJjAP8Xbv7qWICjF+aU5JulM2J7s48DG1UT5gD0VKxU03wWoLHSvC+AbYVjugrB7Nd55cB5aEwqWvBD9bZuOqIuAr0eor0e0Okp1+mZyqXJzZxVWV7v561t6ik9CVCxsQ//bS+9XxgpR4/F001HvI3eM92MnZkZtMKB50eeIn/jC5SZqF7npnqdmw5g6kaE6GiYkUiY6EiE4eMRho/7oMxItd1JbZ2TunoHlqrn8zZ4URhdvPWbJO3xGBmdmeo1xgf5WTRWGrb4sNV5aVj9BEHeomLA4glyyhVh5HyY+JUkmRxQZqBylR3bOicWo9rmzHSy0T1hfr0pzPD5MGPXU0zcmT6mV7nKjm29iuZdgPe3BDqEEEKIgmbEtiPEr1siDA+HGbuaJHNnzgOimh6UHpJm/GKYaDxG8uZ0zoJyo4nqV5zYrHMWB0XNhK3F/YivS0iZnY6+GLZggMHzEcY+n10ImWauczetTVZVveWeZsC2tQ/b7JfLHHhOJmi+GJ5O2rfMjMU+fd5dbbQr7dRutFO7sQvIMh4PEx0JE42GiUf76D3fR29ZG/7P+tSxc2mWxoDJ6lC2Tl8LHV3KRlXRGu00bLbToOxQOW2Vg8YOB43KDhUrhPtbAh1CCCFEEdCutNO4xT7/g1IuxdiFBOXrHcX/1hcYP+/j0KEAo1fTyi4Ayl9uo+NtP+2LnLH9ecqkkkzeSpPTGFhuNFGxVDlChTRGLC0+LC3KjlJjoLLGRWWNsl3N9FRaHNTp9JQvNVC+VM/o+QjjymFFJ8vkjRS5R+3S0ujRLTVQMSdxY6nKXEkwtdqsgtxDWcYvdDN404WnxazshHyCE3u7YaOfdtvi7WgoHM/n/pZAhxBCCFGkMldDDA30MfibEGNfuvB/5ij6hKTjn7SxzRdkAgOmejcNdXZeMhrQ5rNkUgniI0GGL/ZztCNG8v0Qb21QUbDjdoyhY35OBEOMpWYqcQCgZ/nLDhwtXt7Y7FBJCWExvzRjA92cOBdh8q6ByldctG5po1qlga6pmzEujYQZHQ0RHYkwdnP6utettPLqBi+tdS7WFvP1ng9xpOlJ8u7oKV/toLnDR0eLenYuTV3pJ3AkwEg8wT8tMWGqa6NjuxfbCsXAOwmGfu7l6CdG/vLi4r3hfzayjPW62HUoTGYNOFu6vpo/60qQ4b/rI342QvJwiLfWq+hzbI7nfX9LoEMIIYQoJrkU8bN9DA70MfRZktxd0K2w0rBZBUkarwc4+H6QieVOPIcCdNR89eGveasPz0U/7+72MejzYHklSPNXhxWf6/3s93gYupqdyVhvnQnwpJm8niB+JcTpd0IMnfFy4Od+apULhSI1vRDqZmgkxsSUnuWrHTRuUddi76uyJIM+jvQFid/IUr7KQfN2Px11BuJHnHT2xB6U0L0QZOh8gp7jPixqOL6SS5GMhhkZCREdDfPZH1LTc11qwlLTRofdia3W8dyqNHz9jLxU56T2UTs67mbJTCRJXglxYm+YkXg/x3wLVR8qItf7+HGHh9Gb00cty/MxoqdixKMJ/CcD1C5jeufDeT+H3utm9HoWXZW3+Ocd93PwcJgJo4vte91fDXIArOniF78ysL/Ty+DbHixrgjSvVA4qQgV2f0ugQwghhCgCmctBBk/3MXgmRPIWgAFTnRtni4fm9c8ui/liip8KEL1jpvVIHx01Cz8IVdR08TeHUmzpCHDiZIzmXUWeoDIXo3eXh6HreiwdAXZ3fvUN/tSNMJ8e9vLhmW727zBy7LgKyk/eeLAQ0i0zYVqRZfJKiBN7I1xKhfhFp1UluVgelrnQxc6fBBi/q6d8hYHMH/oJdCbIHXYzdjyJaXOA7VscVOaTRI93cfRUN0c+buOYZ54t8MUiH+NEp4eTkRgTd4AyIyaLne/tcGKrcWB7xVS81ZMeRWOno2emzMhjTF0PEtjr4cQnXo7WR3hr3cK/Awtflmivn9FbJhr29fPWZivlpIj3eug63EfgYw+2TWk+fc/Lh2cT5MpM1Hr87PAUeXUhsox+0scYVtoP99FuXfg4knaNhwPvJWY+xyI077ErhxSPAr2/JdAhhBBCFKo7SaJn+xgc6CccTZIDylc5qDUlGB1z4DkWKPItvnMliF5MorP4eK3u8Q/42hovzdY+PrwYIol1/rdmRSJz1s+Jy2B5M8gvdtjnXdxrVzpoPxzmpaUOuj7xEwi24S/qkoRZosdmFkLv9vPWxpkdHKkwgV1t9H7UxeD3Q7Sq4S3nQ9KMnupnXGun4+MgHpsBbsc4vcdFwOeHKi89+9wzu7NMNPsCjMftnBwOkfSYi/g6TzI2swha/rKL7210U1dnX9SKC8VGW+Vi+5E0400ehgdCbF/XVry7G/Izv89rutm9ZXZ3lhHL1gAdI2YOfeJmy/EEydt6Kuu72L63i4ZVCwcFikY+waXfp9BZu2h9RJBj1uzn2NGLYZJ5exEHeQrz/v4XygYhhBBCPF+T8SAnfC421Zvp3Otn6ApYWnwcOJngb8+G2FFfzAvcBeSTjN/IUr7mSYMWJqpXG8glk4w/alt4wUszei5EZnkbb2ybP8jxgIHaXT4cy9KMng0xqewuJvnYzELIy+7ZIAeA0YFnlxvTVIRodP5ktEUtn2DsSprydV7emE1CuNRK6w43lRMpym32h4+gaazYrEZyNxLFfZ1rHLQf6qZjs4sXvwzT63Oxdb2R76xzsHOfj9NnwiRvzc1LU6JWtNFYZyBzOcJYMf+8STF+E15cY1UkFjVisZjgZoIvljnp6Ilx6phPHUEOAFJMpqB8lfkJE4NPf45xI7noiTkXVYHe37KjQwghhCgk+SBHtrQxlDdgqnHj2dBG4waHKstLPixLLgda3ZM/8Op0eshnH+QzKEb5BGNXspTbnNie5Ge81ElDjYGhaIxreYo4MWl6eiHUoFwIAS9beUkLE6kU8HzfCH790kzcgoqVpoeDWlVmKrUwvvSrQczypQb4ssivcwxUr/dQvd4DQOZqmOhomNGRENHf+hk95YclepavcVBb48BW58BmU8eRvKejZ/kKA/wxTUbZVVSycHfmd7SCTqcHnYu3BvppVGGS3RygfZrfy/mZfxbJP6ZuUGZ4srDLn64w728JdAghhBCFaKmJyhdNVKw0sfxJFsBFz8Dyb8JkKkkG+xNs2c4ynkrDMiPLlV1FZXbha3zMbo5ZepYbjXBbvQshdHq0ZJlaxIf/52dm3sqFkE7/hD9/dShf5aBhlYOGLT7Ip0lGQ0RHwoxcDDPcF2Lw2PQ5/2qbl90ferEov1+qlSVzOw3fMDzB78AiptGj/YayUQ0MLF8Bk58nmMTx1SDuVyQZu5oGo/EJxhaPQrm/5eiKEEIIUUg0Tt442k27Fa4EfRzcYuY7650c7OkjeuPZb/18ZjRWqtfoyUVCRG8pO+dxK8hwJE35y9YiPtfMnIXvPAv+BWjlNZVQE40BU00brbsCfHAqwa8H+vG02KkkxVg0xoRyvJrdiTASTaNbbealov69VqI0VmwWI7loP4NXlJ1fNXUxwGAsy/JX7Iv28175rf9D2fRsPcf7Wz4qhRBCiIKix1TvYXu9B08qwvDAdDLSwSNhBnu6qKxxYdOoMHcBBmo3OCkf7ifwvou177kWfsOVTzL0jo/hjJFGpwrKMApRwqZuJbg0EmJ0JEz0Ypix2YCuzoCpxlrkO7aewp0Egz4vv71u4NVtj/j9JwqYHtvGNkxnuund48X0824aFkionLkc4ODebpIaKx0bnard0fU8728JdAghhBAFSmu009hpp9HjJ/m7fgYH+hgc7mPwLrAky+l3uqGljQbLV8/1F6PyDT46BsIcHXCzNeWho9OD8xXTg/PO+TTJkX5O9PgY/H2a5esCeL6rjhwOmVSM6MUnC2CNp9Szs2feed9NMJmHXCpC9GLq4T6NkWqbueiDW2M9dmp6lK3AESs1R5SNQFmRl1CeK58mGQ0THQkxMhLms8tJcnenu3RGK7WbnNTVOqmts1NZ7Dkc8jFOv93NpUcdw7oLU7eTjMUijN+G5fXd7CjqikoPTMb66O15eC4T0RRMwfDP/SSVK1GNmYZtxV1iVmvrYveWMLt6A3S1hGlwuWmos2MyGtDl00zcSBA/38/gmTDjOQOWzm7esCj/liJWQPe38vISQgghRKHRGDCt87B93ewujwCfDgSJnuwietLHcouTxk1e2jfai/stoMZM++F+Mtvd9I50c3Ckm4NlBipXGNGSZjKVIpMD0FO5zs+B991UFvED8VzjAx46B5Stj1BmV7YUpUfO+5SHzlOKtrI2/J/1FXFZZT3LTWZMT5tZVGdkkfP2LbIU0U/6GP5diNGL0wt6AJYYqLS6qK13UvfnTmxrnjRXTbFIculsP0N3lO3zWGam1uNjR2dxL/TnmhgJEBhRtgKkGOqJKRuhrA3TNtcTVt4qVAZse4McXublYCDIcG8Xw73KMdPVlhr3dLN7y+OqbRWDwry/JdAhhBBCFJEHuzzSJH/Xx6ef9DF0IciJv9ZjabEX8QJwxjIHnr4YDb8NcPpMkGg8wfj1BAC6FWYsVgcNLg/N64v/rf40E7YWN7opZftjaO1PWL6wUJXovDVOtgedbFe2q10+wuBf+xi6M30f21zO6cVPnQPTMuVgFdE48PwqQvvMG+15LQFdmZHKlcanq9ZRyDR2Xnu3jzpl+2OZWKuK74ERm6efX7fEGD4XIh5PMH4rTQ495UYT1RYndesdmBZ5R8MzU6D3twQ6hBBCiGKkMWBa52X3Oi87boQJnUkW9wJwLo2BalcXb7m6pr/OZ5lCr55FwFwaK837AjQr29WuVOddskzUebppsDupsypK66qagco1Kjp29MSMWJraUNOJjD/JCisNm600KNtVpzDvbwl0CCGEEEVOu9JB83T5enXSlFbpTSFUR2Ol0VOKC34hSkCB3t9SXlYIIYQQQgghhBCqIYEOIYQQQgghhBBCqIYEOoQQQgghhBBCCKEaEugQQgghhBBCCCGEakigQwghhBBCCCGEEKohgQ4hhBBCCCGEEEKoxgvXr1+/V1VVBcC9e/eU/UIIIURJSyaTvPTSS8pmIYQQQoiC5t39Nt2H3lU2q971v78uOzqEEEIIIYQQQgi1WfGNL5VNJeOFe/fu3XvhhRdAdnQIIYQQ87r/OXk7quxStReW2kDmXTJk3jLvUiDzlnmXglKft+zoEEIIIYQQQgghhKpIoEMIIYQQQgghhBCqIYEOIYQQQgghhBBCqIYEOoQQQgghhBBCCKEaEugQQgghhBBCCCGEakigQwghhBBCCCGEEKohgQ4hhBBCCCGEEEKohgQ6hBBCCCGEEEIIoRoS6BBCCCGEEEIIIYRqSKBDCCGEEEIIIYQQqiGBDiGEEEIIIYQQQqiGBDqEEEKIAve3f9HAv3T+F64pO1SuVOctSkupXucybyHUqxCucwl0CCGEEEIIIYQQQjUk0CGEEEIIIYQQQgjVWKJsEEIIIcTzlf2HCb7ITt3/+osvgWyGa9fH77fpl5Sz7Fvl6O+3FL9SnbcoLaV6ncu8p5XKvEVh+PTX/43XfvAdZfPXrhCv8xfu3bt374UXXgDg3r17yn4hhBCi5N3/nLwdVXYtgnF+1vQaf3khp+x42Lc28t/je1i3iK8sXlhqA5l3yZB5P4t5l+p1LvN+JNXNu3CU+rw/+b/9zyDQUXjX+fW/vy47OoQQQojCUsG//8n7rOmc/TrHaGAfB//BybG31vHi7Ce3fjn/SlWf4qU67wey/+M3vP1fxsjOaXtx/Ru8tWH5nBb1Ka15l+p1LvOeVirzfqC07u8HLp/upmf0wQ4HlpRTu/X/YvPquaMW32uvvQZ3bymbv2aFeZ0/w/+UEEIIIR5Px0u1dbw0t+m376DPvcS67ynaVaVU5z3H5yP0HDv/0ILglYrvq35BUFrzLtXrXOZ9X0nMe46Sur8f+GI0RM+xiQcNS5bDhmcf6Hg2CvM6l0CHEEIIIUQB0Le+z//XqmxVv1KdtxCloFTv73WHQ9w7rGwVz5JUXRFCCCGEEEIIIYRqSKBDCCGEEEIIIYQQqiFVV4QQQojHeLZVVwpHqWerl3mXBpm3zLsUyLxLdN53rj6DZKSFY27VFdnRIYQQQgghhBBCCNWQQIcQQgghhBBCCCFUQwIdQgghhBBCCCGEUA0JdAghhBBCCCGEEEI1JNAhhBBCCCGEEEII1ZBAhxBCCCGEEEIIIVRDAh1CCCGEEEIIIYRQjReuX79+r6qqStkuhBBCCCGEEEKIInXQ9yPe8v1M2ax61//+uuzoEEIIIYQQQggh1Od/KxtKxgv37t2798ILLwBw8UpW2S+EEEJ8rWpW6wG4dzuq7CpYLyy1AXDv3j1ll6rNPh/IvEuDzFvmXQpk3jLvUlDq85YdHUIIIYQQQgghhFAVCXQIIYQQQgghhBBCNSTQIYQQQgghhBBCCNWQQIcQQgghhBBCCCFUQwIdQgghhBBCCCGEUA0JdAghhBBCCCGEEEI1JNAhhBBCCCGEEEII1ZBAhxBCCCGEEEIIIVRDAh1CCCGEEEIIIYRQDQl0CCGEEEIIIYQQQjUk0CGEEEIIIYQQQgjVkECHeDbyEY6u11PT5GMsr+ycY3acy//ocUIIIYQQQgghxDyeLtBxM8KJTjP1q/Vsej+i7P1nix+2UrNaT029h9E7yl51SZ71c/piStn8p7vdz06Lfvr797h/XjZz6KLyLygUBkw2J7VWE+UaZZ8QQqhfNp1VNi3oacaKInL7H/nHL5WNJaBU5y2EqmRJ30jzZJ9OTzO2wGXTfJF6wpk8zVjxJ3viQMf4eR+dLU4+jKaVXV+PO2FCZxLoVhgpnwgyeH6R/juFIB8j9KGfT0e+xkCHzkxDh5f2rXP+WW8GoNzW9nD7Vje2byn/ggKhMdP8XpAPfG1UKvuEEELt/mcPLf+6hf+cVHbM42nGiqLy97/y4v3V3yubVa9U5y2Eqtw9z19+9y85f1fZMY+nGVvofv8u/277f+WJVrBPM1b8yZYoG+Y14mXbD/up+H43H21IsN/TrRzxz5Y538dQykDt2z60PR7CA/1MNnmoUA4sNDlAp2x8jNsxxpJZqFd2/DPorDTvsj7cdi7F6XMJKmxetiv75pVlKq9HKzsphBBF6m//ooGWz/8jfwj9n7yk7Cx0//R7Dr6xj7/9n7f4f944yL8afItX/kw5aMbTjBVCCCGEKDFPuKPDRONfhzn2npvqpcq+r0OKoYEgmXInDU1tONcZyUX7GbyqHDcrzdhAF12bzHzHaqDeZuZ1TxeDcWVc7AnGxX1selnPD9776lGcscNWal42czQ603DFz+sWPa/3xBj7xM3rdQbqN/u5/zLtRojefS5eX2ek3qKn3mZiU4eHE3N2boz3OqivmT6akwzYqVltYGsgcb8/c7mPozscbKozUm8x8J31dna+EyB+8/6Qr83wHgM1VjfDqTCBDjPfednIu+dne2e+d5ut/DubgRqLge+sd9D1Xh9jtx/+ewAmowEObbXzgxoD9VYjP9jURuBsginlQKWbIQ41Gaipc3H6SnbeHB2ZARf1L5s4NJImOeBlZ5OJeouB+jornfsCX/n/mbraz9FOOz+wGaivMfP6Dh/D19OM7jFSY2ljaJ7/fyGEeK6yl+nZ2M6A6d9Su7KWf2scoH1zD5fn29n6NGOFEEIIIUrQk+3oqPOyXdn2dbraRyiaZXlTGw1L9dDkonIgQOg3ETp22RWDs8R7XOzsiVFe46Z9hxntnQSjAwEOdkSY7A3RYdE/xbinoNOjBTJXuzkaTFK90UfjSvv0rpNbIQ52uBi8aaZhcxetq42QSTB6KsBRT4TJYxG21+hZvt6PP9/NwcNBtM5udrtMlFeZAJi66KPzTT/jpjZaOz1UL4XJKyEGT3rpHI3hPxmgdpnyf+pPp9PoIZ9i9LCXS2Uu2ncbMX17ui95zEXn+xF0NW5ad3mp1MF4vJ/Txz10XoWPj7nvHy3JXPDyF50BJqtcNHe4qdSluBTqo/dHTsZuhfhg8/QRmq/Ixejd5eZ0ykpHoI/W1XqYJwGpTqeHu1mSn7jZ/6WV1r39eJZmSZ7xcei4ly5MnHrHiRbgVpB3t7kZ+qOZhtf9NHxbz/hnffx0a4JXjVnQPPFVL4QQz85deGXff+d//Ovfs3Xtf+Xff3yMQ//vedLzbed9mrFCCCGEECWoIJZ88YF+4nkTrU2O6cWqrY3GbwfoPdNPtNOObe7RkOsBAh9FoLabnmOe+4vt19YZ2LrRz4lAkNaeNsqfdNycv/qxNHp0wJXzCRr6wnisDwIlU1cTZKocNHZ0c2DOwr651sBWVxeDp0J4alxoV9qptZrQwvS/188cKcnHOPF+N2MrvRw76cdSNvs3tNFo0/O6p48jH3uo3fEkR1CejHaJHnIRRnPdfNzjnnNMKMnYFwaq6720H/ZTO7uLp6WN6pyZnWcCDF1x07F69v87QHJZG/7jfTTMBGJaNzko/76T04FuRlsC1CqvtHyKob1tBGJGmo/047EZFAOU0kSvmjk24MMycz1Uv+xn7IKDE+dDXPI5sWkgOdBN+IYe295+/B0zPwdXG7bDDjoDWShDjuYIoSLZf5jgi+yDvWNffAlkM1y7Pn6/Tb+knGXfKucpQ9vP1p+tofbfAHd/f7/pxX+zjhcfGjTjacYKIYQQomR9+umnvPbaa8rmkqBcfj57d0IMnklAlRenfeYxVGPH2WTl5NF+Bs/7sG14sAievBAifkdPbdPDySq1a7wcOOYgs8yM7inG/UlWuXDOCXIAaG1e/Me8DxrywN0sUy+aqNTBlZtJJmDhBJtXggxfzmLa4qDyyxSTc7OOr3ZiW97H0GiI5A4r0/s/vgYaAD2vNrUpcqGYaNwXpHFuUx6m7kJllQldPsl4Clg9/f89+jksb2mjbu5ukzIHbxwN4cwZMX3lKksTP+LiYAga3gny1jqjcsC8qje03Q9ywHTiUlOVHkZmvl9L0/8/e3cc1PSVN/r/3R8MydjFiyt2UnSHqL0Qu7900jY70DCXBZ/1IW0pTVdbWdk6oUunmYf9KbqrTdfWX7YuV1Z3bfCWvdkpbTL10VILvZF1t6HeNax3ZHEu3XKX31OBaWuYupit8MjI6pMwMP7+CEj4AkKsWgif1wzT5pyTfHO+36+Q88k5n8Nf29oJq7LJfzR6FokafWkFpiNW/PKNpxBxpJeaHz3NT0+FFeVv8k/6N8cfLn+GP3bsZO2k30VCCCGEECIefe0f+wZPevAHIXOrFX3UN+3aR4vR19hpOeal/9Hx2QbnAp2EEzWkrVDOAEhBm5V3/dFs292UdN2UAYveU07c7jraOjrpvTxxsbRqiiUZ0YYCnQSGIey28JhbWTsmSN8IaG/ljIRELStXTPE95+V2Gl1VNPpb6e4JEp4QIBg/p0OBAIFhNRnLI7NUoi1dkzceQLne/xCBI1YO1naiLfPx6vrZhm3ULF02ua0qASBEeAQYCdAbDMFiLWnLFA2XGNCvVuPvUpQLIeaxpXz/Z/tYUz72OEyL6xUq/26mdtda7h37C6dO5aGv/a+dEEIIIcSdtVBnc/D1BzoCNDX4GExMISnoxV0TXReEJTB42oOvx0pJeqR0aDAEpJA0w3SM2ba7GUmjuTqiDZ60Uf5jD/3LzWzYbseUoUGVCAy38pbNzkeK9krhq5HAiHaTi63rJgcNAEjUkHkrgxxEluMkKQ820snhcjMHP4LMJyvYtSObtG9GgiF9v6vAfmh8L8Pw1UhiV9XdUwRLpnLew/59AwwOQ7itmXPhbDJne41m7HuIoSvjuVQmSiE5pnVKQoi5T8VKU87E3VV+twd1eCVrn1CUCyGEEEKIBePrDXR019HYFoLhEB3vOuhQ1gPQSpO3nZLR3BRJyZFEo4NXle0mmm27G5lxx5DrgjQdqqM3wYCtxhvJXTEmHCR5FsslVItGZ0ksMWDKuXV5OG5Km4v6jwZILayjZq9lQh6TwOmoB1Hve/DKLNP9D0FmmZcSVRX2mioqa/Ko3Z49RWDiZqgjga1LU72Xr3YvCCGEC/UsVgAAIABJREFUEEIIIYSYH2a5vezt0eGtoyucQv6BIGe6Q5N/2uooWAZdx+toG12CvVKrQzUcJPDZ+JatEQN0eF3UNzTTH0M7Eonk6hhWDo5D9AWVz53G2JKJZdnoV0+sGmpvpWMWEZOk1Tq0iXChoz3yviYIMahYCnM7DZ4P0D+sRmvIViRrDfLXj8e3wgVI0mrRJobo7Z68lWz/GQ/1h+rouBRVuMrGlq1mTDYXL2Sp6XLbcJ1Rbgt8kxI0pC5Tw+Ugvf+uqLvcSkf3nTuHQgghRKw+ff913v3Ll0Q+8oT58i/v8vr7nyqbxZ2F2m8h4srASWr2/4Fz/xh9/I9zvL+3hpNTfcyPpe1c9+c3qXzn7PWdz/4jcJKa/e9zTtmOGNuKr+zWBzrCQXq72wmcn+FOHUtCqrFQtFaZR2PUYjNFZi38rY6m05FB6tJcC/pFIToaPHRF55/7zEO1owLXiciyitm2I1VDcgL09wQmBhguemk6PUMfxiSkkLw4MsDuvxxVfrmVt16vYzAJCIcmBQKGwlED79UW8teoCZ9xcbht4oB8qM1BeY6WcvfEIMPtolqSQtIUgZ5er53DHZGZMuGx955hwbQKBk+5aOyJahxu5fAeG/tdzQxOtTQlQUfJnipMizs5/LKdluhgyE3ToNdrIdyK3x/93kN0uV20RF8bIYQQYo6576Fv8eedhdje+5RP37NRuPPPfOuh+5TN4s5C7bcQcSXlIR78x6/JMf2UkxdO8lNTDjWhB3loqmFeLG3nOv1DpLzzOA+V/4HA//4F//RffspZ3SNTL5+Npa34ymaxdCVEV0MV/rFB7MXWSECg3YPrgC9Stjibp8vMkcSTPR7sFgcBk4vf11qn3b518MNIElJtmRXT9a1UldQYLcVo36nC3+Bly9piktOt2J6vY1u1g+2bO3linYHky534vXV0JGZjKx/dQWS27ZaZyTeqaWupYn9tCiVZWrjYSmNtHegNqE7NJtihIz/fgPtjL66XHISfNKDqa8X/rpdBi5OSESuuDi+Hj+ooMlnQa7SkJUDbiSoOavJYusJMyTodJTtt+F9wcrg8j77NVnLS1Qx2N9P4bh1dy4p5dcJOIrdPkrGYfE0djUdsVC6pwLQsROCMh8Y2HVt2WvjVKx4+anDSpLJgyjVE3ne5i4OlZrrWm9EmBOk64aHpcw2mlysi13eqZKwrrLz8UjObd3qo3JPH2weUu7/ELvMZG6Z3K2jZZ2H3xcg57D3jobFDS56xnaZPlM8QQsSTx37j5z+UhULMF9on+WXNl5T+oJJP+TavHnXy5OQ83PFnofZbiLiSgunnDdReNLH+v19g5Q8aaPi5KWoLg2ixtJ3jvvEg5Uf+lQtr/4nKs/fy2Nt/5PUnptnwPZa24iubXaDjAyfuU4pp/20e3G2j/59eQU6pmaUzJoscE6DpmI/BRAMllmxl5UT6Yor0Tg6e9tB0vpgNK9Toy73UaKpwH/FS/7qXoUQNWqONXeV2ivRjSTFn207Lhj119O110OSyUlatJi0jj6KtHoqCFTx1aiCyo8cMtM97+PnVCtwNTipPQeqqPPJK63h1vYHBdCt+h4emXztIWm5Gn1NMaZmX3kPN1Nd2krHeQMk6HUlZVdS8o8Pt8nD6iJ3mS5CUqiPzn6t47YUKTLPbhfWrW2xmy0En7HPiP2ClaZGWjBwrO9x2TEva6T3RjPt0FQeHU8jM1aHNdfIbt463XB5a3A6awmqW3p9H6a8dPDdDcGZpoZNdp1vZdqyCX2Rn89p6ZYsYrbDxag0crHbhf8NO891a9LlWdrmK6X3ZSxOzTJoqhBBfCzUpGs0sf1PF0lbMF6rM5/nljn/j9cSfsHkBTWpYqP0WIr6k8Ni+1/lJ30nW7ntshsBFLG3nuG+Y+MVvf0HAvZLXfzBD4CKWtuIruevatWvX7rrrLgDOSA4DEbc6ca/PxnXRSo3fiXHWQTkhxK2WlREZml+7PBYtn/vuWmwE4Nq1a8qquDb2+UD6vTBIv6XfC4H0W/q9ECz0fvd80XMbcnQI8TUaanOyu8zM7obxLXABhs568XeHSH4w+9Zv0SuEEEIIIYQQYs6YxdIVIeaPpNU6VD12GveYGey2kZORAsFWfO966ErIxlY2cbtcIYQQQgghhBDxRZauiPhz3oe7xonvdDsX+kKwREOGwUKRzU6Rfl6vABQiLsjSlfljoU99lX4vDNJv6fdCIP2Wfi8E0UtXZEaHiD8rzJTuNVOqLBdCCCGEEEIIEfckR4cQQgghhBBCCCHixl09PT3X0tPTleVCCCGEEEIIIYSYpyorK9m1a5eyOO7JritCCCGEEEIIIYSIK5KMVAghxB0lyUjnj4WezEz6vTBIv6XfC4H0W/q9EEQnI5UZHUIIIYQQQgghhIgbEugQQgghhBBCCCFE3JBAhxBCCCGEEEIIIeKGBDqEEEIIIYQQQggRNyTQIYQQQgghhBBCiLghgQ4hhBBCCCGEEELEDQl0CCGEEEIIIYQQIm5IoEMIIYQQQgghhBBxQwIdQgghhBBCCCGEiBsS6BBCCCGEEEIIIUTckECHEEIIIYQQQggh4sb8CXR0V7FZr+bxPc3KmjtjpJWD69RkFTroGlFWzgNj588xi/M31ldL1fW++nemkKU3U39e2fgOi6UfQgghhBBCCCEWnFkHOgY7PBzcmsdTOSnk6lP43tpstjlctF1Utpydjn0GsjLUs/rJLXXRv1iLPtfMw6tTlC81b7U5tJE+GotpuqSsjdaJe33K+LlQVt9yKWiNZkwGLckJyrrbZ+iUjcfvV5N1vwFXu7L2DrjYTL2rjsB8DGQJIcQ8FxoIKYumFUtbIYQQc0A4TDisLFwArlxmIXZ7LlzvRGXBVAZP2ykvd9KVqMNUWEHRMujr8NJ0tILtZzqpOuLEtET5rBtLy7ZSSpCh6yUDdB3z0HZJh+lZMyujBthJWgPJmmx21BSPF8aTqz58J4IUPKNR1kR01OE7G5rl1boFEnQU7fVSpCy/rQbwN3jpS9aQerWTJm8zzxnySFI2u42G2ly4XLBjczHaRcpaIYQQt82nNax/9A98/8Tv+ZFWWakQS1shhBBzQJiWvY9Tmfgq779sQqWsjlfhf+P1Z7fy6Qvv4yxYrKyNY3Pjes88dB5p5/B+J12JeWw55KVkjXq0wo75QB7lLg+Hj1dgeja2TxtLcyuw5UaXdOI+U0fbFR3mrVUULJSBpsqA/v5OPvpdHb3PVJCmrAc6PvByYYmBzEXtBJSV8eJ8HY1/GiD1CRelFyvY/4GH09vzyL/tvxNCDI2oSUqAro5OBtEpGwgh5pE//Es+6z//EZ/4fshKZaWYm/7xMZXPvcIfPr3En5+r5KHGXTz4DWWjUbG0FUIIMSd8+fsXefFfP+ULXmT3dxr4ZcE9yiZx6DIt+3fy3/7yKWHHTh7JdLExtuHyvDVXrvfMS1cuByHdjOmZCp6+HuQAUKNfZ+bexBCB7jsw/J4iR0fLSxqyDMU0XWyncY+ZjTkp5Oo1PLXRSn37AIQ7adprYXOu5nr54faBCS8LMHg2sixnY44msixnXTbb9rjouMGynK6abLIyNNiPT36960tNsqw0XVbWKSRoyTEZoL2Opm5lJRBuxufrJDknj0xlHURmwnjt2DcZeNyYQq5Bw1MWM5UuH73TTBfqb3Oye5OO7xlSyM3SUba9ipbo3BtT5OiYWojAiSp2PzvFsW/4vMkCxzx0DGnJMxdTYDaTPOij8URQ2Wx6F1up32Nh87rRa5hjoGyrncaOidfHvzOFLIMVf7AZV6mO792v4Rf/00dljpqy2k646mW3QU2W0Yp/hEgfjzvYPXp+s64v23Le9LItIYQQo0JnqXmmhAbtY5hWmHhM00DJphrOTrUyJZa2Qggh5oQvm3dT+tqXPJx3H/flPcwX+0vZ3fylslmcCfPRARu7/89/Jv+Bb2F6JMwbL1Rw7OvOdXgHzKXrPXOgY4kZW7WX13aaJy8jCIcYAr6RHB0AuXOSEtUwEsD3SgUty2zscPk48EoxyV117N9RwcGXrDSqitly0MeBvVbSAnUc3OGgLSoAMHTGQfkPbDT2aMkvd/LzvS5sj+roP1ZB+WYbLdPkzsgsLMaoGqDluHdyzoxuL/7uEKlri2eekTACS79rIYN2fMcnJ6YYOl1Hc1CDaV0eSZOCByE6qi2U/8xFR0Iem3a62OVwUJAxgP+ghee3e+hVPqXHxYs76xgy2LDtrGLTWg0XfA7sNjsd0wRGphaiq9ZC2dYquhab2fSSi587HBStCdEy3bGnE26l8Xg74XQL5mw1yWuLMSUP8FFD3exe46KXys1m9vsGyLRUsWufiy1lZpK7XVQ+a8bVNv4pWJWghpEgLQcq8C+yULLDQf592ZTs81CiV4Mqm5JqL69VV/BAAvQ3WCnf6aRDlceG7U5e3eOk1Kyl97id7c87YjxnQgghJhiGB1/5I395axNrktew6e2/8MeX1sCwsmGMbYUQQswNi81UHzvCT75zD/dk/4Qjx6oxzzQ+mvfCqB/ZxfvvvEr+vYt5yOrm928+w4qF8PdqDl3vmZeuTCuSU6E3wUDpo9nKyjsjAQi307uqmUO27EggRm+gtK0Ou7eOpgfrqNtuIRnAYEDV4aXsUDMtZ8FoGF2Ws89J14oKao9Uob++XKaYAqOazTYP1W/bMG01RB81Ir2Ygpwq2lrr8J+3smHFeFXgpJfAiJYnLLPJMRFClW7BbHSw/4M62soNGK8vZBrgtM9L3/JiCnLU+Cc+EXpcVNe2MmRwUOuxox3La2Ip5oGEbLYdc+A+Vcyu3PFAVN+ZTvLeaGZHzlhSVytGlYHyIx4Of2CnyjLLZK/nPRx8vZnkwjpq942eYwCLFdOyPJ6vreLwqWJ2RB17OkOnPTT1QOYLxegTIv9AzP+soamhjsazFdjWKJ8RLUSby07jBQO2oz5KM8aOV0xRoQG7xcqRag9Fh2ykjQXHwq20hJ28XWNl6djLrDajdQMJGjK/a8a0CGCAxhM++hZZqKpxkn/9/rBi1lewuyHIufOgXz1WLoS400J/7+NCaDzb04UrQGiQcz3jYVJ1YjJLlicz828jccd9Yw2mR4Dhj68X3fvIWu6d0GhULG2FEELMCfc8ZOIe4Iuxgrvvw/TQxDbxZzHffuTbwPjUftUKEw9PaHNnvPfeezz99NPK4ttmLl3vmWd0TClEl9vKr44FyXzWyXN6Zf0dlKglZ+1okAMANWnLtUAKD+ebxwfgQFq6FtVwkL5/Hy3o9uI/G0Kbk0falSD9F8d/hjLMGFPhQotvmrwYGvKfNJM81IrP1xlV3on/xOjsBOMsP1YnaMkvzCP5b3U0nYmag3vJR9PJAbTriqOCH+N6T/noDqt52GIdD3IAkIKp0EwqQdpOt0ZXQEYxRdnRwQw1xkfNpCUO0PHR5Bkl0+k/5aVjSIM+N5uhqPPWf3GA1Jw87iVAy+nZvN5oEtKEbAosYwElNcbCYtJop6m+OSph7RRGWvGfCKDKNGNaMjDhGvaTjcmgJtzuo21sZk4CgJqHC4vHgxw3kgCEO+nqnjg3eumjTmpqXRRJkEOIr1EvNT96klX6ous/Zf9jkNBf3uSfosrSvvffaVkI36IIIYQQQgi4qRkdI0Haqq3Ya1tJW+/htZ9EBxm+Bgkali6bWKRKBBJTSP2mItCQqAZCMLoEZCjQSWAYwm4Lj7knNh0XpG8Epsodk7zWSoGmjvrjXrpK7WQmjAVPILPcGpmdMEtL11kx7SvGf9zHltzIDIn+E3W0hA2UPpENjOcmGdP7WSfhRA0rV02xW0u6Dm0CdPQEGITrAR/VKt2EHW0AWK4jLQE6LkxseyPnujsJDwdp2q6lSVk5ShUMMMQM98f5OhpPD6AyFmNOHy9OMhZTsMqJ21dH20/yRmdYTOFiJ4FLEA462JzjUNZGJAbpDQJjOwMlalm5YjZBqBTyN9uoP+3E/ayOlhwzppw8jFlmjBmznPkihLiNlvL9n+1jTfnY4zAtrleo/LuZ2l1ruXfsL5w6lYdi/2snhBBCCDGv3cnZHHNNbB/9rrZT/1IxB0+E0Jf7qCrPntWg+GujHNArhK9GvqXXbnKxdZ126gF5oiYSwJiUHwNQ5WE266j31NHUYSfTAIETXroSstlSGOPuHWPLNT6oo+WShYIlAfwfNIPeQf6aqY8/dDUEpJA0xWwPVOpIf0bzqIxJvnu0PNpY25GJbW9kKByCRC0FLzkpWjVN0OCbusnHUug65qHtKqQlBGisqZpQ1784Bbq9NH5YhWm6JTVXQoQBlbGCn5dPnMEzTk3a8qiHCWqSZnpjo5KzqqhtyOawx4P/ZB3ukx7cQPL9Fkp2OCnNmSLIJIS4Q1SsNOVM3F3ld3tQh1ey9glFuRBCCCGEWDBmH+i43IrLZsHdrWXDr+vY8ehUcxzmF9Wi0cHzEgOmnCnycMyC3lJM5iEH/g+a2aJPwX+iE5WxasLshNlRYyy0kNbgwXciSMHDXnxtoH/JMuVsEoCk5MgMlaGryhogPBAJWowFMcaKRwMfE8b5Y8EQRdsbSVqUAoRIXmXGmKOsnaVwM03eyPKW3lNOXKeUDSJajtXRa4nk2JjkbnVkb+YELZk5eVO3+YqSVlso3WOhdE+I/u5W2k7W8d4hD67yIBxtpjRD+QwhhBBCCCGEEF+X2eXoCLdzeKsF92c6Sl2+uAhyACSt1qFNhAsd7ZN3TiHE4OVZ7FmXUUyRQU3vSS9tHV78n6kxPTnL/A8KSUYrBatCfHTSR9sJL92qPArWTX+uV67WoRoO0vXZ5G1Yhz7vJDACS1fpJsxyGOoJTN7J5G+d9I5AskY7zYyIyVau1qIaHqCjIzo/yaiRAQanCr4oDJ2uo+lvkLbJx//qDnFm0k+AXblqwm2eqbfeBVimQ7sMwt2tdE1xzKHLU23/e7PULM3Io8Dm4jd7rKQOtXP61BT9F0IIIYQQQgjxtZlFoCNE2wErvz2joWi/F5txmiUEY8JBervbCZy/lQPM22S1hfw1asJnXByO2oIUYKjNQXmOlnL3TANZLfmWPJL/5sX1ay+BxWYK1s5wjqaTYMBcaIA2Dy5fO0k5xeQr8o9EW5prQb8oRMcxD4EJS1uC+L0++tCRv3biTJXwJ3X4OqL7GqLtw2Z6h1N4OGv2s1qWro0cu6vBqdiCN0TAXcxTpuwJ27pOFsTX4KUPHQXrp9udRkO+xUJyuB2fV5FUdUxCNvn5Wrjkpf6I4lpd8rF/vZbHt3qmCGRNITGyfCc8tmXsJS/7LVo275k+IapKdZPXWgghhBBCCCHEbTHz0pUeD+53Owmn5pHU5sTVpmwALMnj6dK8yCyGHg92i4OAycXva62zniHwtUjQUbLThv8FJ4fL8+jbbCUnXc1gdzON79bRtayYVx+dOdfG0nVWTAeKaToTJHVjFTlfYa9gbWEx+ho7bd0airZEbds6lRVWttjqKD9YxbayIBsKs0llgK6TLur9A2jXuyhV7PySatTQttPC/vXFPKCBvo/rOPJOJyq9g5JYAjQaK1t+7KX8gIfdzw6wYaOZlckhes/UUX+sFbKcmB+cJncHQE8dTacGUOkrMN9g157ktcXka+poPO6h5cfZmJQNUGO0VVHUYqXxgJny8zYKDFq41I7/qIuWoJYNr1hmMcNGTdqyFAg3U7+3isE1Gh6wWDCuUVP/TjFlfVbys3QsVcHg+Vb8Rz30pRazZZ3k6BBiLnnsN37+Q1kohBBCCCEWlJkDHcFOeoeAYDP1rsk7fwCQAfmb81g6Q/LPuSgpq4qad3S4XR5OH7HTfAmSUnVk/nMVr71QgWk249jFZsy5GpqOqSl4crrZCbO0opiCLAdtn1soyLlBoAAANZk2LzUaJ+6jdRzZ42EQNUtXZ/PEyy6e2xiVLHYkstvMUoODX2b7qD5Qxf5PAgwt0pJR6ODn2+1kTpXUdFpqMsu81KY7eevtOn5X7aMvDKkrsnn4hTqes1kUW95O1OWtoy2sxvikddocJAAsMlNUqKOx1ovvZBWmqfJhLLOw620fma4qGk85+VXDACzSon3Qyo49djbMNAsJIgETq4OCDjvNHzqp/8RM8jorRb/w8Vp6Fe+d8HL4TwEGh9Qka3Rk5jp4zTbL+0MIIcQM1KRoNMz0Vy8ilrZCCCHmhMX3cE9iTIONuPCfvnkPlxdet+fE9b7r2rVr1+666y4AznTfaKmBmNZIO6712RxJcPD2UfsNB/hCCLHQZWVEhqjXLk81RXBuumuxEYBr164pq+La2OcD6ffCIP2Wfi8E0m/p90Kw0Pvd80XPbHJ0iJkEjtip707BtMkqQQ4hhBBCCCGEEOJrNPPSFTG1q+34vc0Eznqpb2iFrCpsFlnHIIQQQgghhBBCfJ0k0HGzrrTTeMDOR2jJeNLJ1pdsMptDCCGEEEIIIYT4mkmg42Yts/Jam1VZKoQQQgghhBBCiK+R5OgQQgghhBBCCCFE3Lirp6fnWnp6urJcCCGEEEIIIYQQ81RlZSW7du1SFsc92XVFCCGEEEIIIYQQceWua9euXRvbb/ZMd0hZL4QQQtxSWRlqAK5dblNWzVl3LTbCAt6PXvq9MEi/pd8LgfRb+r0QLPR+y4wOIYQQQgghhBBCxBUJdAghhBBCCCGEECJuSKBDCCGEEEIIIYQQcUMCHUIIIYQQQgghhIgbEugQQgghhBBCCCFE3JBAhxBCCCGEEEIIIeKGBDqEEEIIIYQQQggRNyTQIYQQQgghhBBCiLghgQ4hhBBCCCGEEELEDQl0CCGEEEIIIYQQIm5IoEMIIYQQQgghhBBxQwId4qtrs/PU/Wo2V7cra+JK/1ELuRkp2I+HlFWTdVexWa/mcUezsiZu+HemkKU3Ux9U1gghhBBCCCHE1ydRWTC1EL2nXbjddbR1dNJ/FZI0OvS5VkpsNozLlO1jNUDXcRf1x3389ZNOLvQNwCINS9MN6HMtPL3Jiv4rH2N+G2z3UP+Zjg3rs0lWVs4XI+24nszG3a2sANWiFJZqDRjX2SgptaBdpGxxC1xspr4hiPH5YrQJysp5YJrzp1qUwtIVOrQP5pFfaMOcpSFpYpPbIjXDjOmKjjSVskYIcctd/pIvE+7hnruVFWK+Cw2EUKeolcVTiqXtvDRwgQuJ93LvN5QVIi7J9V5YwmHCqFAttM+NVy4TvnsxC63bc8GsZnT0Hi3m+eftNH2uRm+poNRmIz89RMehCrZvrqDlkvIZMbjcirvUwObtDhrbgiTfb6bgBzaeWJdN2tVWmmpslFnycJ0ZUD5zQenyOnB7WxlUVsxHiToKbHZKy8d/Nqw3ox1up7G6mLJSBx1XlU/66obaXLhcXrrCypp5RnH+Nqy3oF8WottbReWzOp7d7qHrNpw/JX1ZHa/VODAtUdYIIW61L96poOKdL5TFYr77tIb131nPmwFlxRRiaTtPnXvjh/zwjXPKYhGn5HovJGFa9j7O9/e3MN8/hsck/G+8/uz3ebHpsrJG3AEzz+i47MVV7aNvuZXXjrqiBjUOivZmU+b2cNhbgalUO/F5sxKgcWcxrtMDpD3q5FWHDf2EQVOIQEMFL+7x4N5uI62hjiJNdP1CEaCrewDm4yyEqSQZyN/qIF/Zn5Eg/pfzsDc4qX7XSu1N3VNKIYZG1CQlQFdHJ4PolA3mn2nO31CwmcMOG+7jNraPqHm7upilE5sIEff+8C/5rP/8R3zi+yErlZVCzCX/+JjK517hD59e4s/PVfJQ4y4enO6b7VjaCiHEHPPl71/kxX/9lC94kd3faeCXBfcom8Shy7Ts38l/+8unhB07eSTTxcZbMbQRszbzjI6rajILbZRsrVB8c6tGv85MWmKI3vM39/XC4MkqfnsqiOpBO1X7lEEOADXa9S5++WMzmRkpDAWjZ3UM0OW1Y99k4HFjCrkGDU9ZzFS6fPRGhwo/c1Kmj+SP6D1dhX2jju8ZUsjNMbBtn5feEeg/42T3pqjyvZHyMb2HzOTer2X/qSBttVbK1mnIvT+F763Nxr7PS0AZmrzaib/aSnmhlu8Z1GQZNDxlsbD/0FQzMgboarCPvy+jjs02O40do33tcLDxfh0H20KEz9h5KkNNbplniteJMtvjj7Ry8FE1uaUueoPNuLfn8VRWCll6DU+tL8Z1UnldB+hw2yh/VEOuPoXvrctjt6uZ/qhz9ZUkaMjfXExmYojuMxPfa3+bi/22bJ7KShk9djbb9rhouxjVaCxvhMGKP9iMq1TH9+7X8Iv/6aMyR01ZbSdc9bLboCbLaMU/9r7P+3C/YmHzWg25ejW5Ri0bS20cPj1d8okBuo5WUF6ojbyXtdnY99VNvg+mMHjWw8GteWzMGTuHkX50KPpxM5I0eZRWe3khS03fCQeuU4pcIhdbqd9jYfO60WPnGCjbGnWvjQkHaKmxUl6oi9w/eg2PF07+tzVljo7L7TTusbAxVxP5N7nJivtUkP4GC7kZGipPjbaL+d4TQog4EjpLzTMlNGgfw7TCxGOaBko21XB2qhRQsbQVQog55svm3ZS+9iUP593HfXkP88X+UnY3f6lsFmfCfHTAxu7/85/Jf+BbmB4J88YLFRw7r2wnbqeZZ3RozJS8ZFaWAjAYDDA4rEZ7782Ep0K0HffSh4aCMhuZN1i4pC3z8nZZdEmIjmoL237bjuphK5t2ZpOaNMC5Fg/1By20dLh4o8ZKGoAKVEB/u4PKdi0F5R5KFwVpqbXjqrVRebUZzg5gesFDyTcH6Dhi56DbSmV6OzWbIv1SqdQwPEDHG8W03Z3Hcw4v2rsH6PJWcdBTzLZLXt7eax7NnRGgcYeZSn+IzEIbtlIdySNBuj50Ub/XTNeVZmpthvF+1FjYVtNOcpaVkq06kq520tLgorK0lX63j9L0Yna8Du7tVbRpbezaYiZ1meEGeTpiOX6IlCGcAAAgAElEQVRkpkP4oo+DW+tINlfwaqkWLjbz3n4H7u0DJDf4KFk9+sq1Frbta0VltPFCWTapI0H++oGNbWe0DEW/ha8iOYWkBCA8cP01B09V8C/lLi5ozGyw2chcBoOf+HjvSAXbW9qpOjI+00iVoIaRIC0HKvjrIgslOzRo78tm5T4PyQdsHO42ULLPjnGxhswE4JKPylILjRd15G+ysyFDA4OdtLzr4qCtlf7aVrZkTVwP3feBDfvnYHrSTv7dA5z70MPvaq10XUqJug8mGzrjoPyFKnq1xWwot5G5GPq7fTQeqaBc0Y+bptLx9PNW6j9y4T/uY0euJZKv46KXys1WGi8bKNpURckqNeFgO/6jLiqfbaa3thmbUQ0M0PILM9saQuiftGEr1ZJMkHNn6qg/aKHtb17e3jNdHwM07jRTeRIyCyv4aa4WenzUv2TmnFENiZH7LSK2e08IIeLKMDz4yh/5y3c+puyB9/n+27Xs/98nGRhWNoyxrRBCzDWLzVQfM6H61028mPATjlSHaelSNoo3YdSP7OL9Ld/ig/If8IXVzf/zzRb+P/m9fUfNHOiYytUgXX9y4drnZSjDxnPrbyLQMdJO19kBSDJjNKYoa2+sx0V1bStDBge1Hvt4YklLMQ8kZLPtmAP3qWJ25aqByCC1twNKjzuvL33JXNyJ/7SDtoZ2bA3NlGSMlqcHOf2BjY9ONTO4yRo1oAvRFTRQc8yBcTRRZqZBx1CPgf3Hq2i0mSlJBy510osO4zNWXnWMLx0oeDIbLHkcPuqh7XknxoRIP1xvtILJSU2tLRKYAZ5em0LZM1UcdnnZUFOM8bsGGhNBlazFuNZ8vd2UYjn+mM9bYU87u9aPrQsyoL3UTPNLzbS0BChZrYWrPg67WxlcYeVVlxPT4rHXzcO9OQ/XMLdkmcRgezuBEVi6Shd5vZFWDu9zEVhkZpfbS9GK0YaFVvJXW9j4iodqtw3T9kjwJilRDeFWWsJO3q6xjr+n1Wa07siskczvmjGNXsOhzzoZTM+joNTJq5vGl7UUmVIos9hpfNeHLWs0WACR4FRHCq82eCgYS5D7jJnkTXm4jztpLDdTMvYeo420c3ifk64VFdQeqUJ/PdlqMQVGNZttHqrftmHaOhaEunlJxjz0SS6aPmnn3IiFzIQQbS47jRcM2I76KM0YC9wUU1RowG6xcqTaQ9EhG2nhVnwfBlBlOfnlXtv4+Vtvw6gp5vD5TnpHzJEgkVK7i8OnBkhe5+G1A2P3XjH5D1ZQZnMRZop1Z7O594S4gdDf+7gQGg+1XrgChAY519N7vUydmMyS5cmjfw2EmAO+sQbTI8Dwx9eL7n1kLfdOaDQqlrZCCDHH3POQiXuA61mm7r4P00MT28SfxXz7kW8D47k5VCtMPDyhzZ3x3nvv8fTTTyuLF4TYAh1nHWxeX0XXMLBIi3GjizfKrWSODnpjM0D/vwOLtaTF+PzeUz66w2oetlgVu2ekYCo0k3rMRdvpVsjNu16jMljIjx5nrdCSlgBdq83kR39rvFhL2hL46FKQfpjwzXXa2uLrQY4ILaYcA6rT7XR8PADpKbDEjK1GMQNmJMQQWrTL1dAWpD8MLIL+Uz46rqoxFRZPCF4krang1do8BpfoYs/QG8Pxr1tkpuDRiYPQ5HQdSxN99F0IAlr4pJm2S5C63oIx+nqpDBQVZuP++Ctuo3o9eFbHYFI2JRtGr123D//nkFxoxawIICxdV4xxr4+W0z4C2w1oYTSPiZqHC2eXnyLJWEFVbcV4wQgwHGLoXi1pKui+GKAPJlyftHXW8SAHkXNgXqvD3dFKR/sArJgicNftxX82hPbZPNKuBOm/ElWXYcaY6qGpxUdg62g/vgqVhtRlwOg9zEgr/hMBVJlWTEsG6J+wTCYbk0GN/5SPtks2ihZFZkCFg510XSJqhoka43YvxuinKgRaW7kwnILpUcuEc5+cW0HRwx4OfhRVOGY2954Q0+ql5kdP89NTynVjb/JP+jfHHy5/hj927GRtbH/xhBBCCCHEPBXbx74l2RRYK9APBun9pJmPDtmpvBRil8NG5s1uBzoS+yLT3s86CSdqWLlqim+I03VoE6CjJ8BgVKAiaZlm4nR7lZokQLVEQ/KEYIk6su3RpKlFatLSJw+6UjWR99AXDAKRAe7QZ17e+q0Lf2srgaCif6rQ9dc+F4j0I23SwDgFbdZ4kCZWsz3+dUs0pCojKqPnZ2g0j8VQMED/sJqM5dpJW5cuXaUlOZY76Wod9jV1ytKIZdmUHKijdE3k4VCgkwvDarSrdJOOy906tBrw9wToHWE86JWoZeWK2X9323vKeX3r5N7LE8+XalL+ETVpqycnNE1L16Kik77z4/dBtKFAJ4FhCLstPOZW1o4J0hfdj5sWIhwGEiLXkIudBC5BOOhgc45D2TgiMUhvEFiTx4bn8/AfcLHN3Izxu2ZMWXkYc/PIXHbjc9oXDBBO1KBNV7bT8oBeAx9N8W99FveeENNbyvd/to815WOPw7S4XqHy72Zqd63l3rHfS+pUHorld5QQQgghRBxYqLM5iDnQoTFTsnNstkCIwBEr5b+owL5Ix7uOvMkD0RvSsHQZ0BOk99+B6G/IZzB0NQSkkKQcIDE+SCIcmpg34gY9ne37Tl6kHMBBkkod2dkjPDqIO+9h92Yb/is68kud2Iw6Uu8GCHF6nwV3x/hzhwZv0I+bFcPxYxEe7Z/q7snngMTRcz5biQYKXrCwMvqaqFJYmm7AmJNNWlTQLHw1ctxk1RTHTVBfz58SHh6bzTE6wJ/lGxo8aaP8xx76l5vZsN2OKUODKhEYbuUtm52pJiHM6j5QGOuHdpOLresmB4sASBzNG/JVXQ7QewlU92tITQCuhAgDKmMFPy+fLr+GmrTlkf9mlnl5O8PF4Xe9tHzo5KDXCYkpaHOt2F5ykD8pkBExdDU0ek2UNZC8OAUV0yV3FeJmqVhpypm4u8rv9qAOr2TtE4pyIYQQQgixYNxg+D8TNdqNFRS4vRw+6eWvr+RNzPswkwRd5Fve7lZaTgUpur5GfypBAp+p0a6OfFOelDw6qLyqbBeVxHIs4HELhYcmD2IjA1s1SaMBgMAxF/6LakwOL1WjyUwjgnQpBoBj/Ricqh83KZbjx0I1GmgIX5l8DrgSYnB44jKfG0rSkf9j+6TtUaeiWhS55oNTBRBGQpEAjColEpyIWZCmQ3X0Jhiw1XgpHc3TAkA4SLJy5suo2dwHSmP9YIkBU85Xz8NxI4N/8tERhqX/d3Zk4cfd6sgSqAQtmTl5N87xApGgR24FO3IrYGSAQFszpz90ceSok//XBqneKvRT3EtJKvXoNVHWwODlSLBFCCGEEEIIIW63GbeXHTxZQZnFwO6GG3wbe1NTzNUYCy2kJQ7QUltF23iulkl6j9oof0JH+ZHIlpMrV+tQDQfp+mzyexr6vPN6MstZD7xnJUTgs8lbXvb2BAgDqZpIUKH3fAASdTzwoGKZy+VW/to9cYC8UhvpR2BSPwbo8Lqob2iO5FiIQSzHj0WSRsvSxBAX/haYtMNK4PPOSWW3SpJWizYxRG/3FMe40kngPKi0OtJmETSZZCRAbzAEy7LRK3b3GGpvpWPSAYncB4Ep7oPRLZbH7gOlpNU6tIlwoaN9imsaYlCxZOamXW7GXetjUGWgwDK6/GmZDu0yCHe30jVFUG3osmJ72WgJKWizLJS84qXqWR3hHh/+s8pGEakaDQwHI+d0ggBdHZPPmRBiZp++/zrv/uXL0UBhmC//8i6vv/+pspkQ89rZQ5W8+ecLRP56hLjw5zepPDTNHxsx78n1FkLcCTMGOpLTNfBZJ82HnJOCEf0nPfj/Bsl6AyvHBprhIL3d7QTO32DwNCopx45tnYbwZy7s5XZaepQDpAG6jljZtsdH33ILG9ZFBpFLcy3oF4XoOOYhMCHIEsTv9dGHjvy1t/5b896THlqiz8FIO/6TnbAoG6Mx8k1+8uIUIEjvxei+DNBS7eSj0a+0x77xvt6PBg9d0V93f+ah2lGB68TY4HB0lsCQYjnOFGI5fkzuz0afDH2nvRPvg6utNHpbb9+39RkWTBkweNqDT7H3dO8xD21X1WTkm2eXsjJxbBbI6OOEFJIXq+FykP7oPl1u5a3X6xhMmmIJFNB7om7yfXCik3DUfTDJagv5a9SEz7g43DbxPh9qc1Ceo6Xc3TmhPFZD5324yq0c7gbtM1WU6EcrErLJz9fCJS/1RxTHuORj/3otj2/10E9kC9yytTp2H1cG38b6pZ52qVWawUBq4gAfnfAxGFU+eNrJe1Pl5xBCzOi+h77Fn3cWYnvvUz59z0bhzj/zrYfuUzYTYl5b88hK/D96mPXus5x1r+fhH/lZ+chosi4Rd+R6CyHuhJkn/K+uYGupl20uJ9st7eSty2blYuj7rJnmE630LcrGVh61w0WPB7vFQcDk4ve10duzTkVDwV4vfeFifnvSybbCOrTGbB5I15AUDhJob6btswFUq4vZVe0kfyyPxworW2x1lB+sYltZkA2F2aQyQNdJF/X+AbTrXZRON+C8aWoyNQH2l1opWm8mbdEAXced1HeA9lk7BWPb1q6zoD3kpGmvjbSLFtII8NfjLloW2dmyfoDd7laa3B5SHzVj0luxPV/HtmoH2zd38sQ6A8mXO/F76+hIjD6vGtI0EP6kDle1Gv0yHfmbpt5mNqbj36989g0sMlOyyUBzjYfdpaHRcx7kr8fr6F1tJu1zn/IZt0aCgZIdFfjLnfzqeQuBTcVkLgnR1+Gl/kgzQ3o7WzdPTg46mZq0ZSkQbqZ+bxWDazQ8YLGSn2/A/bEX10sOwk8aUPW14n/Xy6DFScmIFVeHl8NHdRSZLKPnW41+dSfVz1vpWm8mLWmALt/k+2CSBB0lO234X3ByuDyPvs1WctLVDHY30/huHV3Linn10dn0Axhqp+nXDrrG/vUOD9D7eSsfnW6nL5xC5noXVT/Li/q3p8Zoq6KoxUrjATPl520UGLRwqR3/URctQS0bXhndKUWfxwOLnBx+2czgx8XkZGpIIkT/J14aGzpJznJijl7iEyUp28YGfR2u4xVsU3VSlKWFHh/1DQEeMBu44FMGT4S49R77jZ//UBbOZ9on+WXNl5T+oJJP+TavHnXy5Kwiu0LMI/dtovbdCzy+9qec5UFe/1//yiaJ58Uvud5CiDtg5kAHavTbm6nNqOKtBi8fNThpugrJGi2Zj9r5aZmd/IyvEFRYZKDE1UrOCQ/veb20dTTTdGYAFmm4NyOPDS9ZKdlonpCgEtRk2rzUaJy4j9ZxZI+HQdQsXZ3NEy+7eG5j9gwBlpuTttFFyaUqXIcq6OgJkaTRYbJVsaV8fFCZZHTwy/8aYv9vvbhf8ZKk0WE0V1Gz1UJaEE6fttN8xMFbd+sw6bPRl3up0VThPuKl/nUvQ4katEYbu8rtFOlHz2uCgae32mjb46HlkJNzhgqMG83jyTejxHT8+2O5bmoyf+ylSmXnrQYfR/Z7SVpuwLTRxS9zW3nxpG/qPBq3QHJOFbUeLS6XB//rNuqvQvIKA/pnXZTarLPc8UeN0eqgoMNO84dO6j8xk7zOStHzHn5+tQJ3g5PKU5C6Ko+80jpeXW9gMN2K3+Gh6dcOkpabKQmHIDGFzGfrKOqxc9A9/X0wlaSsKmre0eF2eTh9xE7zJUhK1ZH5z1W89kIFpumCJErDnfhrq8YfJ6oj/x7XVVC63kZRzhTJTpdZ2PW2j0xXFY2nnPyqYQAWadE+aGXHHjsbjKM5RBblscXtJc3lxHfKxcGjQcKkkJpu4OEyD889Xzz9rjAJBkqrvbDPQeOHVfzqgxTuNVh4+oAXY6uZJp96Vr9xhBATqTKf55c7/o3XE3/CZhkMxBk1KRrN9TlzNxZL2/lHrf8Jtf/1YyoT91A+y7i/mL/kei9Ai+/hnsRppgXHsf/0zXu4vPC6PSfcde3atWt33XUXAGe+Qg6HeNZ/1MJTLzdjOhCkqjBeP2IIcft07NVRdigFW0Pr9a2DxcKVNRocv3a5TVk1Z9212AjAtWvXlFVxbezzgfR7YZB+S78XAum39HshWOj97vmiZ+YcHUIIMSuXfLi2minf452Qo4OrzfhOBSA1G/2q6AohhBBCCCGEuPVkIrkQ4tZYoiNtuBP3OzbK+1opyNGRHA7Q5nXR1JOC6WUbRpm6J4QQQgghhLjNJNAhhLhFtBQd8JHsquKwr47fngxCgoZ77zdT+ms7z8022aoQQgghhBBCfAWSo0MIIcQdJTk65o+FvsZX+r0wSL+l3wuB9Fv6vRBIjg4hhBBCCCGEEELEpbt6enqupaenK8uFEEIIIYQQQggxT1VWVrJr1y5lcdyTGR1CCCGEEEIIIYSIK5KjQwghxB0lOTrmj4W+xlf6vTBIv6XfC4H0W/q9EEiODiGEEEIIIYQQQsQlCXQIIYQQQgghhBAibkigQwghhBBCCCGEEHFDAh1CCCGEEEIIIYSIGxLoEEIIIYQQQgghRNyQQIcQQgghhBBCCCHihgQ6hBBCCCGEEEIIETck0CGEEEIIIYQQQoi4IYEOIYQQQgghhBBCxA0JdAghhBBCCCGEECJuSKBDCCGEEEIIIYQQcUMCHfOYf2cKWXoz9cGowkvNuG0GHjeoyc0qpulSVJ0QQgghhBBCCBHnbi7QMdKJe1MKWRkp7P4gpKydtaHjxeRmqMlS/OQatTy13szu6jq6LiufFZvBdg/uhlYGJ5QGaHE7aemZUDgnjJ2TzTWdyqpJUjPMmHKzSVONl3W8UYHrZIBvfNfBlq3FZEbVCSGEmKcuf8mXV5SFC0Dc9zvEwPkBZvdJKpa2c19oYPY9iaXtXBdLX2JpOy8NXODCP5SFYv6L5XdVLG3nuNAAF4Kz7EksbcVNu6lAR+DtCg633bqLk5pjo7Tcfv1nw5N5aMPtNNVYeb7UQcdV5TNmr8vrwO1VBDqCPg4fcOI/H104/+jL6nitxoFpyVjJAOc+D4Aqj5KX7WzYZEG7aOJzhBBCzD9fvFNBxTtfKIvjXtz3e/gkP/3nn3JyWFkxhVjaznWf1rD+O+t5M6CsmEIsbee6WPoSS9t56twbP+SHb5xTFov5LpbfVbG0nes+/gWPb3mfAWX5VGJpK25aorJgRj0uql2tLNUbGOqYedbBbCw12rCV6yYWjgRoLM+m8qSL9/5kR/+oemL9rATo6h6AhImlQ5+00zUCaROLv5qRECTczHu8xYaBBDXJi5UVQggR//7wL/ms//xHfOL7ISuVlUKIr98/PqbyuVf4w6eX+PNzlTzUuIsHv6FsNCqWtnNdLH2Jpa0QQogpxTijI0DjXgcti61sfVZHkrL6VkrQkpNrQEWI/mB0Egrgaif+aivlhVq+Z1CTZdDwlMXC/kNRMzc6HGy8X8fBthDhM3aeylCTW/YbvOUp/Bebh8HhII2larLu13GwbexJIQInqtj9rIHHjSnkGjQ8ZTFT6fLRO3L96DDSzMG1anJLXQTanWx7VEPuw8W831TBU/erecrRzFBU8zEde3Vk3a9j/+lbMxtmQo6Odjsb79dQeSoEV73Y9Wqy9BYaL442vthK/R4Lm9dpyNWn8L0cA2Vb7TR2SCxRCCGEEHdA6Cw1z5TQoH0M0woTj2kaKNlUw9mpPhbF0naui6UvsbQVQggxrZhmdPR77fz2VApFrzswUqGsvuX6gkHCiSmkrdZElQZo3GGm0h8is9CGrVRH8kiQrg9d1O8103WlmVqbAdKL2fE6uLdX0aa1sWuLmdRlBjJZxf+12E5lQxDTVg9P69WkZQCE6Kq1UH6glaX5Nja9ZCAtYYDAmTrqD1poOevijWrr6CwQNaiAq628tacdTBW8sELLt006Cla5cJ+oo21nHqboZSMjzfhPBiC9AnP2bZj5scrKDpeBlmobh7uzKT1QwQMqDZnfBC56qdxspfGygaJNVZSsUhMOtuM/6qLy2WZ6a5uxGW/DexJCCCGEGDMMD77yR/7ynY8pe+B9vv92Lfv/90kGppq2HkvbuS6WvsTSVgghxLRmH+i45KX6gBfMHmxrU0g6qWxw6wxdDtB1wsn+I50kZzkpyYkahF/qpBcdxmesvOooZuloccGT2WDJ4/BRD23POzEu1mH8roHGRFAlazGuNY8GKcw8kF6FKnGAVIMZU87oC5z3cPD1ZpIL66jdZyF57HgWK6ZleTxfW8XhU8XsyFUDapISIPyJj/6tzdSUjS+7URVmc+SAl8aTVZgKU66X0+bD/zfILC9Gr1hKc0ss1mHM1dD7NpCQQmauGZMKIESby07jBQO2oz5KM8bOZTFFhQbsFitHqj0UHbLd2qU8QghxB4T+3seF0PgcugtXgNAg53p6r5epE5NZsjwZCecK8TX7xhpMjwDDH18vuveRtdw7odGoWNrOdbH0JZa2Qggxg/fee4+nn35aWbwgzDLQMUDLATtNIxZe3TkeXLhVuqoNZFUrChNTyHzSRe0rVrTRgYElZmw15qiCSH6MIbRol6uhLUh/GIgxCWf/KS8dQxrycrMZuhikP6ouNSePe2udtJxuh9zsqJpsCp6cmFtEaylG76qg7biX/kLr6LkK0fahl96EbLYUGia0v+1GWvGfCKDKtGJaMkD/2FIWALIxGdT4T/lou2Sj6HpSUyGEmA96qfnR0/z0VFhR/ib/pH9z/OHyZ/hjx07WzvIvnhBCCCGEmN9m9bFv8LSDau8ApleqKIheRXKLpObY2GAcf+FweIDBnlZaPrBR1t3Klr1Oiq7PRIChz7y89VsX/tZWAsqteVShSELOGJ3r7iQ8HKRpu5YmZeUoVTDAENnjuUmWaEn75sQ2aIop+q6D3X+qw3/eyoYVQLgVvz+AyliBOV3R/na72EngEoSDDjbnOJS1EYlBeoOABDqEEPPKUr7/s32sKR97HKbF9QqVfzdTu2st9479hVOn8tCs/toJIYQQQsSPhTqbg1kFOq42497rod9YxWvrtcraW2Kp0UapctcVYKjbxYvPVvCr7SmsbKhCr4osMdm92Yb/io78Uic2o47UuwFCnN5nwd2hfJXZGQqHIFFLwUtOilZNM8H5m4oErCo1qujHAKSQ/6SF1BN1+HwBNpRpGWr30hJMwbTl1s+GmdGVEGFAZazg5+Xm8SU5E6hJW64sE0KIuU7FSlPOxN1VfrcHdXgla59QlAshhBBCiAVjhkBHiA6XnfrzOja9ZEYVtaQjfCkyk2JwMEj/RTVJ39SQfItzTyRlWCnKcdDi8+E/W4XeAIFjLvwX1ZgcXqo2RQdegnRNjjrMWtKiFCBE8iozxrG8HTcpKaeYguUe6j+oI1BaQd+HPnqTzWxZG5Wz4065ezQYk6AlMydP8nAIIYQQQgghxP/P3v3HNn3di/9/Voliiy7IXMLkpkyYUpGU+3FlWk/JHH2yJJ+xmDZL3ZEWX7KipEs1a5kg0MHcL4WPV5bhwUZDPmQfV82WqCyZC6QfN2Or0+qSXK7Igj5ZGzXfW5KoLY7Kgm8hF39Jy7UjIr5/2CH2G4fEQLmJ83pIluCcl3+c8377x3nlnPMWSW2Gy8v6+bB3gNDVPpoqs3kiX3fj9vRLHsYI0v1yNk98O5f6HuV975Zg+BZZjjJy3gep2Ty6VjG75EoPHw7d/rW3Vq7SoboWoL9/QFkFEwHGrioLb0FVQHGJgdBZD50fddHZ6SPju1byFisD74Fl2eiWQWioh8E4bRi/IpeXFUKIuerjtw7z5vufE96FJMTn77/J4bc+VoYlnaRvd+AkDQf+wrkvIv//4hxv7WvgZLyv5ERihZgHzh6p5Xd/vUD4V3uQC3/9HbVHzirDxHyTyGdVIrFz3V9/R+0fz964MtJ/+k7ScOAtzinjSDBW3LEZZnRoKdzpZuUVZTmEPqjjfzb0oLc1U27UkLlmssLPyLCf8UU6dMvvbAbD+JCL46eDkJ6LfnW4LH2xBvAzcjEIj0wuMQnQfaiOv0X2owvd2JcuUj8eZGpP/kirrwUJXQ3eiFlaZEG/v4vetjq6N7ow3divIoivyUrV4QBlCVyGNctiRd9ox7vfyRcXdRSXFMQue7lXUnIpLNRx/IiH460DFEZdIYbLXg48a6V7TR1vHJrcOFUIIcRc8fBj3+BwVQmvA1dSbJS4/xu7Gjcqw5JO0rdb8xhrv9hAnukC6gtBuk1/4YFnjtMW72dTIrFCzAOPfGsltaWP8xsgkLqBx19/jF+3/1AZJuabRD6rEomd6/SPodn3JI/51ATG/sL/+O9qin77Z25sHxYtkVhxx2ZIdKjJNExellXhmptaYOkjZkz5UYP/4WbsFgc+k4s/N1ZMsydErNGeOlyhqF1OrwUZ/XsPvf/Sw8i4lkKHg8LIbIisdRZ0R+ro2Gcj86KFTHx8eMJF9yI7WzYE2NPUQ0dTMxnrzZjWaMnUQugjN65DavTLsincZGapVksaPXQ32Wk5ryPDaKNYX8GWn3ioPtjMnucClG00szI9yMgZN8ff7oGcOsxrZ5fkAGCFldIcB7WnemC1neJZJkgmjZ52Un8l/s6vmUV2ynJm+0mgxmhzUtpdQftBM9XnbRQbdHC5j86jLrr9Osp2WyTJIYRICk/8tpP/VBbOZ7qn+FXD51T+Uy0f84+8crSOp76a7bLmlqRvtwbTz9tovGhiw/++wMp/aqPt5ybif7MnEivEPPDwJhrfvMCTRT/lLGs5/K9/YNPDyiAx/yTyWZVI7Bz3tbVUt/6BC0X/g9qzD/DEG//M4e9Nc0HoRGLFHZsh0XFvXDrTTNOZqIJUNelaHVlFNVRuqqE06oosaUYHv/plkAOveWja7SFNm43R7KRhq4VMP5w+baer1cHv78/GpM/lma02evc2032kjnOGGowbzWSus1O5boCmU800+bMpXl5BsV5DVpWHxhV1/P4NN3865JsQT+IAACAASURBVOVSCDKW5/L4j9w8b7PEXuZ2RloK1xfw61Nd6EqsZCV0X7jU66alV1kKoEavtSWQ6ACWWdj1hpcsl5P2U3X8ui0Ai3To1lawY6+dMmMCjyWEEOKeUmW9wK92/BuHU19k8wIaDCR/uzU8sf8wL146SdH+J2b4gZ9I7HygRqPVTs67nUEisXNdIm1JJHb+UetfpPGXH1Cbupc41yMQ81Yin1WJxM5xXzPxi9d+ga9pJYf/aYbERSKx4o7cd/369ev33XcfAGfuYI8LoRSk12Gg2qNjh9dLWfzJGUIIseDkRC4Xfv1K3GzunHTfYiMA169fV1YltcnfB9LuhUHaLe1eCKTd0u6FYKG3e/iz4Zk2IxW3a7zPicvjI/N7NRRLkkMIIYQQQgghhLgn5sTSleQRoP+Emw+Heuh4083gYguvVJtntU+JEEIIIYQQQggh7pwkOu4qPx+22qnvV6Mz2tj1klNmcwghhBBCCCGEEPeQJDruqmzKWwOUK4uFEEIIIYQQQghxT8geHUIIIYQQQgghhEga9w0PD19fsWKFslwIIYQQQgghhBDzVG1tLbt27VIWJz256ooQQgghhBBCCCGSyn3Xr1+/Pnm92TNDQWW9EEIIcVflrFYDcP1Kr7JqzrpvsREW8PXopd0Lg7Rb2r0QSLul3QvBQm+3zOgQQgghhBBCCCFEUpFEhxBCCCGEEEIIIZKGJDqEEEIIIYQQQgiRNCTRIYQQQgghhBBCiKQhiQ4hhBBCCCGEEEIkDUl0CCGEEEIIIYQQImlIokMIIYQQQgghhBBJQxIdQgghhBBCCCGESBqS6BBCCCGEEEIIIUTSkESHEEIIIYQQQgghkoYkOoQQQgghhBBCCJE0JNEh5qXRoxbyV2uwnwgqq2425GSzXs2Te7tuFHXu1JCjN3P8fExk8phssyNOm/0xkffE5PHa884sjpcQQgghhBBC3IFZJTq6d2vJWa2Of1tjoL5PeY/ZGT9hJV/5ePFuegvtF5X3nnt87zg5fuYrGEVOeKnNU5Ozzk7/hLJyykhjAfmrNWxrCyirvnoTfbhKwscr/7k6RpT10fzNbDOEYzc3DChr777FOvT5Zh5fpVHWfKX6DxrC52++je6rytp7L2O1GVN+LpkqZc3dNdbXTFNbD2NRZWlaA6YiMyuXqaNKhRBiBqEQoZCyUAghxLxz5XM+/1JZmPxCFz/nyjVl6QIwB76/U5UFNwsydiUIqmyKKy1kpiiqUzUYtYqyBGXkVFCsv8UgNDWblfcrC+eYiT68rznpzDdTlnOHHTKfpUKoz03HUA2Vq5WVYSPvufnbuLL0K6S1sqPBqiz9al3twntiANUyLWmXPLSfdGIqucU5fg/oq9y8qiz8Cgx6HDR9UkPxhlzSI2Xp+Q6c+YpAIYS4pRDd+56kNvUV3nrZxFecoxVCCPEV+uyPNfws5Ve0Vn1DWZXEruB5uZLPqv/MTx9V1iWzufH9PYtER4DQFWBxLuatDkzKRMddsDS3hi3V2cri+eVKH4O+ICzwwZxqdS6rfT14T/RRud2grAYG6DzRA4/kohvqUVYmjbGTzXT4NZhedpDWYKOrzc1oiY2lysCk42NwKABfweeEELPxlx8XsuHTH/KR9wesVFaKeeXzP/+Mn/3hYz7jZ+z5Zhu/Kv66MkQIIYQQc8xc+f6exdKVAGNXgUWaG3+d/S93dYDOQxVUl+j4jkFNjkHL0xYLB47ETpcnMo2+vrqAp/M05K/RkJ+XTVW1nfb+8PKO8TM1PL1GzdOOLuJNMujfl03OmmwOnJ5+b4GRpgLyc8LLE3yuXHJWa6hyTS3JGO11ccCWy9M5GvL1Gr6zLpdte1303ovlOCEf3Q0VVJdkh/tKr+XJEjO1Li8jyulEF3s4vtfC5nXa8OvMM1C1daqvZiW9gLxcNb533PQqHx/grIeOj+DxnNz42b2rA3Q2TB5bDflGHRufq8D1zkDc4wMBBo/WUF2iC7/molzs+934op87zh4d8QXxvedkz3MGnjRqyDdoedoS6atbLBm6mZ+ONg9j6WYKS6yYi7SEet20f6KMA8462LxGzcZDPYyccmDfkM139Bryc7Kp2u6kO3olVCKxccTfoyPAYJsd+8bsSH9ns9kW55jP5j3X72Djmmzqe4OEzth5erWa/KpmxqbdoyPAoMeOfVOc/o4+fhM91K9Xk1/pYsTfRdP2Ap7O0ZCj1/L0Biuuk76oYCFEMvi8aw+Vr37O4wUP83DB43x2oJI9XZ8rw4QQQggxh8yl7++ZZ3RMBBn7MohqsYb0lMj//yMAi7Wkxx2pftV8tO8wU9sZJKvEhq0ym/QJP4Pvuji+z8zgl1002iIzCT6pY1uFnaEHzJRV1qHLgHF/H6fbXNRW9jH2ppdyYwXFD7loes9N784CTIuinmqii86TPlhRgzl3+r0FMtY5cU7UUXvQQ5q5jh0WHekrdACMnarhx9UuLmjNlNlsZC2DsY+8HGutYXt3H85WF6Ylyke8WwJ0/8LMtrYg+qds2Cp1pOPn3Bk3x+st9P7dwxt7zeEE1kUPtZsraL9ioHSTk/KH1IT8fXQedVH7XBcjjV3YjNP3wQ0TGozrCkg/5abjjANjfux9+v/kZlBlZleehuPNMVUwMcDx6gIOnAH9UzXYqnSkj/vo9bhoetFLv7+LhsrYmT+X3rFh/xRMT9kpvD/AuXeb+VNjBYOXNbyxL9K2WQky2Gih+mAPSwttbHrJQGZKAF+kr7rPunj9UAWZyrvF80kz3t4gGSVWCherocRCZpsL79s9VG7PjY1NUUMKfNHtwN6ppfhHLiqXqxnpdeE65MA+FKDhqBP9ogRjZyVIf4OFbQ19pOdUUL41m7SrA3S3uait7GG0yUulXj3799wKKzsOQ9N2J706G7u2mMlYZiAdGFU+NUH6D1nY9lofqscr2LQzl4y0AOe6m8P93e/i9YbJ/laTlgKhi17qt7pJN9fwSqUOLnZx7ICDpu0B0tu8lK9SPocQYt5abObQ2yZUf9jEz1JepPVQiO5BZZAQQggh5pQ59P09c6KDAGNXILS4j2Nbc+k62celUHhvjswcK5XbHZTean+Nu+3yACNkY3y2glcc1htLAYqfygVLAS1Hm+l9oQ5jCvg6PQyN6/iew82WnKkBd9l6A3scHkY/9cMqA+aSXFoPxtlHoddL598hq9qK/hZT8dOW52Iy6Eib/Hd+JNEy0UPLfhe+RWZ2NXkoXR65Q0kFhassbNzdzKEmG6a4SzzuglAP3nd9qHLq+NW+qGUTG2wYtVZazg8wMmEmKyVIr8tO+wUDtqNeKldP9pWV0hIDdksFrYeaKT1im9VAf2lRBab9VrpPeBnLt0wlG0JdeN8bID3fQeE/DHA89m6M/smB63QAXWUXv30pl7RIeXFJAenPFtDS4KDD4qb4RmIoSH+/hlfamileFil61kz6pgKaTtTRXm2mfLLPZ3K+mfrDXaSXuGncH/WaLRWYlhXwQqOTllNWdigSN/H0t7npn9BRVlIQboPRGk6mnXDTW52LMU6C8NJHAcqOeil/JPz/LH0umVcG2NzQTMu7dpyWqfMykdhbGnbher0HTHU0NE4d22eKNFQ966TF5aGswUr6bN9zi7MxfttAeyqo0nUYi8zTny/DLg419jBucNDYbEc3+f6yWHk0JZdtbztoOmVlV3R/f9oDe/vYtWFyDxwDustddL3URXe3j/JV4eSiWFiC/36JC8Gp+V4XvgSCY5wbntoSWZ2azpIH05n53Svmiq8/ZuLrwGeTBfc/jOmx2BghhBBC3NqxY8d45plnlMVfmbn0/T3z0pVr4UQHQ166rxgo2+nilUMutjyXCx+4qK200HR2+mUdszF4KHJ1iri32GUgLDFja/DSEDXgYiLIODp0D6rhP/yMRqa9p6WEX7/vI1/ssocVFbzS5GHLuvCASWexol8UoPeEJ+ovz0F63/UwkpJLccltJiKGvHR+CunfrsCsGHAvXWfFuAgunPbyVU68VwEh/wCDl6NL1Ri3e3j1YA1ZKeGETOd7PlRZZkxLAoxe9E/dyMVkUBPq89Ib8xi3sMSMuUjLpZNuuqPuM37GTdfftRSWmMOzg2IE6O30MqYyYN4wleQAYFEuxesMcKWL072x51rmuoqpJAeAyoC5KBtCPfT3zX7JzegpD/3jWvT5uYxHt/9igIy8Ah7AR/fpWVxe6KqX9hMDsMIyNQsoJRdziQGV3037yfivSbXGQmEkcTEp69sF6FID9P8tdi+TRGJvZfSUl/6raowl1piERNojNbzS6OXVrQXh5UUJvOdma+SUl6GQmsctFVNJDgA0mErMZOCn97SiLYvMFK+P3eg3fUU2S1ODXLoww7odkaRGaPjhUzykL71xq/o/YwTf/x3/I6os8zv/m+6FuOO5EEIIIcQCNfOMjtRcnjngpnBRNsa87Km/dK+vwGyooOpFNy2HPZQ2RA2CEnTrq66oyVwbO7gZ/8TD719z0dnTg8+vSLKoghD5QZtZUkPx0Qra9+Wy0WvGlF+AMceMca0udqCttVL6bQd7/sVN5/kKypaHZ0N0dvpQGWswrwiH+U7YORY90E7R8OgmB8XTTJkf9w1w4Zoa3UPZsQN3gPuz0Wmhc9jHyARkftSMq62P6PFiRr6dyqI7uIKLqoCyFwroPOhim7kL47fNmHIKMOYXkBV9mc+LA/guQ8jvYHOeI/oRpqT6GfEDs1pmo8ZosZD5djPe9/wUP6sFgpw+4eWS1kJxnhqGFXeZ8HFuOHx1H12kv6OtXKVDxQAjwz5gcvmKmsxVN29im7kiHHvpvB+Y7ryKdW5ogNA1Px3bdXQoKyNUfh/jKJIwCmMnm+n0Q9bWiphZQLr1VvQNdrrf9jC6vuLm98qD2TfPftDqyEiBCxf8jMHUey+R2Fs45xsglKolc7myjzTocgpiSmb7nputkU/Cz73yoTjn94psdCnQP+yLbcsSLRnK2TAqNWnAeEJ7qIjksZTv/z/7eaR68v8hul27qf13M427inhg8htOncFjM3/bCSGEEEIklXs5m2OumfmnX4oW/TqLshSApd+1Ufigm5beLgYnrLd9RZaErrpyvpk9m210fplNYWUdNmM2GfcTHkjvt9DUHxW7zMKu1i6Mb7hof8/Dnw55OA6otLkUv+Bky3OTl7/UUPiUhYz33Hi9PsqqdIz3eej2azBtmUrgXOp1c7w16i/HqVoomj7REboaHhCmq+JMmE5Ro1Kp4VqA0DVg2MvxVk9MoiNrSUVsomOCmHqlmzfrVJNV5eGN1S5a3vTQ/W4d9Z46SNWgy6/A9pKDwhVq+DJICFAZa/h59XT7WqjJfFBZNr20yHKNVo+bkWdryLzsoeNf/Og2WOMu3YAg41+GB67pcc7KNJU6EhM7yE5fdHPf3ogNzX6m0XgoCKk6il+qo/Shmx8TgH+Ik7CK4aOjzctYqoY0v4emhug6PyyBsdPNeIcrKFckc9LvDw/YY6REyiaCMcc2kdhbGR8LAhrS4h6PKIm852Zp/OotnjuSvCA0+7aIhUrFSlNe7NVV/rQXdWglRd9TlAshhBBCiAUjzpAyASka0v9BDReD4cH6bSY6EuF720XnRTUmhwfnpug1+X4G4w2alhgo3uqieKuLcX8fvac9tB9x0b7PwiVVD68+G36MtDwrxQ82c/wdN77KGi6962Uk3cyWoqm/dhsdPs5MM+EhHtWi8H3H4g24J4KEQkFQaVClQlqJm1MlyqBJGtIXAVf8jN2in8cu+gmhJn1x9EBdTWZ+DTvya2AigK+3i9Pvumg9Wsf/tEGGx4n+fnV4iUKKjqy8gptnC9yOlFzM6w00udx0DNVQ2u+m96qB8u8pNuO8QU36/cDlYNw2jn0ZDG9KeX/s7IPQ+M19G05wqEm7f5qERRxpizRAkPSHzBjzlLWzNOSmvTcI14L0v+kg/vi/hw5PH+VbY5dDhSKD+pgERigQHuhPDvwnixOIvZW09HBCaOyqsiZWwu+5WZh87vF4z30bbRFCCCGEEEKISTPu0TE+3EX7kTo6+m4eUHJ1gHPng/CAlow7S5nM2sh5H6Rm8+haxcaDV3r4cCjOa4ySpjVg2uDA+boTU1qAv53smro0pqqA4hIDobMeOj/qorPTR8Z3reQtjn2MRKTpdOhSg4wMxbk06pcD+M6DSpdN5jSJixtSsslarYaxHnrjHQfCS21On/aBysCjj0wzwE/RoMuxUL7bg/O5bELDXjrPAsuy0S2D0FAPg3EGnuNX4u8rMRNdiRU9A5w+2UXnO12Mr7HetLfEDSnZ6FZo4OoAPuWyFmDk0wFCqBVLHYL4fDfvcDJyPlyWoZ395pQrV+lQXQvQ3x+1H8ykicgllmfQ73EzGNJQeNDPmaHgzbdeN8XLYPDEzZfeHR8eYGrrxIi/h5c1pWt1MbNsEom9lZW6bFTX/Pg+Ue5vEaDf4+J4Wxejd/iem87KVeHnHrzpuWH80wF8E7D0oailckIIIYQQYt75+K3DvPn+55FZ6SE+f/9NDr/1sTIsyXyG97U36L4Q+Z187Qr/1n6YN99Xxomv0oyJjrQrXbTss1O7r04xCA4y2FRH10XQ5VvCm1oChPyMDPXhO397g+OZpC/WAH5GLkYPsAJ0H6rjb5HBYyhE+JKY2w08ucnJoHK9RyQpk6aKzGSIyLJY0af04d3vpOuijuLJq2YkIGa5xGoLptWR5Qrno6Ng5O1meq+qWV1oZubhuAbTBiuZ+PjTPjvdyrHhhI/OfTW0DkHGehvFkY1Px884qCrKZs8J5R0mEyHq8NKBlFwKC3Vw2cPxVsVA/7KXAxt0PLm1Oc4lQmewwkppDgy958DbC/oSyy3aqg5flvZaH962rtjE0JUu2t8ZgGVmTIpL3I6856b7SlTBRB+d7w0QWpSLcTaXw41YWmRBvyjIYFtdzAaqEMTXZOVpUy4uxUaoMSY3IdVaKI2aBRRjsZlSsw7+7qbjdOxjhT7y4I1JYgXpfdfLyDUNj+coZn8kEHsrS/PDbe5va459j3zSzCFHDa73wgmj2b/nmDq3xm+97OTGc7/djC9mfw0/nR4vl8imsGj2bRFCCCGEEHPPw499g7/uLMF27GM+PmajZOdf+cZjDyvDksw3eGzVx9R+fxOvf3Qe70tPYmtfzH/LUsaJr9LM8zD0NWx91oO91UH1hh4K1+WSqQoy8oGHjlMDsKaGHbaoDRqHm7FbHPhMLv7cWDGrv8iOnnZSfyXOpoRRMovslOVoyFpnQXekjo59NjIvWsjEx4cnXHQvsrNlQ4A9TT10NDWTsd6MMU/Ha7sdbN88wPfW5ZK5RM345QE+fKeZ7olsyjaYYxMZK6yU5jioPdUDq+0UJzBQRqsjMwV633NSry1g6XIz5esMlO+oobO6jl+/YMG3yUrWkiCX+j0cb+1iXG9n6+bZ7U2SXuRkV9UA9kYX20q8GPMK0Gk1cMXH4Bkv/eeDpBvt/PylqUujpukLeHRRHS0vmxn7wEpelpY0gox+5KG9bYD0nDrMqwknGWxOSrsraD9opvq8jWKDDi730XnURbdfR9luy80baM4ofIWV+p0e+heZ2WWePs0BkL7egc3Tw4EjFfz4qo3SHB2qKz5Ot9XR8XcthXsdFMbMsFGjXzXAoRcqGNxgJjMtwKC3juP9oHvOTvGtT6lY2gq2/MRD9cFm9jwXoGyjmZXpQUbOuDn+dg/k1GFeO/35MPZueBNSXVUFpkXK2klqjBYruj866WzzsKXIeuNYpa/R0L3DwtgGK48uh0sfuGn9ow+V3kG5InGSSOwtrajA9oKbbYcm3yMG0q8M0Olx05+ai606vD9NegLvOdMaLZlaCH3kxnVIjX5ZNoWbzDEJRQCWV7DF5qa63sm2Kj9lJblkEGDwpIvjnQF0G1xUJvL+EyLiid928p/KQiGEEEL819A9xa8aPqfyn2r5mH/klaN1PHXrIUFS+Pp3XsF1xcaGnR/z/z36HK2HNvOP9yujxFdp5kQHGkyOLhrWOGlp89D9RheXJtRkrDBQYLNTXmUl6w6WdxDZ5LOlV1kaTY1+mY2yHA1pRge/+mWQA695aNrtIU2bjdHspGGrhUw/nD5tp6vVwe/vz6ax2k3DIie/b/XQ8bqHkbEgqiU6dHorO3aGEyextBSuL+DXp7rQlVinZqnMxnIrlVUeRo50cbxxgNUbDJSvyyY9z0ljsw6Xq5nOwzaOX4X05Qb0z7motFWQNe2gWEmDcbuXN3KaaWl109vrof9yABZpeeARM+VVNso3FrA0+jUvKmBLk4dMVx3eUy7qj/oJoSFjhYHHq5p5/gXr1KU9l1nY9YaXLJeT9lN1/LotAIt06NZWsGOvnTKjsq9mJ73IimmZh26jlcLoy8DGk5JNWUMXSxsdHH/HRb0nwPgiLTq9hS2v2ynPm/pUDIWCkKoh6zk3pcN26ptq6B8OkqbNxmRzsqW6YFZJtinhjVsbV9Tx+zfc/OmQl0shyFiey+M/cvO8zaK4DGo0Hx1vexlLNVBumW4Pkgi9lVJ9HfWnm+k4b6UsUqx6pAbnuj5cDU4O9PsYX6RjdYmDn2+3k6XIEiQSe2tq9NUeGrROmlo9HD/sYTxVi85oY1e1nVJ9ONGQyHvOpM/lma02evc2032kjnOGGowb4yQ6UJNl89CgraPpqJvWvc2MoWbpqly+97KL5zdObhQshFjQFn+dr6fe/AkihBBi/lBlvcCvdvwbh1NfZHOyT+aI8o3v7+eVD9R89oOf8vhCS3LMge/v+65fv379vvvuA+DMba63Tx5Beh0Gqj06dni9lCUyI0CI2zHkZPMGB6MbvPzZEXtJ15skEivEHJazOpxEu37llhnuOeW+xUYArl+/rqxKapO/D6TdC4O0W9q9EEi7pd0LwUJv9/BnwzPv0bGQjPc5cXl8ZH6vJrFlD0IIIYQQQgghhJgTZrF0JdkF6D/h5sOhHjredDO42MIr1WaZNi+EEEIIIYQQQsxDkujAz4etdur71eG9CV5yymwOIYQQQgghhBBinpI9OoQQQtxTskfH/LHQ1/hKuxcGabe0eyGQdku7FwLZo0MIIYQQQgghhBBJ6b7h4eHrK1asUJYLIYQQQgghhBBinqqtrWXXrl3K4qQnMzqEEEIIIYQQQgiRVGSPDiGEEPeU7NExfyz0Nb7S7oVB2i3tXgik3dLuhUD26BBCCCGEEEIIIURSkkSHEEIIIYQQQgghkoYkOoQQQgghhBBCCJE0JNEhhBBCCCGEEEKIpCGJDiGEEEIIIYQQQiQNSXQIIYQQQgghhBAiaUiiQwghhBBCCCGEEElDEh1CCCGEEEIIIYRIGpLoEEIIIYQQQgghRNKQRIcQQgghhBBCCCGShiQ6hBBCCCGEEEIIkTTmZ6LjchdNNgNPGtTk51jpuDxN2VdtwsMeo5r8ShejyrpZGD1qIX+1BvuJoLLqJonE/pcZcrJZr+bJvV3Kmlub6KF+nZoci5PBCWWlEEIIIYQQQggxewkkOgL0t9awzZLNdwwa8vMMVG130j189wbe/QcN5KxWk5Nvo/uqsnZK/+s1uE76+Nq3HWzZaiVLFb9MzGCiD1eJOtznilu+QcvTFjO1DR58tzgWMRbr0OebeXyVRlkzAw06oxmTQUd6irJOCCEEVz7n8y+VhQtA0rc7SOB8gNn9kkokdq5LpC2JxM51ibQlkdh5KnCBC18oCxeApP9cg2Bg9mduIrFzW5DgrM/nRGLnqTlwns8y0RGg21FA9S+a8S0poMxmZ1ORltGTDrZV2ui8qIy/DVe78J4YQLVMS/olD+0nA8qIiADnPvWBqoDyl+2UbbKgWxSvTHk/Ma3UbIptdiqrp25lG8zorvXRfshKVaWD/tkkO7RWdjR4eGWTQVlzaynZlO7z8KrDSqayTgghBJ/9sYaaP36mLE56Sd/uayf56Xd/yslryoo4Eomd6xJpSyKxc10ibUkkdp469/oP+MHr55TFSS/pP9c+bmDDNzfwO5+yIo5EYue4C8eqWPNELWdn8Z5NJHa+mgvneaqyIJ7x0w4OHPXxwD95aNxdQDoAdp553MrmX/TQccpP4Qat8m4JGTvZTIdfg+llB2kNNrra3IyW2FiqDAS4BqSoSV88Q9kdGg9B2kKYGZJmoHCrg0LlbIoJP50vF2Bvq+PQmxU0VuoUARETQUhRK0uFEEIIIYQQC8UXH1D7/G7+8vFl/vp8LY+172Lt15RBEYnEznUDDVRtaeGcX035zm9x8mAR085vTyRW3JFZzOgI0HnUzUi6med/MpnkCFtqcfPn3gGcd5jkAD8dbR7G0s0UllgxF2kJ9bpp/0QR1mdn4xottaeCcNWDXa8m5x8f4clHFGV6C+2Ts0yuDtDZUEF1iS685MaoY+NzFbjeGWA86qFHj1rIX5PNgdM+Oh0FPGnQsPHg1F4TI6ec7Nk4tWynereL/v+IeoAoo70uDtgKeDpPQ/6ayWU+Djo/mW5qVoDBozVUl+jI12v4TlEu9v1ufCFl3M3GzjZTv7WAjXna8H3X5bJtr4v+uzHLJkVL4WYrWalBhs70MAYw0UV9UXhfEl9fHdvWa8l/3Bru72n26BjtdXGgKpenczThJTEbrbH9H2ePjrE2C/lrdBw4HcDXVsO2SN9M9v3glagnALjSR/teCxvzteHn2FRB0yk/o20W8ldrqT2liBdCCCGEEELcHcGzNDxbTpvuCUzLTTyhbaN8UwNn4w1/Eomd63yt/ODZBlhXxMpvPsGanp+wYW93/GVnicSKOzbzjI5QD729AVR6M6YlkbKrAcZTNHdvtsMnzXh7g2SUWClcrIYSC5ltLrxv91C5PXcq7qEKdrgMdB+y0TKUS+XBGh6dCBJUB/l//1dUmUpL1j8AEwMcry7gwBnQP1WDrUpH+riPXo+Lphe99Pu7aKjMBiAtBbgWfUvrwAAAIABJREFUYPSEHdeQju/9xELGI+EZDOO9drZV13FhmZmyFx1kpQcZOdPMnu1qliqmHI332tlWWYdPa6assg5dBoz/vQfvG07sfT6cbc0UTvZjxKV3bNg/BdNTdgrvD3Du3Wb+1FjB4GUNb+wzxySXoo2fcVD9IycjOitl1TayFsPokJf21hqqu/twtrqmjtntSteE+yYUiCQm1KACrvbw+719YKrhR8t1ZN0PxNkAduxUDT+udjG6wkJpZQWZKj8feptpetHM4GUvr24K97+SSqWGa0F8RyvY86WBspfc2BYH8Z1wcOBIDXZ0vLnXTBoAPtp3mqk9CVklNfw0XwfDXo6/ZOacUQ2p6nAbhBBCCCGEEHffNVi7+595/5sfUPXoW3z/jUYO/N+TBOItz0gkdq67puP59vcpuvAyj736GIdbn+Dcv54jGB413X6suGMzJzouDnDuCixdoWXEY8f1WjPdnwQgVU2mwUr5TidlhjubcNPf5qZ/QkdZSUF44Gq0UvyQi6YTbnqrczFOJlQWZ2PM1zLyBpCiISvfjEkFEOCLPyjLYNTjwHU6gK6yi9++lBsZFENxSQHpzxbQ0uCgw+KmeElkYE2A7l4NzjYXphtLYAJ4G5vxTRioPOTGpo+chhYr+n25VJ8Jj/snjQwFWGq0ULi1mUrD5ClbQaHWz9MveWh/z0/hs9EzYIL092t4pa2Z4mWRomfNpG8qoOlEHe3VZsqXR4VPmuijZX8dg8traGx1or+xJ4mVYqOazbZmDr1hw7Q1wf0yFMb6+vBNwNKHsiPLiMJJg9BHXka3dtFQFT9RAZOv0YVviRXnkakET9nGAtKfMnPcVUf3Bhemac/CAL2fZNPY5kAf6eSsNU4GTxXQctLLhw4zxhSgz0XLqQDp65p59aA18jqtFK6tocrmIsSdzjgSQgghhBBCTOtrj2D6FnDtgxtFD3yriAdigiISiZ3rHjZRBHAh8v9UDWsL18bGTEok9i45duwYzzzzjLJ4QZh56crlAGMTMH7Gjr1hgJWb6njV5WbXFivpnzRzoMpC053MM7rqpf3EAKywYM6NJAZScjGXGFD53bfYlHQmAXo7vYypDJg3TCU5AFiUS/E6A1zp4nRv7Gtfmm+NSnKEZ7T0fxCAh8wUronOtakxWixkKQbpuk0uXm1yTyU5JoBQkPTl2SxNDTJy3h97ByBzXcVUkgNAZcBclB1+7r5p2j/kofNsEF1eAZlf+hm9OHUbX23GmAEXur3c9t4+V/0MvuNgz343Y2m5lJYVKAJyKX7qFkkOwq+x+1PI+LaVvOiZJYsKeL7eS2N9DfppkxxhWeutN5IcEN64VLdCDVf8jEZ28vX19HDhmgbjekvMni7p+TWUPi75USGEEEIIIYRYSGYYZkY2mgQuXdSxo81D2eTsgiILhXo1m19w0fK6l7KDlmmXWNzK2MlmOv2QtbUCfdTyAt16K/oGO91vexhdXxF/U9JbmfBxbjgIqmx0K5SVsHKVDhUDjAz7gMkBu5rMVYrB+0UfI1dBpdWRqVz+sCKbzDRikwkTfvrfdPL7Ni/9Qz7GFPts6K4pk0JxnhPIXBF+fZfO+yHOFjXjvgF81yDUZOGJJmXtJD+XJkCnfN1KV93YH3ErS8OW5VJ+0E3lI4ryJToy/0FRpjDu8+G7pmb1g7rYRBOw9JGCqWMa2ZfjZmqWLrt5A1RVCkCQUOR+l/w+QqnacAIkho5H9Vr4m7LPhRDJJvj+27z8h8GYda4PrHueXeszokqEEEIIIRaOhTqbg1klOlQaVIBKb6FYsYQiPddK4YMuWvq6GJywhJcRJMRHR5uXsVQNaX4PTQ3RdX5YAmOnm/EOV1AeJ1lxa0HGvwRUatLjtDJNpY7ExA6Cw+VRQkFCAPerY5aoQPgqL7ED+CD9v7FQ3dhHeo6Nyn1mspaH+49PXOzZHT+ZkL5IOUCPen2h+IP00NVwuW6Ti63rbk4kAJCqJWs2xyTVQPGPLKyM7ieVhqUrDBjzcsmMd6leVZz+UAhdDc9GUd1/c/tmbRavf/xq+KovqjgvKH2xBhU3z6IRQiSZT0/T0HgyJtGxdulTkugQQgghhFiA4qQAFLRalqaBL15kiob0f1CDLxhzBZNZG3LT3huEa0H633TQr6wHoIcOTx/lCe81oSb9fuBykLFrNw+Yx74Mb/uSdv/NsyViTA7ovwwnPGISCqHwsp4brno51tZHaJWNg6/VYYxOEITiJzkAQuM3JzPCCQ41adMkCVSLIq97iQFTXqJ9o5CWTeFP7DdfXvYOTb7GcF9/ddJUapgIEopzlZqxK5FElRAiqanL9vOfZcpSIYQQQgixEM28R8eSXB5dpSY01MegcsQY8jNyIQjLtIkvLQH6PW4GQxoKD/o5MxS8+dbrpngZDJ5w06t87pmkZKNboYGrA/iGlZUw8ukAIdSsfGiGjSqXaVmqgpDfx4hyicXQAL7ossllLo8U8KhiFoTvgx5G4+4kHMTnu3knjZHz4bIM7c1LNwDSVmWjS4UL/X2MKisJMnblq00uzEaaTocuNcjIUOylfAFGzzRz/Iib/jhXaklUhlYL1/yM+JVt9jHYf3PfCiHEfPHxW4d58/3PIwnbEJ+//yaH3/pYGZZ0kr7dgZM0HPgL576I/P+Lc7y1r4G425IlEjvXJdKWRGLnukTakkjsPHX2SC2/++uFyAy8IBf++jtqj5xVhiWdpP9cE2KOneczJzrIprgkF5XfTdORvpgB68jbdXReAl2emZWTswFCfkaG+vCdn+ETeXITUq2F0qJpZlUsNlNq1sHf3XScVg5iZ6LGuK6A9Gt9eNu6YgfaV7pof2cAlpkxGePPmLhBlYvRoIZPPXT0R7+GAJ1tHkaikxeLNeF9Svw+LkUVjw+5ONTmIy11cqZGrJH33HRfiSqY6KPzvQFCi3IxTvf6VlkofERN6IyLFsWGquO9DqrzdFQ3DcSU33OrLZgegrFTLtqjk02hHlr22jjg6mIsznKTRGUaDGSkBvjbe17GosrHTtdxTPbnEELMYw8/9g3+urME27GP+fiYjZKdf+Ubjz2sDEs6Sd9uzWOs/eI35Jl+yskLJ/mpKY+G4Foei/dzKJHYuS6RtiQSO9cl0pZEYuepR761ks4fPs6GprOcbdrA4z/sZOW3lJvBJZ+k/1wTYo6d57NIdEDmJieVj0PvQTNVW+00uZzU7yzghb1exh+swFYVdVWT4Wbsllw2Ozwxg06lsXfDm5DqSiowxdsDAiJXNrGiw09n260fL5709Q5s+Vp8Ryr48W4n7SfcdLQ62VNp5fjftRRud1AYfYWVuLQUVlaQyQAtWyzUNrg43lpHfXUB9X4DxmXha0EDsMRMYZ6GUF8dtftcdLzj5vihCqpszazc6UCfBiPdzbSc6MJ3dfLx1ehXDXDohQqajrrp8Lior7bS1A+6DXaKp5twkpJN+U4bWSl9tFQXsKfBRceJZo4frKCquo7BZWZK19+8yek9lWKgfKcNXaiL+koztQ11tLjs7NlkoeVTLabqmlsc+9lLy7VRpldz6UQN2yLHub2hgurdfTxqNsy4l4gQQsxZuqf4VcMLfP0/Pufzi9/gJ646noo/0S+5JH27NZh+3kZjAVwIXICCRtp+boqz9TgJxs51ibQlkdi5LpG2JBI7Tz28icY3X+SBixe4cGElu976A5v+a8ZB91bSf64JMbfO83g7b9xMZaDytS4yXQ6OvdNM08kgaUuy0VuclG+pCQ/2E+Kj420vY6kGyi25yspYeiul+jrqTzfTcd46ddWX2UjJpqyhi6WNDo6/46LeE2B8kRad3sKW1+2U582u19PznDT8RkN9o5tOVw0di7LRf9eG8xcGOp710D8xuQ+EltK9bkb32Wlvs7PnTTU6vYXS/V7KjdBb6WGoyUPTIcjIKUAfCkKqhqzn3JQO26lvqqF/OEiaNhuTzcmW6oJbXskmLcdJwx+zaXI1c7rVTtdlSMvIJuu7Tl79UQ2m6ZIk91B6fh2/bcrm965mupscdITULF1TQOVvHDx/txIxKQYqD3lgv4P2d538+h0NDxgsPHPQg7HHTIdXPdszXQgh5hxV1gv8ase/cTj1RTYvhMFARPK3W8MT+w/z4qWTFO1/YoaBbCKxc10ibUkkdq5LpC2JxM5Pav2LNP7yA2pT91J9l34OzgfJ/7kGoEaj1TLNnHSFRGLnOPUSHshQz64ticTOQ3PlPL/v+vXr1++77z4AzgzJNH+RXPr3ZVN1RIOtrefmS+QKIf5L5KwOf7Vfv9KrrJqz7ltsBOD69evKqqQ2+ftA2r0wSLul3QuBtFvavRAs9HYPfzY8u6UrQsxpl724tpqp3qtY3nS1C+8pH2Tkon8oukIIIYQQQgghRLKSCf1i/luSTea1AZr+aKP6Ug/Fedmkh3z0elx0DGswvWzDKBt1CCGEEEIIIcSCIIkOkQR0lB70ku5y0uJ189pJP6RoeWCNmcrf2O/eXiBCCCGEEEIIIeY82aNDCCHEPSV7dMwfC32Nr7R7YZB2S7sXAmm3tHshkD06hBBCCCGEEEIIkZTuGx4evr5ixQpluRBCCCGEEEIIIeap2tpadu3apSxOejKjQwghhBBCCCGEEElF9ugQQghxT8keHfPHQl/jK+1eGKTd0u6FQNot7V4IZI8OIYQQQgghhBBCJCVJdAghhBBCCCGEECJpSKJDCCGEEEIIIYQQSUMSHUIIIYQQQgghhEgakugQQgghhBBCCCFE0pBEhxBCCCGEEEIIIZKGJDqEEEIIIYQQQgiRNCTRIYQQQgghhBBCiKQhiQ4hhBBCCCGEEEIkDUl0CCGEEEIIIYQQImlIokMIIYQQQgghhBBJQxIdszXkZLNezZOOLmXNzRKJnct67Ty9Rs3mQ33KGjEfTPRQv05NjsXJ4ISyUixko0ct5K/WsOedoLJKCCGEEEKIeW/mREefnY1r1OSsvsWtxHFbA6nxE1bylY+1RsN38rLZXFlBfZMH3xXlvcRc1LlTQ84aA65+Zc1856O7qY7uYWX5NM67qNbHeY9Mntv5Bqq22jne61fe8yugQWc0YzLoSE9R1s3M946T42fuxesk8X6eJ+5tH07jYhfHXW58UZ/RaVoDpiIzK5epoyOFEHPFlc/5/EtloRDzVzAw+8R6IrFibkrkGCYSO7cFCX6hLJtOIrHz1Bz4HktVFtxEa6a0Ws3YNWUFEBqgu9WDb5n2tgZSkzLybHzPoAn/JxRk7NIAgx94adnnpqWxgMp9zdjytcq7CfHV83tpOVhH5uoaTCuUlbewwkx5iYG06LKJIKPDPXT/Sx0H3vPQ+0svTosuOuLuSsmmdJ+HUmX5bEz04X3NSWe+mbKce/Deu91+nsvudR9OY7zXhcsFOzZb0S0Kl6XnO3DmKyOFEHPFZ3+s4Wcpv6K16hvKKiHmn48b2LD+L3z/vT/zw5l+9iQSK+amRI5hIrFz3IVjVeT9r0f488ldPDLDCDuR2PlqLnyPzdy12gLKqwuUpQAMugponTCwaWsFmcrKBCw12rBVZytKAwy2Oajd56JpiwWau7AZ7tJfH0OASlkoxM3GP+pjcIKEz2/VcjPlW20sVVYA4/1Ofvycg86DTrrXuzDNxXPxSh+DviDco8Hw7fbznDbbPpwIQspd+myLY7B/gDGUn6/J6y8/LmTDpz/kI+8PWKmsFEIIcW998QG1z+/mLx9f5q/P1/JY+y7Wfk0ZFJFIrJibEjmGicTOdQMNVG1p4ZxfTfnOb3HyYBGRP+HfLJFYcUdmXroynU/qqG/s4YFnnTx/txIQMTRkbaijYX8FmeN9tO534Zus6newcY2ap/f1xN4FGDxoIGdNNvW9kYLIfhmbG/oYPFrB5jwN+ZucU4913kvTbgubi7Tk69XkG3VsrLTRcnr66eajvXXs2ZTNdwwa8nOyqdrupPu8MiqOiz0c32th8zot+XoN38kLL2No7w8oI6cRYLDNjn2TgSeNGnL0Gr6zrgD7vmYGo5f4TPRQv15NfqWLEX8XTdsLeDpHQ45ey9MbrLhO3mh9RID+JhvV6yOva10Be1xdjN7GcqRo3S9pyTFY6bjYR/teMxvzNOTrtTy9sYLjfQEIDdCxz8LmfO2N8pa+qL6Y6OJAvpr851z4PnFTb8vlSaOGfIOOjc/ZaOlV9tss+2fSeS9NL5nZmB9u95PrzexxeRkJAQToqNbw323NjF3z016pjj2v7kCa3kZprhou9zGoWKoxdraZ+q0FbMybPBa5bNvrov9ibBz+LlqU5+2mClwnBhifjIm7R0cQ3wkHe6L7qCiXbY46eiPPMdJUQH6Oje6r4HPlkrNaQ5VrIHL/WfbxrM/B2+znWx676Ljofpr+PTfWZiF/jY4DpwP42mrYVqIjX68hP89A9W6X4vy5gz6c6KK+KNwvvr46tq3Xkv+4lfaLCX6uRYz2ujhQlcvTORryDVqe3mjF9U7kHJjwUpunpqpxAK562GNQk2OsoHNi+j06RntdHLBFHi/q/JtsFyRybIUQQixowbM0PFtOm+4JTMtNPKFto3xTA2fjrVRIJFbMTYkcw0Ri5zpfKz94tgHWFbHym0+wpucnbNjbTdymJBIr7tjMMzri8tNx0EnvIivOnxTETs+/y9KL7JQ97qa+z03nUA2Vq5URM1CpSQPGPqmj3uMj61kHxctzw39pv+ylttJC+8VsCjfZKVuthbEBut90UW/rYbSxhy05iiTOsIuf7fSRYbZhK1Fzqd/Nn952YB8K0NDmRD/dX+cveqjdXEH7FQOlm5yUP6Qm5O+j86iL2ue6GGnswma8dcLI12ihen8PqpwKyrbXkKmCkX43x4/YqP4E3micnFmjJi0FQhe91G91k26u4ZVKHVzs4tgBB03bA6S3eSlfNfW42/b3oDLa+FFVLhkTfj58x8a2M7qpQfNtSEtVw4QP7+4aVIYadrgccNZN/S9dHNgBI/oBBpfXsKXeAefdNO2to36HhqwTdRgj/ahKhZDfzS+2wsqNDpzVWkLnvRw/6KTeNgCtXZRHzonZ9w/gd7NncwUdXxoo3mjnmWUw0uumvd5C/6fNNO63YrS52bXYTm2bH9PWZp7Rq8lM9PyLKwjXANQQteRr/IyD6h85GdFZKau2kbUYRoe8tLfWUN3dh7PVhWkJEOrBVWWhyZ9N8SY7ZQ9pYcxH/7sumnZ24bvWg9MSf6nEaFsF1bu9pOVUULbdQOYiuDTkpf2one19ARredJC1zolzoo7agx7SzHXssOhIXxGeTzj7Pp7tOahJvJ9nceyWRuLsmyvovGKgcJOD8tUaQv4eOlpvfs+pVGq4FsR3tII9Xxooe8mNbXE4oXHgSA12dLy510zaHfdhIDyb7GoPv9/bB6YafrRcR9b9ykbObOxUDT+udjG6wkJpZQWZKj8feptpetHM4GUvr27KpXx/M+kHbbQMGSjfb8e4WEvWNMsMJx/vgtZMmc1G1jIY+8jLsdYatkeff7M+tspnEEIIsaBcg7W7/5n3v/kBVY++xfffaOTA/z1JIN5y+ERixdyUyDFMJHauu6bj+fb3KbrwMo+9+hiHW5/g3L+eIxj+pX/7seKO3VaiY/yME1dnEONLDgqXKGvvNh3G3Gw4M8DgRwFYneDknhQ1KmDo5ACFiuUv458MMLaigOLKOl7ZNDW1u9Skocpip/1NL7YcS0wi59KZAQpe72JH3uTrqMCoMlDd2kzLO3aclnivL0ivy077BQO2o14qV0++BiulJQbslgpaDzVTesR2i6n7PgYvaMjKr6H8oBPT4kjxBitZoWy2nXDRMVQRmwj6tAf29rFrw+Sg14DuchddL3XR3e2jfJUOrnppaephbHkFr7jqbjxu8VMFNG0uwHWNuMsvZiUFCPUx8lAXR2y54X7UG6jsdWP3uOlY68a93UI6gMGAqt9D1ZEuus+C0cBUImB4AJWjh12bIov39AYeXexn4wsuWo94eWavmbSE+idIr8tBhz+b8qauqWTWc1aytuay54STY89ZsenNPLrCiSo1QIbBjCkv8ph3aKzXxfHeICzPxTi5HnGij5b9dQwur6Gx1Yk+spcCWCk2qtlsa+bQGzZMWw3Q76Hj0yBZ1c28ErXkq/RZM7qddvr/PsAY2nC/xghw+j0vlxZZcDbUUXjjOSow62vY0+bn3HnQr8rFZNCRBqQtz8WUb4jEJdLHEbM4B5cm1M+zPXZBuhvsdPp1FB/y8sq6yfelldJCHVUb7LQeclF6pCbqPReg95NsGtscNxKWWWucDJ4qoOWklw8dZowpd9iHE5EkwUdeRrd20VB1m0tKJvpo2e/Ct8SK80jzjc/hso0FpD9l5rirju4NLkx5ZnRNQIqWrG+bMUVe72jMg4VnabTsd+FbZGZXk4fS5ZHykgoKV1nYuLuZQ002TNsnz4XZHdt7Ifjvl7gQnErJXvgSCI5xbnjkRpk6NZ0lD6bLjwghhLiXvvYIpm8B1z64UfTAt4p4ICYoIpFYMTclcgwTiZ3rHjZRBHAh8v9UDWsL18bGTEok9i45duwYzzzzjLJ4QbiNRIePdlczIw9WsGvDvfkhm7FMi4oBLl0OwO2uYlplwaxYYpNmrMHZWDNVMAFcCzL+gI5MFQxd9HEJxb4Bq62U5ka/BjXG9WYyj7ro/1sfWOLsZzLRQ+d7PlRZFZiWBBiNWYaQi8mgpvOUl97LNkqnTRzpKN7toTi6aALGr0HmCh2qCR8jfiB6kLnITPH62L/sp6/IZmmql0sX/IAOPuqi9zJkbLBgnBy4AqgMlJbk0vTBHV4iN1VHXlEkyQGAmswHdYCPxwvNMYPxzBU6VNf6uPQfUYUAqlyK18Wea2lGM8Z0F+0f9HBuwkxWSgL9M9FD50kfrLBTGDOLRkvhDg8Nz0HmHW6IGTrfRUtDIDbZcC3ApU976D7Zw0iKgfKX7egn/7o+5KHzbBDdcwVkfulnNHqX4tVmjBnNdHR78W01oEslPLNgqI+RiWwyJx9DZaD8kDfqjnGkhDcRHhwKUhj1fli6vo6G9TGRcfz/7d1/bNP3ve/xJzdR7BuuuWEJlQlsmLKbhE2p0tZHeInETTjj4HaMeoN2uaCiZIcK62aClB5oOlauWw63abNDA6dMrkaJVQ7MbcNuSrs1WbXGQ0pOkNKVu2hdQF3nbDTNSrhEZOXYEVHuH3HA/sYh+QJtE+f1kPjDn+/HDu/P9/u1/Xn788NEG4+ZyjVoxlTP3XAHbb/pg0XVrFtleM9YVo77bh9dnSE6L1SzbsH1Q/n3lSeOykorwLHECm2xczLvVttwjIs1D9xkkoPR66X9Q8hZX05J/HtGZinfP9iMO2rHYebd/VwzrR+CbW0F7rEkR0z26nKczzTT3tZMeEfR9TN2u8/tTenl0D8+yD+dMs5Zeom/L3zp+sNFD/Hrrl2sMtMmIiIiIjJjmf/ad8bPa6chf5sX57VfMz9jV0dnLlnSb+H3uCUFSUdL9J6qp6EhSGdXN72XE2dIWZKsUWG5s4ClxqHfi0Y7m10fhxmE8b+kX+gmfAmifT42l/iMR0el9412EidMdIwubnjSX8vJ1g7O9fQRTRjelSQBNN9OjnEqTWwqz1AstqG+MBevWslbNPrrc7zsOx3YzF8hidLsZMd1JIlNRyE9i5wvGc5nunV0Woex3Rc4yP2SoSzdTvZC4HyYXiAfE+0TOx+WPAcOw7nMWFyE09DRMwq/WcNrnXHXSloWd230sSZ+qH5PE8cONMUVxFgcONf72LaxmrJrI3tgKNxN+CpEGzzc35DwjDh99A+Do9DLprIg+96qYPP7AYpXleJcUYrT5SL3hvdkFmWbvTS21dPwcAHtJW6KS0pxrnDjnOpIqam28ZgpXIOmTPXc9cXqrUhyv2LHsTgLTocJfwRcuz6tZC8Y3zm3pAFEiA5ze9oQYH6Sa9qEoXCY8ET37fJS06OwhsLdfHzViuPOgnGvx9wCHHZo7QnTOxyXvrjd5/amZPPdHz7H8qqxx1Ha/U+y769uDu9excKx9y9rDvfc6nuZiIiIyAwzW0dzYD7REaH9RJBwmouda2/h10iTenvCRLGSbTfRkTDIiH0Bjzf4jpeqHwS4uMjNhh01FOfZRzvhVzs44q3hXUN9ANvc8a8z9uWe4UjyNS0+jYxu9OKs5qmqxFEM11nJXWQsizPczbEqNwffhfwHqtm900VuLFHQ/0Y1NUdvbgHAaDSWRJqbJImUniTW22lcB3QCmVnj2yzNiiVtdF2FoShgMdE+sfOBZXRak1n9nUEaj8ctVptuh1WJiQ5LST3/pyF+15UBWncUUdMMuSu9CUkOgOiV0fPg2Ohn++rxnVcY/Tuj6ys4WHewg6Un6nmtqYn2oz5aGoBMB871NWx7rIL8CRIethW1HD7h4lggQOs7QRreCdAA2L7mYdPOeipLkq/tAZ/dNWjKVM9dXL1x1w5gybQCA0SN+3tP4Zq8pTYcM9n/fxLRK6OLqSa9b2/C2PVnsyR5vTRrbA2TgdHElslPjc+WhaXFJYm7q7yxF2t0Kau+bSgXERERkVnD3FfWaIjW3/RhKaymeJJfvW+b4TO0tYUhs5S7CpN8CTdImmhIqo+Wo0F604rwHmpKXFcg2odtgsVwotHRZEZCRzRWdi3hYTQ31qlJc5BfUpp0ZMmkOv00vjtAztogh56JrWsRE26Le2CSJdaxiX6aZL3fTyMMXk0yQuXzdiXCoLFsODKapEm3YrOYbJ+x8xEdfV2zv347fWFOTzAwZ2JZlO3wUdzm5WSdjzXO+oSpQpbMWBJvfhHFJXHrIEwkzU7hQ7UUPlQLl8N0nW6m9UQ9jUe97BjMIvhcYhvEy1jmoXKvh8q9ES6e66DznSCvHQ3gr+qDV0MTL/hrpo0/K1M9d5PUG7wSAbKw3MQioNxKG94k4/va2PUymOy+vQnXXi+W+EzbGN2nAAAVpElEQVQwdq9ZskYTwSIiIiIi05y57WW7QnT2w0LnTXbWb0LvKz4aPwTbf69gzdgPpemjGxeMTWm5LkJ/38TbwiYYDtPbF4EFLgoNuwMMnemgy9iziBnqGZ0qkeCjbnqHwWZ3JO9cLijAsQCi5zo4e8V4EIYuG7dJHW/w/OgUE0eRy/A3+vjde2Nbf5qXYXeQnR7h44/C4zpT4Q/jtir9Il3opte4bkc0th7EYgfZZttnQQGO+RD98Ax/Mg6x72mm8aif1nPGa+s2WFzB9koXlj8GqPN3JLRtxrICHOnwcdeZ8QtFEmHQMK0qwTwHhau9bDvUxNa7rfT/ppkuY1xJWcnOK2WN189P9laQM3SGtlMTX0um2vizMtVzd6N6hPlTeAAyHDhucS0Ws214Qybe1zIcDhzpEXrPjb9HL54O0Hg0SNclw4EbuNHr8Wk34fNgccStByMin4kPfv4Cr/z2k9ERaUT55Lev8MLPPzBWExERmZam0+eYqURH7x/OcPFqFvnLbzBtJdpH77kzhM9P3nm/sQHOvlrBo881M2hz491Rfr1zlWPHlgYXe8KJncILTbS0TfHvpmVhm2eFy31cvBxXfrmDIy8EGcyIG6kRJ/p+kOau+I5IhM5fhei9msW9Kyb4JT7NRVmZAy410Xjc0Am61Ezdegff2h5I0sG9zjI/i4wkHZ7ephqOdY2ubTE2DcWUr7kotEF/WxOd8e1wpYOTTR2xi/QLFg3R8mZiuw2+08S7VyD33lKWpplsnzQXZasc0NfEybfi6w/Q7q+m7hk/XVdio4fSRzueY0P7b5WjspYNeRA+Ws2R+OtomYey5Vaip/0ci1//Axjq9FFV4qCqYbQNzjZ4+M4qD409CdUgLbZLzUQjiy41UedxsHlvaNx1PcZiSZweNhR3TZlqY7Om2s5TPXfx9d5JfE8Y6grQciaCzelJXMhzKm6xDW/IzPtanofiO2HwlJ+T8ddBtINje73U+UMMjs2NSR8blRFXzyjPQ3EeDLYFaD6feKj39QCdV6zklbk/l+VFRWazr97zZf5911q8r33AB695Wbvr3/nyPV81VhMREZmWptPnmKmByL3hMNF0OzkLbzCFpCdAjcdHuNjPLw5XJB/hYHCxox5/dGy4RoShS2HOdobo/OMA2Evx7g+wIf6X1wVuypxWOttrqTucxaYVDrjQwcnDQSgswnJqKsmOAsrKimh4rwn/Ez6iDxRh6e+g9ZUmBj31bBquwN/VxLFXC1hX7KEw9qwcp53OXR7q1pdzlx363wty/GfdWAp9bDLu7nCNFae3lnXtFZzc76bqvJc1RQ64dIbWV/209znY8KRn3PD6eBnOcsrsQU4e97JvfjXFCyKETwc42VnAtl0efvxkgHdP1NNi8UyyPadBpptNG4sIHQqwpzLChrUucujjd28G6V3mJvfDSXbx+DwsccGJch7tq6Cs0A7nQzQ2BOm3lbJzc+lop95M+6wswOn1seZUBS0/cjP4XjnOxdDbGaSlNUzu2iCbYjmrbLudDDpob6jh2HkHOU4va6YwhWpCFheVu8pp9QY4/owf99Hq0UU10wrYtMtL69Z6jlWV0r+5gpIlVgbPhTj5SpCzC8p5+r7RBGO+y0X2IR8HK92cfcBN4eIsiPYRPhWk8Qzkby3nrrTYLkLx5pfiXG6l8WflbOmvoGxFAdkWGDzfQeurAfpzytm2OnYf2h3kpkHn27UctJeSvdjNphUm2tjMNWiqna1TPHej99yatgpannDD+xWULMsiej7EyeMBzmaWsu2x8hvec0ndahuuMr5gHDPva2lFo9dLlX/0OljvxpHWx9m3A7R8aKf4R9WxrWSt5C7IgmiIxmdqGVxu5y5PxfgReWlFbNpZTWtVPT9+xEN4Yzn58yP0dzXReDzEUGEN2zffIME9jdz/k1b+w1goMlM4HuDZQ59Q+T/28QFf5+lX63lAGUYREZkpptHnmIlER4TBS32QVoRtKtkLE/pPB2g4ff2xJdNOdr6LddvL2fBwOfnx254C4GDD3iD9z/ho8Vew5YCV3LxS1m0PsK6vmu+cGojtkHBjjkcCPHWlmoYT9ew7BTl3llJaGeTp9UUMLqmg1Reg5V98ZCxyU/il0d1Asot8POtq5sD+WureDzOU6SBvrY+ndtSQf6PVBRd42P1yM/n+Wk6equfHJwYg04Hj7gp27q1hg3OiJEnMPDfbDtbDc/W07q+gJdNBXkkFOxtqKJ5/ht63QzS01XLwahb5JS7js2/ASv4Pmqi11HDkRDPH65rIWFRE8ff8PLuyg8ffaU4+b//zZHHhPVBE2/5aGk5003s1C0dhBTsfq72eADPTPisLsNnLefrlLJYeqqe5uZ4XL0ewLXZRvK0W7yPuax1g2+oaKld303AqQENfAWsWV0zQAZ8620of3tXN7HmrlrrjHg49PHr3Z6yo5dDPCmjwB2g7XkPoEmTkFJD/D7U8v7Wa4rFc4PIanm+w03A4QNuJWlr6ByDTzsI8Fxv2BqhcX5R8RAdZlP1zM88vqeW1t5s49pswg0NWbPYC8lf6eN4b9zcWl1O5pYneoyEaD3eTt76ITatNtLGpa9BkO0/x3GH38PTRJvIP1dLyuo/QhQgZ8x3ku3zUbq2mbNkEr39Dt9iGEyZDMf2+ZltZz08aCjjiD9De4KMlaiX7a6VU/ouP78eSYmDFWeFjTVcNoV/V0/i+G9vqJIkOwFZSy+GAA78/QOsLXhqvgG1xEYUP+6n0TrzArYjcXpb8R3h25+95If0xNn8xP4KJ3GZWsux2pvapa6auTE9mzqGZutOcdT4Lc6xTi8VM3RlounyOzRkZGRmZM2cOAKc/i3UJRG7WcAcH3aUcs9Tw8uu+2I4jIjLTrYjtOjRyudN4aNqaM88JwMjIiPFQShv7fqC4ZwfFrbhnA8WtuGeD2R53z196zK3RISIiIiIiIiIynSnRISIiIiIiIiIpQ4kOEREREREREUkZJhYjFfmcpbnY9naEbcZyERERERERkQloRIeIiIiIiIiIpIw5PT09I0uWjO3RKSIiIiIiIiIz3b59+9i9e7exOOVp1xURERERERERSSlzRkZGRsb2mz19LmI8LiIiclutyLMCMHK503ho2pozzwmzeD96xT07KG7FPRsobsU9G8z2uDWiQ0RERERERERSihIdIiIiIiIiIpIylOgQERERERERkZShRIeIiIiIiIiIpAwlOkREREREREQkZSjRISIiIiIiIiIpQ4kOEREREREREUkZSnSIiIiIiIiISMpQokNEREREREREUoYSHSIiIiIiIiKSMpToEBEREREREZGUkfqJjnO1bC608i1f6FpR664sVhS6aexLqDk1SV5vQsMdHFxtZcVaH2eHjQdFRERERERE5HZLNxZM5GJbPf6GIJ1d3Vy8Ahn2AgpXVrDJ68W5wFh7aobeLOebO5qIGg8AWLLIWVxA3goPD27xUrzYaqxx03Ly3BR/WkCuxXhERETkixUZiGDNmtpnnpm6052ZWMzUnZGiUaJYsMy27ymKO2WZuWfN1J2RZsH5Tmq2xv3pZaJz55HKYZu5Z83UvVVTGtHR21TOlkdqaL1UwJof1LN7bz2Vqx30nqhmx8YKWi8Yn2FOTomXyqqaxH8by7k3p493j9fw6HoPx84Zn3XzCrcEef6Qj+L5xiMiIiJfoA8Osf7v1vNS2HggCTN1pzszsZipOyNFaX/mW3y3rj35D0EpS3GnbNxm7lkzdWekWXC+k5qlcUd/zwsPf5fHWy4bj6QOM/esmbq3weSJjuEOGg810ZtTzu6GAN6HK1jjqWDTriA/2eWGniANr3Ybn2VKttOLd7sv8d8T9Tx99Awv+9zkDIZoOBBk0PhEERGROL/8n2X8Z/e/8SfjgZngb++x7/tP8ssPfsnO7+/jvb8ZK8QxU3e6MxOLmboz1Ce/eJzH/+0Dfh94nD0tnxgPpyzFnaJxm7lnzdSdoVL+fE9gdsZ9mfa6Xfzrbz+gybeLVz6nzv3nysw9a6bubTJ5ouPTML19YFnm4q55iYeyC4tYmA695z+rM2fFsd7LvTYY/EOHYZ2LCOG3a9nzcBHfcmaxssjOdzxu9vmb6Z1kPYyka3Rc6ab1QAVVax18s8jKiiI73/F4qDvaMWGC5WJnPXs2FvDNoixWrihgy45a2s8bayUxHKbzsJcqT+y5Tgffe7gC/1vdDBnriohI6ov8gUMPbeKE436KFxdzv/0EmzYe4g8RY0WTdac7M7GYqTtDfRLaQ+Xzn3Bv6Vf5aum9/KWukj2h1O8UKO4UjdvMPWum7gyV8ud7ArMz7ijv7vey5//+N8ru+jLF34jy063VvD6VfuJMYeaeNVP3Npo80THXQa4don3hcQmEob4wf8OKY4kj8cDtNByBYSDNGje3KcLZwx62bK/l7Dw3G5/w85TPx7rlEdoPenhkR4DehBeZTJiTO93UvNjM4Ncq8D4Z4Okf1lCW080bz7h51H/G+ATo8fP4riBDRV68u2rZuMrOx80+arw1dN1oTNZwmJPbSqk6EIJ7vWz75wC7d1XjTO/g+GOlPNpwa6NjRERkBroKdz/5a357ZCPLbcvZ+PJv+fUTy+GqsaLJutOdmVjM1J2p5rk58PpxHvu7O7jD9RjHXz+A2/AjU0pS3KkZt5l71kzdmSrVz/dEZmXcUazf2M3Pf/Y0ZQvncU9FA7946SEWp9L1bOaeNVP3Npp8MdI0FxuqPLT80E/djxxsq/SQPx8unmviyIEmBheVs/t7BcZn3SYRwsf9tF+GnNWl5KfFis8HOPhCCNvaIIef82Abq+6poHhBKY8cruXYqXJ2rpziQieXuumlAOdDFTztKyc7VrzmARd4Sjn2aoDOR+pxjv19oP90N6U/DbGzJCtWUoHTUkTV8QDH3qqh1jNWnmjwVz5ebI1Q7Avx/EPXE0Rr1rvJrXBx0O+jxRNkjdYPERGZVOSv/XwcuT4W7uNPgcggf+q5nu62ptuYv8jGFD8Rvhj/ZTnF3wCuvnetaOE3VrEwoVKMmbrTnZlYzNSdoe64p5g7gL+MFcz9KsX3JNZJRYo7JtXiNnPPmqk7Q6X8+Z7A7Ix7Hl//xteB62tzWBYXc29Cnc/Ha6+9xoMPPmgsvnVm7lkzdW+jyRMdQK4nyE/Tq6nZW03Viepr5TnOap7aX3vLi3pe7PTTcMieUBaN9tHb1UyoLQxLytm93U3GWP1TTXQN2Sld6WLoQh8X456XU1LKwsP1tLedgZWuuCM3MN+N95A7sWw4whAOHIus0NnHxSiQGXc8r5x1rvhkhhXnfW5yX/XT9e4Z8JTGHRsTofPtZvozXFSusHLxQvzcmSycJS4sp0O0vRdhzapp/ZVcRGQa6OXQPz7IP50yDqN7ib8vfOn6w0UP8euuXaya0ieeiIiIiMx0U/ra1/uml0d/FGTo7mp2ri8ld16EwT+GOHnUz//aMsCQ38+axcZnTV1/mx9/m7EUsLtYV+Vjw+Zy8uOSKX861030ah8tOxy0xNePY+kLM4TrWnJkMkN/bOLIi35aOzoI9xkmDFki44bWWO4sYGncCA8AFhWQmwZdH4cZhOsjTcYMdxP+cACuNFO32kGd8TgAVi5+NAAkJn5ERMQom+/+8DmWV409jtLuf5J9f3VzePcqFo59wllzuGdKn3YiIiIiqeMzGc0xQ0z+1e9CgDpfgI+/VsvLh6txjHXuV3pYU2Jny3ofdXWlFB8oH9+xn6L87Wd4uSpu+suVEHXr3TT+vywKv5eY5AAYikYg3cGaJ+pZd+cEIx++VDDlJAfnA+zZ7KX10wLKKuvxOgvImQsQoe05Dw1dxieAba51/OtbYmXDkQkWFY0w+OnoXDXv/moKjYmSGMuS5NNeREQknoWlxSUsjS96Yy/W6FJWfdtQLiIiIiKzxqSJjqEzIbouW8lb5b6e5BizzI1ziY+ujhBdw+UUG4/frMxSvDvKCW0P8uJzQUr2X183AyAjMwuIYLvTjbMk7sBNCr/up/WClWJfE7Ub4xdW7ePs9RVQE0Sjo8mMhGRHrOxawmOcLGxzgQtWcp2lOOOnwoiIiIiIiIjILZt81xVgiAhDxinQAGPlk6ZLzLOtrmXryiz6m3343x5IOLZ0mQPL1QG6upLsUDI8wOAVY+GN9Z4PQ3oBd91t2D3mcge/O5d835uhnvD4nV0+6qZ3GGx2R/LRLWkOHHdmwdAZziYZJcKVAYYm2RpXRERERERERCY2aaIjY7mLwkwIv9PEWUOyY6iribaPwFLour4jSrSP3nNnCJ9PTE6YZ2fdzhoKM8Kc3O+j8/qitWSv8lCYGeHsiXraL8U/J0K4oZzvFLvwdyZPUCRjm5cF9NF7If45A7QfqOfdWMxRQ+zR94M0d8XXj9D5qxC9V7O4d0VRXHk8K87VbnII0/KyYQvc4TAndxbxTbeX9rhYRURERERERGTqJh+LsbiCyo0Bdhz2sWNzmA1rXeTOh8E/hmh+NUg404W3Km5qSU+AGo+PcLGfXxyuSD6yYaqWedm+OUiVP0Cdv5yju2KLi9or2PaDJqr2B9jz8AAbvudmqS1C7+kgja93wIp63HdPsHZHEvmrPTiO1tPyjJfcCx5yCfO7N/20Z9awbf0Aexo6aGkIkHOfm+LYVJYcp53OXR7q1pdzlx363wty/GfdWAp9bFo18Robtn/wsbUsxL63q6na0s2G+4rIGe7jd2/5eeP0AHlbK3Cm/N7SIiKfjft/0sp/GAtFREREZFaZPNGBFeeuZn6aV8+xE000HgjSfwVs9gLyS3zUbq2mbNnUkwrmWCncUsu333LTeLSaI/eF8BZaASv5W5o4vKSeIy8HeeNAM/1RyFns4t6tQb7v9YxfT+QGMpw+nv3fEepebKLhySYy7AU43bUc2u4htw/a2moIHfdxZG4BxasiMAzZRT6edTVzYH8tde+HGcp0kLfWx1M7asifYF0PGJ2+su5giNyGWo692UTD3noGsZOb72LD3hoq1xdNsL6HiIikPitZdjtT+1Q1U3e6MxOLmboz1Lw7uCP9Rl8mUpTiTlFm7lkzdWeolD/fE5ilcf/XL93B5ZQO28w9a6burZszMjIyMmfOHABOT7AehYiIyO2yIm/0I27kcqfx0LQ1Z54TgJGREeOhlDb2/UBxzw6KW3HPBopbcc8Gsz3unr/0TL5Gh4iIiIiIiIjITKFEh4iIiIiIiIikDCU6RERERERERCRlKNEhIiIiIiIiIilDiQ4RERERERERSRlzenp6RpYsWWIsFxEREREREZEZat++fezevdtYnPK064qIiIiIiIiIpJQ5IyMjI3/+858B+MpXvmI8LiIiclvNxM+cmfh/vh0Ut+KeDRS34p4NFLfing3G4uY/wf8H3bbg+csKACYAAAAASUVORK5CYII=;" vertex="1" parent="1">
          <mxGeometry x="691" y="130" width="1082" height="519" as="geometry" />
        </mxCell>
        <mxCell id="W0v19VU2lWSn0CHCIJt0-3" value="" style="triangle;whiteSpace=wrap;html=1;rotation=-90;strokeWidth=1.5;" vertex="1" parent="1">
          <mxGeometry x="1283" y="-355" width="353" height="620.5" as="geometry" />
        </mxCell>
        <mxCell id="W0v19VU2lWSn0CHCIJt0-8" value="" style="triangle;whiteSpace=wrap;html=1;rotation=-90;strokeWidth=1.5;aspect=fixed;fillColor=none;" vertex="1" parent="1">
          <mxGeometry x="1331" y="-307" width="318" height="558.99" as="geometry" />
        </mxCell>
        <mxCell id="W0v19VU2lWSn0CHCIJt0-10" value="" style="triangle;whiteSpace=wrap;html=1;rotation=-90;strokeWidth=1.5;aspect=fixed;fillColor=none;" vertex="1" parent="1">
          <mxGeometry x="1270" y="-306" width="317" height="557.23" as="geometry" />
        </mxCell>
        <mxCell id="W0v19VU2lWSn0CHCIJt0-11" value="" style="triangle;whiteSpace=wrap;html=1;rotation=-90;strokeWidth=1.5;aspect=fixed;fillColor=none;" vertex="1" parent="1">
          <mxGeometry x="1380" y="-258" width="283" height="497.47" as="geometry" />
        </mxCell>
        <mxCell id="W0v19VU2lWSn0CHCIJt0-12" value="" style="triangle;whiteSpace=wrap;html=1;rotation=-90;strokeWidth=1.5;aspect=fixed;fillColor=none;" vertex="1" parent="1">
          <mxGeometry x="1256" y="-258" width="283" height="497.47" as="geometry" />
        </mxCell>
        <mxCell id="W0v19VU2lWSn0CHCIJt0-13" value="" style="triangle;whiteSpace=wrap;html=1;rotation=-90;strokeWidth=1.5;aspect=fixed;fillColor=none;" vertex="1" parent="1">
          <mxGeometry x="1429" y="-209" width="247" height="434.18" as="geometry" />
        </mxCell>
        <mxCell id="W0v19VU2lWSn0CHCIJt0-14" value="" style="triangle;whiteSpace=wrap;html=1;rotation=-90;strokeWidth=1.5;aspect=fixed;fillColor=none;" vertex="1" parent="1">
          <mxGeometry x="1243" y="-209" width="247" height="434.18" as="geometry" />
        </mxCell>
        <mxCell id="W0v19VU2lWSn0CHCIJt0-15" value="" style="triangle;whiteSpace=wrap;html=1;rotation=-90;strokeWidth=1.5;aspect=fixed;fillColor=none;" vertex="1" parent="1">
          <mxGeometry x="1477" y="-161" width="212" height="372.66" as="geometry" />
        </mxCell>
        <mxCell id="W0v19VU2lWSn0CHCIJt0-16" value="" style="triangle;whiteSpace=wrap;html=1;rotation=-90;strokeWidth=1.5;aspect=fixed;fillColor=none;" vertex="1" parent="1">
          <mxGeometry x="1230" y="-161" width="212" height="372.66" as="geometry" />
        </mxCell>
        <mxCell id="W0v19VU2lWSn0CHCIJt0-17" value="" style="triangle;whiteSpace=wrap;html=1;rotation=-90;strokeWidth=1.5;aspect=fixed;fillColor=none;" vertex="1" parent="1">
          <mxGeometry x="1525.71" y="-112" width="176.92" height="311" as="geometry" />
        </mxCell>
        <mxCell id="W0v19VU2lWSn0CHCIJt0-18" value="" style="triangle;whiteSpace=wrap;html=1;rotation=-90;strokeWidth=1.5;aspect=fixed;fillColor=none;" vertex="1" parent="1">
          <mxGeometry x="1216" y="-112" width="176.92" height="311" as="geometry" />
        </mxCell>
        <mxCell id="W0v19VU2lWSn0CHCIJt0-19" value="" style="triangle;whiteSpace=wrap;html=1;rotation=-90;strokeWidth=1.5;aspect=fixed;fillColor=none;" vertex="1" parent="1">
          <mxGeometry x="1574" y="-64" width="142" height="249.61" as="geometry" />
        </mxCell>
        <mxCell id="W0v19VU2lWSn0CHCIJt0-20" value="" style="triangle;whiteSpace=wrap;html=1;rotation=-90;strokeWidth=1.5;aspect=fixed;fillColor=none;" vertex="1" parent="1">
          <mxGeometry x="1203" y="-64" width="142" height="249.61" as="geometry" />
        </mxCell>
        <mxCell id="W0v19VU2lWSn0CHCIJt0-21" value="" style="triangle;whiteSpace=wrap;html=1;rotation=-90;strokeWidth=1.5;aspect=fixed;fillColor=none;" vertex="1" parent="1">
          <mxGeometry x="1623" y="-15" width="106" height="186.32" as="geometry" />
        </mxCell>
        <mxCell id="W0v19VU2lWSn0CHCIJt0-22" value="" style="triangle;whiteSpace=wrap;html=1;rotation=-90;strokeWidth=1.5;aspect=fixed;fillColor=none;" vertex="1" parent="1">
          <mxGeometry x="1190" y="-15" width="106" height="186.32" as="geometry" />
        </mxCell>
        <mxCell id="W0v19VU2lWSn0CHCIJt0-23" value="" style="triangle;whiteSpace=wrap;html=1;rotation=-90;strokeWidth=1.5;aspect=fixed;fillColor=none;" vertex="1" parent="1">
          <mxGeometry x="1672" y="34" width="71" height="124.81" as="geometry" />
        </mxCell>
        <mxCell id="W0v19VU2lWSn0CHCIJt0-24" value="" style="triangle;whiteSpace=wrap;html=1;rotation=-90;strokeWidth=1.5;aspect=fixed;fillColor=none;" vertex="1" parent="1">
          <mxGeometry x="1176" y="34" width="71" height="124.81" as="geometry" />
        </mxCell>
        <mxCell id="W0v19VU2lWSn0CHCIJt0-25" value="" style="triangle;whiteSpace=wrap;html=1;rotation=-90;strokeWidth=1.5;aspect=fixed;fillColor=none;" vertex="1" parent="1">
          <mxGeometry x="1721" y="83" width="35" height="61.52" as="geometry" />
        </mxCell>
        <mxCell id="W0v19VU2lWSn0CHCIJt0-26" value="" style="triangle;whiteSpace=wrap;html=1;rotation=-90;strokeWidth=1.5;aspect=fixed;fillColor=none;" vertex="1" parent="1">
          <mxGeometry x="1163" y="83" width="35" height="61.52" as="geometry" />
        </mxCell>
        <mxCell id="W0v19VU2lWSn0CHCIJt0-27" value="&lt;span style=&quot;color: rgb(31, 31, 31); font-family: Arial; font-style: normal; font-variant-ligatures: normal; font-variant-caps: normal; font-weight: 400; letter-spacing: normal; orphans: 2; text-indent: 0px; text-transform: none; widows: 2; word-spacing: 0px; -webkit-text-stroke-width: 0px; white-space: pre-wrap; background-color: rgb(255, 255, 255); text-decoration-thickness: initial; text-decoration-style: initial; text-decoration-color: initial; float: none; display: inline !important;&quot;&gt;&lt;font style=&quot;font-size: 25px;&quot;&gt;↓&lt;/font&gt;&lt;/span&gt;" style="text;whiteSpace=wrap;html=1;align=center;verticalAlign=middle;" vertex="1" parent="1">
          <mxGeometry x="1223" y="34.79999999999997" width="40" height="40" as="geometry" />
        </mxCell>
        <mxCell id="W0v19VU2lWSn0CHCIJt0-28" value="&lt;span style=&quot;color: rgb(31, 31, 31); font-family: Arial; font-style: normal; font-variant-ligatures: normal; font-variant-caps: normal; font-weight: 400; letter-spacing: normal; orphans: 2; text-indent: 0px; text-transform: none; widows: 2; word-spacing: 0px; -webkit-text-stroke-width: 0px; white-space: pre-wrap; background-color: rgb(255, 255, 255); text-decoration-thickness: initial; text-decoration-style: initial; text-decoration-color: initial; float: none; display: inline !important;&quot;&gt;&lt;font style=&quot;font-size: 25px;&quot;&gt;↓&lt;/font&gt;&lt;/span&gt;&lt;span style=&quot;color: rgb(31, 31, 31); font-family: Arial; font-size: 25px; white-space-collapse: preserve; background-color: rgb(255, 255, 255);&quot;&gt;↓&lt;/span&gt;" style="text;whiteSpace=wrap;html=1;align=center;verticalAlign=middle;" vertex="1" parent="1">
          <mxGeometry x="1377.5" y="-140" width="40" height="40" as="geometry" />
        </mxCell>
        <mxCell id="W0v19VU2lWSn0CHCIJt0-29" value="&lt;span style=&quot;font-family: Arial; font-style: normal; color: rgb(31, 31, 31);&quot; data-sheets-root=&quot;1&quot;&gt;&lt;font style=&quot;font-size: 25px;&quot;&gt;↑&lt;/font&gt;&lt;/span&gt;" style="text;whiteSpace=wrap;html=1;align=center;verticalAlign=middle;" vertex="1" parent="1">
          <mxGeometry x="1470" y="-174" width="40" height="40" as="geometry" />
        </mxCell>
        <mxCell id="W0v19VU2lWSn0CHCIJt0-32" value="&lt;span style=&quot;color: rgb(31, 31, 31); font-family: Arial; font-style: normal; font-variant-ligatures: normal; font-variant-caps: normal; font-weight: 400; letter-spacing: normal; orphans: 2; text-indent: 0px; text-transform: none; widows: 2; word-spacing: 0px; -webkit-text-stroke-width: 0px; white-space: pre-wrap; background-color: rgb(255, 255, 255); text-decoration-thickness: initial; text-decoration-style: initial; text-decoration-color: initial; float: none; display: inline !important;&quot;&gt;&lt;font style=&quot;font-size: 25px;&quot;&gt;↓&lt;/font&gt;&lt;/span&gt;" style="text;whiteSpace=wrap;html=1;align=center;verticalAlign=middle;" vertex="1" parent="1">
          <mxGeometry x="1346.5" y="-104.00000000000003" width="40" height="40" as="geometry" />
        </mxCell>
        <mxCell id="W0v19VU2lWSn0CHCIJt0-33" value="&lt;span style=&quot;color: rgb(31, 31, 31); font-family: Arial; font-style: normal; font-variant-ligatures: normal; font-variant-caps: normal; font-weight: 400; letter-spacing: normal; orphans: 2; text-indent: 0px; text-transform: none; widows: 2; word-spacing: 0px; -webkit-text-stroke-width: 0px; white-space: pre-wrap; background-color: rgb(255, 255, 255); text-decoration-thickness: initial; text-decoration-style: initial; text-decoration-color: initial; float: none; display: inline !important;&quot;&gt;&lt;font style=&quot;font-size: 25px;&quot;&gt;↓&lt;/font&gt;&lt;/span&gt;&lt;span style=&quot;color: rgb(31, 31, 31); font-family: Arial; font-size: 25px; white-space-collapse: preserve; background-color: rgb(255, 255, 255);&quot;&gt;↓&lt;/span&gt;" style="text;whiteSpace=wrap;html=1;align=center;verticalAlign=middle;fillColor=none;" vertex="1" parent="1">
          <mxGeometry x="1408.5" y="-174" width="40" height="40" as="geometry" />
        </mxCell>
        <mxCell id="W0v19VU2lWSn0CHCIJt0-35" value="&lt;span style=&quot;color: rgb(31, 31, 31); font-family: Arial; font-style: normal; font-variant-ligatures: normal; font-variant-caps: normal; font-weight: 400; letter-spacing: normal; orphans: 2; text-indent: 0px; text-transform: none; widows: 2; word-spacing: 0px; -webkit-text-stroke-width: 0px; white-space: pre-wrap; background-color: rgb(255, 255, 255); text-decoration-thickness: initial; text-decoration-style: initial; text-decoration-color: initial; float: none; display: inline !important;&quot;&gt;&lt;font style=&quot;font-size: 25px;&quot;&gt;↓&lt;/font&gt;&lt;/span&gt;" style="text;whiteSpace=wrap;html=1;align=center;verticalAlign=middle;" vertex="1" parent="1">
          <mxGeometry x="1408.5" y="-104.00000000000003" width="40" height="40" as="geometry" />
        </mxCell>
        <mxCell id="W0v19VU2lWSn0CHCIJt0-36" value="&lt;span style=&quot;color: rgb(31, 31, 31); font-family: Arial; font-style: normal; font-variant-ligatures: normal; font-variant-caps: normal; font-weight: 400; letter-spacing: normal; orphans: 2; text-indent: 0px; text-transform: none; widows: 2; word-spacing: 0px; -webkit-text-stroke-width: 0px; white-space: pre-wrap; background-color: rgb(255, 255, 255); text-decoration-thickness: initial; text-decoration-style: initial; text-decoration-color: initial; float: none; display: inline !important;&quot;&gt;&lt;font style=&quot;font-size: 25px;&quot;&gt;↓&lt;/font&gt;&lt;/span&gt;" style="text;whiteSpace=wrap;html=1;align=center;verticalAlign=middle;" vertex="1" parent="1">
          <mxGeometry x="1439.5" y="-140.00000000000003" width="40" height="40" as="geometry" />
        </mxCell>
        <mxCell id="W0v19VU2lWSn0CHCIJt0-38" value="&lt;span style=&quot;color: rgb(31, 31, 31); font-family: Arial; font-style: normal; font-variant-ligatures: normal; font-variant-caps: normal; font-weight: 400; letter-spacing: normal; orphans: 2; text-indent: 0px; text-transform: none; widows: 2; word-spacing: 0px; -webkit-text-stroke-width: 0px; white-space: pre-wrap; background-color: rgb(255, 255, 255); text-decoration-thickness: initial; text-decoration-style: initial; text-decoration-color: initial; float: none; display: inline !important;&quot;&gt;&lt;font style=&quot;font-size: 25px;&quot;&gt;↓&lt;/font&gt;&lt;/span&gt;&lt;span style=&quot;color: rgb(31, 31, 31); font-family: Arial; font-size: 25px; white-space-collapse: preserve; background-color: rgb(255, 255, 255);&quot;&gt;↓&lt;/span&gt;" style="text;whiteSpace=wrap;html=1;align=center;verticalAlign=middle;" vertex="1" parent="1">
          <mxGeometry x="1346.5" y="34.80000000000001" width="40" height="40" as="geometry" />
        </mxCell>
        <mxCell id="W0v19VU2lWSn0CHCIJt0-39" value="&lt;span style=&quot;color: rgb(31, 31, 31); font-family: Arial; font-style: normal; font-variant-ligatures: normal; font-variant-caps: normal; font-weight: 400; letter-spacing: normal; orphans: 2; text-indent: 0px; text-transform: none; widows: 2; word-spacing: 0px; -webkit-text-stroke-width: 0px; white-space: pre-wrap; background-color: rgb(255, 255, 255); text-decoration-thickness: initial; text-decoration-style: initial; text-decoration-color: initial; float: none; display: inline !important;&quot;&gt;&lt;font style=&quot;font-size: 25px;&quot;&gt;↓&lt;/font&gt;&lt;/span&gt;" style="text;whiteSpace=wrap;html=1;align=center;verticalAlign=middle;" vertex="1" parent="1">
          <mxGeometry x="1377.5" y="0.9999999999999716" width="40" height="40" as="geometry" />
        </mxCell>
        <mxCell id="W0v19VU2lWSn0CHCIJt0-40" value="&lt;span style=&quot;color: rgb(31, 31, 31); font-family: Arial; font-style: normal; font-variant-ligatures: normal; font-variant-caps: normal; font-weight: 400; letter-spacing: normal; orphans: 2; text-indent: 0px; text-transform: none; widows: 2; word-spacing: 0px; -webkit-text-stroke-width: 0px; white-space: pre-wrap; background-color: rgb(255, 255, 255); text-decoration-thickness: initial; text-decoration-style: initial; text-decoration-color: initial; float: none; display: inline !important;&quot;&gt;&lt;font style=&quot;font-size: 25px;&quot;&gt;↓&lt;/font&gt;&lt;/span&gt;" style="text;whiteSpace=wrap;html=1;align=center;verticalAlign=middle;" vertex="1" parent="1">
          <mxGeometry x="1439.5" y="-70.00000000000003" width="40" height="40" as="geometry" />
        </mxCell>
        <mxCell id="W0v19VU2lWSn0CHCIJt0-41" value="&lt;span style=&quot;color: rgb(31, 31, 31); font-family: Arial; font-style: normal; font-variant-ligatures: normal; font-variant-caps: normal; font-weight: 400; letter-spacing: normal; orphans: 2; text-indent: 0px; text-transform: none; widows: 2; word-spacing: 0px; -webkit-text-stroke-width: 0px; white-space: pre-wrap; background-color: rgb(255, 255, 255); text-decoration-thickness: initial; text-decoration-style: initial; text-decoration-color: initial; float: none; display: inline !important;&quot;&gt;&lt;font style=&quot;font-size: 25px;&quot;&gt;↓&lt;/font&gt;&lt;/span&gt;" style="text;whiteSpace=wrap;html=1;align=center;verticalAlign=middle;" vertex="1" parent="1">
          <mxGeometry x="1470" y="-104.00000000000003" width="40" height="40" as="geometry" />
        </mxCell>
        <mxCell id="W0v19VU2lWSn0CHCIJt0-42" value="&lt;span style=&quot;color: rgb(31, 31, 31); font-family: Arial; font-style: normal; font-variant-ligatures: normal; font-variant-caps: normal; font-weight: 400; letter-spacing: normal; orphans: 2; text-indent: 0px; text-transform: none; widows: 2; word-spacing: 0px; -webkit-text-stroke-width: 0px; white-space: pre-wrap; background-color: rgb(255, 255, 255); text-decoration-thickness: initial; text-decoration-style: initial; text-decoration-color: initial; float: none; display: inline !important;&quot;&gt;&lt;font style=&quot;font-size: 25px;&quot;&gt;↓&lt;/font&gt;&lt;/span&gt;&lt;span style=&quot;color: rgb(31, 31, 31); font-family: Arial; font-size: 25px; white-space-collapse: preserve; background-color: rgb(255, 255, 255);&quot;&gt;↓&lt;/span&gt;" style="text;whiteSpace=wrap;html=1;align=center;verticalAlign=middle;" vertex="1" parent="1">
          <mxGeometry x="1470" y="-33" width="40" height="40" as="geometry" />
        </mxCell>
        <mxCell id="W0v19VU2lWSn0CHCIJt0-43" value="&lt;span style=&quot;color: rgb(31, 31, 31); font-family: Arial; font-style: normal; font-variant-ligatures: normal; font-variant-caps: normal; font-weight: 400; letter-spacing: normal; orphans: 2; text-indent: 0px; text-transform: none; widows: 2; word-spacing: 0px; -webkit-text-stroke-width: 0px; white-space: pre-wrap; background-color: rgb(255, 255, 255); text-decoration-thickness: initial; text-decoration-style: initial; text-decoration-color: initial; float: none; display: inline !important;&quot;&gt;&lt;font style=&quot;font-size: 25px;&quot;&gt;↓&lt;/font&gt;&lt;/span&gt;&lt;span style=&quot;color: rgb(31, 31, 31); font-family: Arial; font-size: 25px; white-space-collapse: preserve; background-color: rgb(255, 255, 255);&quot;&gt;↓&lt;/span&gt;" style="text;whiteSpace=wrap;html=1;align=center;verticalAlign=middle;" vertex="1" parent="1">
          <mxGeometry x="1501.5" y="-70" width="40" height="40" as="geometry" />
        </mxCell>
        <mxCell id="W0v19VU2lWSn0CHCIJt0-44" value="&lt;span style=&quot;color: rgb(31, 31, 31); font-family: Arial; font-style: normal; font-variant-ligatures: normal; font-variant-caps: normal; font-weight: 400; letter-spacing: normal; orphans: 2; text-indent: 0px; text-transform: none; widows: 2; word-spacing: 0px; -webkit-text-stroke-width: 0px; white-space: pre-wrap; background-color: rgb(255, 255, 255); text-decoration-thickness: initial; text-decoration-style: initial; text-decoration-color: initial; float: none; display: inline !important;&quot;&gt;&lt;font style=&quot;font-size: 25px;&quot;&gt;↓&lt;/font&gt;&lt;/span&gt;" style="text;whiteSpace=wrap;html=1;align=center;verticalAlign=middle;" vertex="1" parent="1">
          <mxGeometry x="1439.5" y="72.79999999999998" width="40" height="40" as="geometry" />
        </mxCell>
        <mxCell id="W0v19VU2lWSn0CHCIJt0-45" value="&lt;span style=&quot;color: rgb(31, 31, 31); font-family: Arial; font-style: normal; font-variant-ligatures: normal; font-variant-caps: normal; font-weight: 400; letter-spacing: normal; orphans: 2; text-indent: 0px; text-transform: none; widows: 2; word-spacing: 0px; -webkit-text-stroke-width: 0px; white-space: pre-wrap; background-color: rgb(255, 255, 255); text-decoration-thickness: initial; text-decoration-style: initial; text-decoration-color: initial; float: none; display: inline !important;&quot;&gt;&lt;font style=&quot;font-size: 25px;&quot;&gt;↓&lt;/font&gt;&lt;/span&gt;&lt;span style=&quot;color: rgb(31, 31, 31); font-family: Arial; font-size: 25px; white-space-collapse: preserve; background-color: rgb(255, 255, 255);&quot;&gt;↓&lt;/span&gt;" style="text;whiteSpace=wrap;html=1;align=center;verticalAlign=middle;" vertex="1" parent="1">
          <mxGeometry x="1501.5" y="1" width="40" height="40" as="geometry" />
        </mxCell>
        <mxCell id="W0v19VU2lWSn0CHCIJt0-46" value="&lt;span style=&quot;color: rgb(31, 31, 31); font-family: Arial; font-style: normal; font-variant-ligatures: normal; font-variant-caps: normal; font-weight: 400; letter-spacing: normal; orphans: 2; text-indent: 0px; text-transform: none; widows: 2; word-spacing: 0px; -webkit-text-stroke-width: 0px; white-space: pre-wrap; background-color: rgb(255, 255, 255); text-decoration-thickness: initial; text-decoration-style: initial; text-decoration-color: initial; float: none; display: inline !important;&quot;&gt;&lt;font style=&quot;font-size: 25px;&quot;&gt;↓&lt;/font&gt;&lt;/span&gt;&lt;span style=&quot;color: rgb(31, 31, 31); font-family: Arial; font-size: 25px; white-space-collapse: preserve; background-color: rgb(255, 255, 255);&quot;&gt;↓&lt;/span&gt;" style="text;whiteSpace=wrap;html=1;align=center;verticalAlign=middle;" vertex="1" parent="1">
          <mxGeometry x="1532.5" y="-33" width="40" height="40" as="geometry" />
        </mxCell>
        <mxCell id="W0v19VU2lWSn0CHCIJt0-47" value="&lt;span style=&quot;color: rgb(31, 31, 31); font-family: Arial; font-style: normal; font-variant-ligatures: normal; font-variant-caps: normal; font-weight: 400; letter-spacing: normal; orphans: 2; text-indent: 0px; text-transform: none; widows: 2; word-spacing: 0px; -webkit-text-stroke-width: 0px; white-space: pre-wrap; background-color: rgb(255, 255, 255); text-decoration-thickness: initial; text-decoration-style: initial; text-decoration-color: initial; float: none; display: inline !important;&quot;&gt;&lt;font style=&quot;font-size: 25px;&quot;&gt;↓&lt;/font&gt;&lt;/span&gt;&lt;span style=&quot;color: rgb(31, 31, 31); font-family: Arial; font-size: 25px; white-space-collapse: preserve; background-color: rgb(255, 255, 255);&quot;&gt;↓&lt;/span&gt;" style="text;whiteSpace=wrap;html=1;align=center;verticalAlign=middle;" vertex="1" parent="1">
          <mxGeometry x="1532.5" y="35.8" width="40" height="40" as="geometry" />
        </mxCell>
        <mxCell id="W0v19VU2lWSn0CHCIJt0-48" value="&lt;span style=&quot;color: rgb(31, 31, 31); font-family: Arial; font-style: normal; font-variant-ligatures: normal; font-variant-caps: normal; font-weight: 400; letter-spacing: normal; orphans: 2; text-indent: 0px; text-transform: none; widows: 2; word-spacing: 0px; -webkit-text-stroke-width: 0px; white-space: pre-wrap; background-color: rgb(255, 255, 255); text-decoration-thickness: initial; text-decoration-style: initial; text-decoration-color: initial; float: none; display: inline !important;&quot;&gt;&lt;font style=&quot;font-size: 25px;&quot;&gt;↓&lt;/font&gt;&lt;/span&gt;&lt;span style=&quot;color: rgb(31, 31, 31); font-family: Arial; font-size: 25px; white-space-collapse: preserve; background-color: rgb(255, 255, 255);&quot;&gt;↓&lt;/span&gt;" style="text;whiteSpace=wrap;html=1;align=center;verticalAlign=middle;" vertex="1" parent="1">
          <mxGeometry x="1563" y="1" width="40" height="40" as="geometry" />
        </mxCell>
        <mxCell id="W0v19VU2lWSn0CHCIJt0-49" value="&lt;span style=&quot;color: rgb(31, 31, 31); font-family: Arial; font-style: normal; font-variant-ligatures: normal; font-variant-caps: normal; font-weight: 400; letter-spacing: normal; orphans: 2; text-indent: 0px; text-transform: none; widows: 2; word-spacing: 0px; -webkit-text-stroke-width: 0px; white-space: pre-wrap; background-color: rgb(255, 255, 255); text-decoration-thickness: initial; text-decoration-style: initial; text-decoration-color: initial; float: none; display: inline !important;&quot;&gt;&lt;font style=&quot;font-size: 25px;&quot;&gt;↓&lt;/font&gt;&lt;/span&gt;" style="text;whiteSpace=wrap;html=1;align=center;verticalAlign=middle;" vertex="1" parent="1">
          <mxGeometry x="1594.17" y="-32.27000000000003" width="40" height="40" as="geometry" />
        </mxCell>
        <mxCell id="W0v19VU2lWSn0CHCIJt0-50" value="&lt;span style=&quot;color: rgb(31, 31, 31); font-family: Arial; font-style: normal; font-variant-ligatures: normal; font-variant-caps: normal; font-weight: 400; letter-spacing: normal; orphans: 2; text-indent: 0px; text-transform: none; widows: 2; word-spacing: 0px; -webkit-text-stroke-width: 0px; white-space: pre-wrap; background-color: rgb(255, 255, 255); text-decoration-thickness: initial; text-decoration-style: initial; text-decoration-color: initial; float: none; display: inline !important;&quot;&gt;&lt;font style=&quot;font-size: 25px;&quot;&gt;↓&lt;/font&gt;&lt;/span&gt;" style="text;whiteSpace=wrap;html=1;align=center;verticalAlign=middle;" vertex="1" parent="1">
          <mxGeometry x="1563" y="72.79999999999998" width="40" height="40" as="geometry" />
        </mxCell>
        <mxCell id="W0v19VU2lWSn0CHCIJt0-51" value="&lt;span style=&quot;color: rgb(31, 31, 31); font-family: Arial; font-style: normal; font-variant-ligatures: normal; font-variant-caps: normal; font-weight: 400; letter-spacing: normal; orphans: 2; text-indent: 0px; text-transform: none; widows: 2; word-spacing: 0px; -webkit-text-stroke-width: 0px; white-space: pre-wrap; background-color: rgb(255, 255, 255); text-decoration-thickness: initial; text-decoration-style: initial; text-decoration-color: initial; float: none; display: inline !important;&quot;&gt;&lt;font style=&quot;font-size: 25px;&quot;&gt;↓&lt;/font&gt;&lt;/span&gt;" style="text;whiteSpace=wrap;html=1;align=center;verticalAlign=middle;" vertex="1" parent="1">
          <mxGeometry x="1594.17" y="35.79999999999998" width="40" height="40" as="geometry" />
        </mxCell>
        <mxCell id="W0v19VU2lWSn0CHCIJt0-52" value="&lt;span style=&quot;color: rgb(31, 31, 31); font-family: Arial; font-style: normal; font-variant-ligatures: normal; font-variant-caps: normal; font-weight: 400; letter-spacing: normal; orphans: 2; text-indent: 0px; text-transform: none; widows: 2; word-spacing: 0px; -webkit-text-stroke-width: 0px; white-space: pre-wrap; background-color: rgb(255, 255, 255); text-decoration-thickness: initial; text-decoration-style: initial; text-decoration-color: initial; float: none; display: inline !important;&quot;&gt;&lt;font style=&quot;font-size: 25px;&quot;&gt;↓&lt;/font&gt;&lt;/span&gt;" style="text;whiteSpace=wrap;html=1;align=center;verticalAlign=middle;" vertex="1" parent="1">
          <mxGeometry x="1625" y="0.999999999999984" width="40" height="40" as="geometry" />
        </mxCell>
        <mxCell id="W0v19VU2lWSn0CHCIJt0-53" value="&lt;span style=&quot;font-family: Arial; font-style: normal; color: rgb(31, 31, 31);&quot; data-sheets-root=&quot;1&quot;&gt;&lt;font style=&quot;font-size: 25px;&quot;&gt;↑&lt;/font&gt;&lt;/span&gt;&lt;span style=&quot;color: rgb(31, 31, 31); font-family: Arial; font-size: 25px;&quot;&gt;↑&lt;/span&gt;" style="text;whiteSpace=wrap;html=1;align=center;verticalAlign=middle;" vertex="1" parent="1">
          <mxGeometry x="1625" y="72.8" width="40" height="40" as="geometry" />
        </mxCell>
        <mxCell id="W0v19VU2lWSn0CHCIJt0-54" value="&lt;span style=&quot;font-family: Arial; font-style: normal; color: rgb(31, 31, 31);&quot; data-sheets-root=&quot;1&quot;&gt;&lt;font style=&quot;font-size: 25px;&quot;&gt;↑&lt;/font&gt;&lt;/span&gt;" style="text;whiteSpace=wrap;html=1;align=center;verticalAlign=middle;" vertex="1" parent="1">
          <mxGeometry x="1656" y="35.80000000000001" width="40" height="40" as="geometry" />
        </mxCell>
        <mxCell id="W0v19VU2lWSn0CHCIJt0-55" value="&lt;span style=&quot;font-family: Arial; font-style: normal; color: rgb(31, 31, 31);&quot; data-sheets-root=&quot;1&quot;&gt;&lt;font style=&quot;font-size: 25px;&quot;&gt;↑&lt;/font&gt;&lt;/span&gt;" style="text;whiteSpace=wrap;html=1;align=center;verticalAlign=middle;" vertex="1" parent="1">
          <mxGeometry x="1687.5" y="72.80000000000001" width="40" height="40" as="geometry" />
        </mxCell>
      </root>
    </mxGraphModel>
  </diagram>
</mxfile>
